<?xml version="1.0" standalone="no"?>
<!DOCTYPE svg PUBLIC "-//W3C//DTD SVG 1.1//EN" "http://www.w3.org/Graphics/SVG/1.1/DTD/svg11.dtd" >
<svg xmlns="http://www.w3.org/2000/svg" xmlns:xlink="http://www.w3.org/1999/xlink" version="1.1">
<metadata>
Created by FontForge 20170731 at Thu Mar 20 13:42:29 2014
 By Aleksey,,,
Copyright (c) 2011 Rod McDonald. Published by Canada Type. All rights reserved.
</metadata>
<defs>
<font id="Gibson-Italic" horiz-adv-x="325" >
  <font-face 
    font-family="Gibson"
    font-weight="400"
    font-style="italic"
    font-stretch="normal"
    units-per-em="1000"
    panose-1="2 0 0 0 0 0 0 0 0 0"
    ascent="781"
    descent="-219"
    x-height="474"
    cap-height="690"
    bbox="-164 -225 1380 946"
    underline-thickness="20"
    underline-position="-193"
    slope="-9"
    unicode-range="U+0020-FB04"
  />
<missing-glyph horiz-adv-x="194" 
 />
    <glyph glyph-name="ff" unicode="ff" horiz-adv-x="530" 
d="M306 -113l81 509h-171l-81 -504q-6 -38 -20 -70l-4 -8h-93q15 26 23 73l81 509h-65l13 79h65q12 77 30 124q36 97 147 102q53 0 78 -11l-17 -73q-24 9 -51 9q-32 -4 -48 -15.5t-26 -38.5l-10 -31l-6 -35q-3 -29 -4 -31h172q12 77 30 124q36 97 147 102q53 0 78 -11
l-17 -73q-24 9 -51 9q-32 -4 -48 -15.5t-26 -38.5l-10 -31l-6 -35q-3 -29 -4 -31h109l-12 -79h-109l-81 -504q-6 -38 -20 -70l-4 -8h-93q15 26 23 73z" />
    <glyph glyph-name="fi" unicode="fi" horiz-adv-x="503" 
d="M526 640q0 -29 -21 -49.5t-50 -20.5q-22 0 -37 13.5t-15 36.5q0 28 21 49t50 21q23 0 37.5 -13.5t14.5 -36.5zM475 398l-52 -328q-2 -18 -2 -37l3 -33h-95q-3 10 -3 32q0 25 4 45l53 328q3 23 3 38l-3 33h93q3 -10 3 -32q0 -25 -4 -46zM41 -113l81 509h-65l13 79h65
q12 77 30 124q36 97 147 102q53 0 78 -11l-17 -73q-24 9 -51 9q-32 -4 -48 -15.5t-26 -38.5l-10 -31l-6 -35q-3 -29 -4 -31h109l-12 -79h-109l-81 -504q-6 -38 -20 -70l-4 -8h-93q15 26 23 73z" />
    <glyph glyph-name="fl" unicode="fl" horiz-adv-x="505" 
d="M41 -113l81 509h-65l13 79h65q12 77 30 124q36 97 147 102q53 0 78 -11l-17 -73q-24 9 -51 9q-32 -4 -48 -15.5t-26 -38.5l-10 -31l-6 -35q-3 -29 -4 -31h109l-12 -79h-109l-81 -504q-6 -38 -20 -70l-4 -8h-93q15 26 23 73zM510 612l-86 -542q-2 -18 -2 -37l3 -33h-95
q-3 10 -3 32q0 25 4 45l86 542q3 22 3 38l-3 33h94q3 -11 3 -32q0 -25 -4 -46z" />
    <glyph glyph-name="ffi" unicode="ffi" horiz-adv-x="758" 
d="M306 -113l81 509h-171l-81 -504q-6 -38 -20 -70l-4 -8h-93q15 26 23 73l81 509h-65l13 79h65q12 77 30 124q36 97 147 102q53 0 78 -11l-17 -73q-24 9 -51 9q-32 -4 -48 -15.5t-26 -38.5l-10 -31l-6 -35q-3 -29 -4 -31h172q12 77 30 124q36 97 147 102q53 0 78 -11
l-17 -73q-24 9 -51 9q-32 -4 -48 -15.5t-26 -38.5l-10 -31l-6 -35q-3 -29 -4 -31h109l-12 -79h-109l-81 -504q-6 -38 -20 -70l-4 -8h-93q15 26 23 73zM733 398l-52 -328q-2 -18 -2 -37l3 -33h-95q-3 10 -3 32q0 25 4 45l53 328q3 23 3 38l-3 33h93q3 -10 3 -32q0 -25 -4 -46
zM784 640q0 -29 -21 -49.5t-50 -20.5q-22 0 -37 13.5t-15 36.5q0 28 21 49t50 21q23 0 37.5 -13.5t14.5 -36.5z" />
    <glyph glyph-name="ffl" unicode="ffl" horiz-adv-x="760" 
d="M306 -113l81 509h-171l-81 -504q-6 -38 -20 -70l-4 -8h-93q15 26 23 73l81 509h-65l13 79h65q12 77 30 124q36 97 147 102q53 0 78 -11l-17 -73q-24 9 -51 9q-32 -4 -48 -15.5t-26 -38.5l-10 -31l-6 -35q-3 -29 -4 -31h172q12 77 30 124q36 97 147 102q53 0 78 -11
l-17 -73q-24 9 -51 9q-32 -4 -48 -15.5t-26 -38.5l-10 -31l-6 -35q-3 -29 -4 -31h109l-12 -79h-109l-81 -504q-6 -38 -20 -70l-4 -8h-93q15 26 23 73zM768 612l-86 -542q-2 -18 -2 -37l3 -33h-95q-3 10 -3 32q0 25 4 45l86 542q3 22 3 38l-3 33h94q3 -11 3 -32q0 -25 -4 -46
z" />
    <glyph glyph-name="f_j" unicode="fj" horiz-adv-x="493" 
d="M41 -113l81 509h-65l13 79h65q12 77 30 124q36 97 147 102q53 0 78 -11l-17 -73q-24 9 -51 9q-32 -4 -48 -15.5t-26 -38.5l-10 -31l-6 -35q-3 -29 -4 -31h109l-12 -79h-109l-81 -504q-6 -38 -20 -70l-4 -8h-93q15 26 23 73zM469 404l-64 -405q-13 -81 -49 -133
q-39 -62 -126 -62q-39 0 -58 8l13 78q52 -17 82 4q16 10 25 31q14 32 20 77l63 397q9 49 21 69l4 9h92q-15 -26 -23 -73zM519 640q0 -29 -21 -49.5t-50 -20.5q-22 0 -37 14t-15 35q0 29 21 50t50 21q23 0 37.5 -13.5t14.5 -36.5z" />
    <glyph glyph-name="f_t" unicode="ft" horiz-adv-x="567" 
d="M505 538l-10 -63h109l-12 -79h-110q-3 -21 -15 -81q-25 -132 -25 -189q0 -29 9 -41t33 -12q30 0 55 11l-7 -79q-41 -16 -87 -16q-100 0 -100 103q0 47 7 95q9 64 19 117q6 27 17 92h-172l-81 -504q-6 -38 -20 -70l-4 -8h-93q15 26 23 73l81 509h-65l13 79h65
q12 77 30 124q36 97 147 102q53 0 78 -11l-17 -73q-24 9 -51 9q-32 -4 -48 -15.5t-26 -38.5l-10 -31l-6 -35q-3 -29 -4 -31h173l11 70q3 23 3 38l-3 33h94q3 -10 3 -32q0 -25 -4 -46z" />
    <glyph glyph-name=".notdef" horiz-adv-x="194" 
 />
    <glyph glyph-name=".null" horiz-adv-x="0" 
 />
    <glyph glyph-name="nonmarkingreturn" horiz-adv-x="333" 
 />
    <glyph glyph-name="space" unicode=" " horiz-adv-x="193" 
 />
    <glyph glyph-name="exclam" unicode="!" horiz-adv-x="292" 
d="M113 183l72 507h98l-89 -507h-81zM199 65q0 -32 -22 -53.5t-54 -21.5q-25 0 -40 13.5t-15 37.5q0 32 21.5 54t53.5 22q25 0 40.5 -14t15.5 -38z" />
    <glyph glyph-name="quotedbl" unicode="&#x22;" horiz-adv-x="433" 
d="M312 476l24 214h90l-44 -214h-70zM157 476l24 214h90l-44 -214h-70z" />
    <glyph glyph-name="numbersign" unicode="#" horiz-adv-x="579" 
d="M557 712l-65 -208h106l-10 -65h-116l-45 -148h107l-10 -64h-118l-63 -208h-64l64 208h-126l-64 -208h-63l64 208h-103l10 64h113l45 148h-104l10 65h114l65 208h63l-64 -208h126l64 208h64zM237 291h126l46 148h-127z" />
    <glyph glyph-name="dollar" unicode="$" horiz-adv-x="568" 
d="M558 602l-55 -57q-31 66 -103 76l-37 -230q76 -40 101 -61q48 -44 48 -111q0 -87 -63 -152q-63 -64 -154 -73l-12 -73h-57l12 72q-61 1 -108.5 34.5t-67.5 90.5l63 53q12 -42 48.5 -70t81.5 -29l40 244q-80 42 -101 62q-44 41 -44 106q0 88 60 146t150 66l11 68h57
l-12 -69q103 -10 142 -93zM313 413l34 208q-47 -5 -78 -38t-31 -79q0 -22 12 -42q3 -4 5.5 -7.5t5.5 -6.5l5 -5t6.5 -5t6 -4.5t7.5 -5t7.5 -4.5t9 -5.5t10.5 -5.5zM423 199q0 39 -25 60q-17 16 -54 36l-36 -224q46 3 81 41q34 38 34 87z" />
    <glyph glyph-name="percent" unicode="%" horiz-adv-x="755" 
d="M410 561q0 -83 -52 -141q-53 -59 -135 -59q-60 0 -96.5 37t-36.5 98q0 82 52 140q53 59 134 59q61 0 97.5 -37t36.5 -97zM125 7l521 700l45 -31l-521 -699zM726 187q0 -83 -52 -141t-134 -58q-61 0 -97.5 37t-36.5 97q0 83 52 141q53 59 135 59q60 0 96.5 -37t36.5 -98z
M340 551q0 37 -19.5 58.5t-54.5 21.5q-48 0 -77 -38t-29 -87q0 -37 19.5 -58.5t54.5 -21.5q47 0 76 38q30 38 30 87zM656 178q0 37 -19.5 58.5t-54.5 21.5q-47 0 -76 -38t-29 -87q0 -37 19 -58.5t54 -21.5q48 0 77 38t29 87z" />
    <glyph glyph-name="ampersand" unicode="&#x26;" horiz-adv-x="670" 
d="M585 363l68 -34q-63 -100 -128 -165l114 -156l-2 -8h-111l-66 98q-63 -57 -119 -83.5t-122 -26.5q-79 0 -128.5 41.5t-49.5 115.5t42 130q19 25 48 48q43 35 120 73l-27 42q-25 47 -25 88q0 79 57 127t139 48q63 0 104 -32t41 -89q0 -114 -162 -200l103 -156
q54 54 104 139zM453 569q0 29 -18.5 44.5t-50.5 15.5q-40 0 -67 -27t-27 -68q0 -15 11 -46q3 -7 15 -27q2 -2 9.5 -13.5t9.5 -13.5q49 28 77 52q41 35 41 83zM417 158l-124 182q-36 -19 -56 -32q-11 -7 -46 -34q-53 -42 -53 -109q0 -45 29.5 -72t75.5 -27q44 0 90.5 25.5
t83.5 66.5z" />
    <glyph glyph-name="quotesingle" unicode="'" horiz-adv-x="295" 
d="M166 476l24 214h90l-43 -214h-71z" />
    <glyph glyph-name="parenleft" unicode="(" horiz-adv-x="275" 
d="M290 770l55 -33q-86 -107 -140 -259q-53 -153 -53 -287q0 -186 58 -305l-65 -34q-80 166 -80 335q0 303 225 583z" />
    <glyph glyph-name="parenright" unicode=")" horiz-adv-x="275" 
d="M266 436q0 -304 -225 -584l-55 34q87 109 139 258q54 152 54 288q0 76 -15 160q-15 86 -43 145l65 33q80 -165 80 -334z" />
    <glyph glyph-name="asterisk" unicode="*" horiz-adv-x="509" 
d="M346 567l143 56l12 -61l-149 -44l73 -128l-58 -37l-58 135l-101 -135l-46 37l114 128l-135 44l31 61l125 -56l15 143h65z" />
    <glyph glyph-name="plus" unicode="+" horiz-adv-x="667" 
d="M351 382h224v-74h-224v-224h-74v224h-225v74h225v224h74v-224z" />
    <glyph glyph-name="comma" unicode="," horiz-adv-x="292" 
d="M15 -140l107 246h96l-128 -246h-75z" />
    <glyph glyph-name="hyphen" unicode="-" horiz-adv-x="283" 
d="M40 234l13 80h235l-13 -80h-235z" />
    <glyph glyph-name="period" unicode="." horiz-adv-x="292" 
d="M198 64q0 -31 -21.5 -52.5t-53.5 -21.5q-25 0 -40.5 14t-15.5 37q0 31 22 52.5t54 21.5q24 0 39.5 -13.5t15.5 -37.5z" />
    <glyph glyph-name="slash" unicode="/" horiz-adv-x="504" 
d="M-12 -64l537 853l58 -28l-535 -854z" />
    <glyph glyph-name="zero" unicode="0" horiz-adv-x="568" 
d="M578 437q0 -58 -11 -118t-36.5 -119.5t-61 -106t-90 -75.5t-119.5 -29q-108 0 -157 75q-49 74 -49 187q0 58 11 118t36.5 120t61 106.5t90 75.5t119.5 29q106 0 156 -75q50 -76 50 -188zM483 436q0 33 -6 62.5t-19 57t-38.5 44t-60.5 16.5q-53 0 -96.5 -37.5t-67.5 -98.5
q-45 -112 -45 -223q0 -33 5.5 -62.5t18.5 -57.5t38.5 -44.5t60.5 -16.5q54 0 98 37.5t66 98.5q46 117 46 224z" />
    <glyph glyph-name="one" unicode="1" horiz-adv-x="423" 
d="M136 617l12 73h222l-109 -690h-93l98 617h-130z" />
    <glyph glyph-name="two" unicode="2" horiz-adv-x="568" 
d="M555 533q0 -88 -60 -163q-37 -44 -56 -62q-24 -24 -66 -60l-195 -166h337l-13 -82h-450l-3 66l271 231q40 35 66 60q27 29 50 70q24 44 24 85q0 50 -32 78.5t-85 28.5q-96 0 -177 -109l-43 57q36 61 101 97t138 36q86 0 139.5 -44t53.5 -123z" />
    <glyph glyph-name="three" unicode="3" horiz-adv-x="568" 
d="M550 549q0 -136 -135 -185v-1q47 -10 75 -48t28 -89q0 -108 -81 -172q-80 -64 -193 -64q-63 0 -116 31.5t-82 86.5l63 57q58 -94 146 -94q71 0 120 40t49 110q0 63 -56 88q-14 8 -37 9q-31 4 -75 4l12 78q77 0 126 20q61 26 61 110q0 43 -30.5 67t-77.5 24
q-80 0 -171 -79l-35 60q92 98 226 98q76 0 129 -40q54 -39 54 -111z" />
    <glyph glyph-name="four" unicode="4" horiz-adv-x="568" 
d="M538 694l-73 -461h96l-13 -82h-96l-24 -151h-92l24 151h-334l11 78l404 465h97zM133 231h241l55 345z" />
    <glyph glyph-name="five" unicode="5" horiz-adv-x="568" 
d="M133 366l110 324h334l-12 -80h-264l-65 -180q42 18 96 18q82 0 138 -51q55 -51 55 -134q0 -117 -83 -197q-82 -78 -202 -78q-69 0 -124.5 31t-76.5 86l62 57q17 -42 58.5 -67t91.5 -25q76 0 128 52t52 129q0 56 -36.5 89t-94.5 33q-77 0 -124 -37z" />
    <glyph glyph-name="six" unicode="6" horiz-adv-x="568" 
d="M584 629l-51 -66q-51 59 -135 59q-50 0 -91.5 -27.5t-68.5 -75.5q-47 -87 -64 -188q69 108 195 108q76 0 125 -49t49 -125q0 -112 -77 -195q-76 -82 -191 -82q-104 0 -153 67t-49 172q0 62 12 125.5t38.5 126.5t65 111.5t95.5 79t125 30.5q107 0 175 -71zM448 246
q0 55 -31 87.5t-84 32.5q-71 0 -118 -54q-47 -53 -47 -125q0 -54 31.5 -87t85.5 -33q70 0 117 53q46 53 46 126z" />
    <glyph glyph-name="seven" unicode="7" horiz-adv-x="568" 
d="M146 690h451l19 -56l-422 -634h-98l409 610h-372z" />
    <glyph glyph-name="eight" unicode="8" horiz-adv-x="568" 
d="M555 550q0 -65 -35 -113.5t-96 -71.5v-1q47 -17 73 -53.5t26 -86.5q0 -108 -76 -172q-77 -63 -187 -63q-85 0 -143 41q-57 42 -57 124q0 74 41.5 130.5t112.5 79.5v1q-82 36 -82 121q0 97 70 155q71 59 170 59q75 0 129 -39t54 -111zM460 533q0 42 -27.5 66t-72.5 24
q-58 0 -96.5 -37.5t-38.5 -95.5q0 -42 27.5 -65.5t72.5 -23.5q58 0 96.5 37.5t38.5 94.5zM430 223q0 49 -32.5 77t-84.5 28q-66 0 -112 -43q-45 -43 -45 -110q0 -48 32.5 -77t83.5 -29q65 0 112 44q46 45 46 110z" />
    <glyph glyph-name="nine" unicode="9" horiz-adv-x="568" 
d="M558 461q0 -76 -20 -156t-58.5 -152.5t-104.5 -118.5t-149 -46q-114 0 -182 71l51 66q51 -58 141 -58q50 0 91 27.5t66 74.5q46 83 64 188q-67 -108 -195 -108q-76 0 -125 49q-48 50 -48 125q0 112 77 195q76 82 191 82q103 0 152 -67q49 -65 49 -172zM464 502
q0 54 -31.5 87t-85.5 33q-71 0 -117 -54q-46 -52 -46 -125q0 -55 31 -87.5t84 -32.5q71 0 118 53q47 55 47 126z" />
    <glyph glyph-name="colon" unicode=":" horiz-adv-x="292" 
d="M257 431q0 -31 -22 -53t-54 -22q-25 0 -40.5 13.5t-15.5 37.5q0 32 22 54t54 22q25 0 40.5 -14t15.5 -38zM199 65q0 -31 -22 -53t-54 -22q-25 0 -40.5 14t-15.5 37q0 32 22 54t54 22q25 0 40.5 -14t15.5 -38z" />
    <glyph glyph-name="semicolon" unicode=";" horiz-adv-x="292" 
d="M257 431q0 -31 -22 -53t-54 -22q-25 0 -40.5 13.5t-15.5 37.5q0 32 22 54t54 22q25 0 40.5 -14t15.5 -38zM15 -140l107 247h96l-128 -247h-75z" />
    <glyph glyph-name="less" unicode="&#x3c;" horiz-adv-x="667" 
d="M145 345l430 -184v-81l-523 224v82l523 224v-81z" />
    <glyph glyph-name="equal" unicode="=" horiz-adv-x="667" 
d="M52 472h523v-73h-523v73zM52 291h523v-74h-523v74z" />
    <glyph glyph-name="greater" unicode="&#x3e;" horiz-adv-x="667" 
d="M52 610l523 -224v-82l-523 -224v81l430 184l-430 184v81z" />
    <glyph glyph-name="question" unicode="?" horiz-adv-x="478" 
d="M486 561q0 -50 -22 -92.5t-55 -67.5q-90 -65 -116 -110q-11 -20 -17 -52q-7 -36 -9 -56h-80q2 6 3 28q6 46 8 56q10 45 33 79q16 21 46 45q46 37 55 44q26 19 44 48.5t18 58.5q0 37 -25.5 56.5t-67.5 19.5q-81 0 -135 -74l-35 61q33 45 84.5 70t111.5 25q67 0 113 -37
t46 -102zM272 65q0 -32 -22 -53.5t-54 -21.5q-24 0 -39.5 13.5t-15.5 37.5q0 32 21.5 54t53.5 22q25 0 40.5 -14t15.5 -38z" />
    <glyph glyph-name="at" unicode="@" horiz-adv-x="776" 
d="M758 329q0 -72 -34 -146q-33 -76 -97 -129q-63 -54 -137 -54q-70 0 -71 61q-70 -61 -133 -61q-45 0 -70.5 32t-25.5 81q0 67 33 138q35 72 96 123q63 51 133 51q72 0 97 -49l14 30h69l-31 -63q-10 -21 -26.5 -56t-22.5 -47q-22 -46 -42 -96q-19 -47 -19 -61q0 -24 28 -24
q48 0 92 47q42 46 65.5 105.5t23.5 109.5q0 98 -67 152t-168 54q-150 0 -255 -117q-104 -116 -104 -268q0 -112 64 -177q64 -67 174 -67q137 0 270 79l16 -42q-137 -92 -299 -92q-130 0 -208 80q-78 79 -78 211q0 85 32.5 166.5t89.5 144.5q58 63 139 100t167 37
q121 0 203 -67t82 -186zM523 320q-23 48 -79 48q-47 0 -93 -41q-43 -40 -68 -94t-25 -103q0 -70 60 -70q78 5 133 103q14 22 29 55l24 57q3 8 19 45z" />
    <glyph glyph-name="A" unicode="A" horiz-adv-x="630" 
d="M360 692h83l161 -692h-106l-39 179h-283l-96 -179h-100zM379 568l-163 -306h229z" />
    <glyph glyph-name="B" unicode="B" horiz-adv-x="569" 
d="M546 551q0 -61 -36 -115q-35 -53 -92 -71q57 -13 90 -48.5t33 -89.5q0 -110 -80 -169q-79 -58 -193 -58h-216l110 690h179q42 0 73.5 -5t64 -18.5t50 -42.5t17.5 -73zM443 224q0 95 -147 95h-98l-38 -239h105q82 0 130 36t48 108zM448 528q0 83 -120 83h-84l-34 -216h77
q75 0 118 33t43 100z" />
    <glyph glyph-name="C" unicode="C" horiz-adv-x="645" 
d="M687 608l-53 -79q-24 39 -76 61q-54 23 -103 23q-127 0 -210 -96q-82 -94 -82 -224q0 -97 56.5 -155.5t151.5 -58.5q122 0 211 84l30 -72q-106 -103 -259 -103q-131 0 -211 78q-79 79 -79 209q-3 111 49 209.5t146.5 158t206.5 57.5q148 0 222 -92z" />
    <glyph glyph-name="D" unicode="D" horiz-adv-x="665" 
d="M664 409q0 -175 -118 -292q-117 -117 -294 -117h-200l110 690h200q134 0 218 -75q84 -74 84 -206zM566 395q0 98 -58.5 154t-158.5 56h-106l-82 -519h106q127 0 213 89q86 91 86 220z" />
    <glyph glyph-name="E" unicode="E" horiz-adv-x="515" 
d="M52 0l110 690h389l-13 -83h-295l-32 -203h279l-14 -83h-278l-38 -237h303l-13 -84h-398z" />
    <glyph glyph-name="F" unicode="F" horiz-adv-x="479" 
d="M52 0l110 690h369l-13 -83h-275l-36 -227h258l-13 -83h-258l-47 -297h-95z" />
    <glyph glyph-name="G" unicode="G" horiz-adv-x="725" 
d="M713 579l-74 -62q-66 99 -189 99q-127 0 -208 -99q-80 -98 -80 -228q0 -97 56.5 -155.5t151.5 -58.5q53 0 109 15t86 47l24 152h-178l13 80h271l-43 -269q-130 -112 -301 -112q-128 0 -208 80q-79 79 -79 209q0 111 50 208q49 97 142 156q94 59 207 59q165 0 250 -121z
" />
    <glyph glyph-name="H" unicode="H" horiz-adv-x="692" 
d="M562 406l45 284h95l-109 -690h-95l51 322h-351l-51 -322h-95l110 690h95l-45 -284h350z" />
    <glyph glyph-name="I" unicode="I" horiz-adv-x="242" 
d="M52 0l110 690h95l-110 -690h-95z" />
    <glyph glyph-name="J" unicode="J" horiz-adv-x="242" 
d="M52 -1l110 691h94l-108 -687q-11 -76 -46 -136q-37 -67 -124 -67q-46 0 -71 12l14 77q18 -9 51 -9q43 0 60 44q13 30 20 75z" />
    <glyph glyph-name="K" unicode="K" horiz-adv-x="561" 
d="M210 398l314 292h117l-297 -272l205 -418h-115l-166 345l-78 -71l-43 -274h-95l110 690h94z" />
    <glyph glyph-name="L" unicode="L" horiz-adv-x="413" 
d="M256 690l-96 -605h234l-13 -85h-329l110 690h94z" />
    <glyph glyph-name="M" unicode="M" horiz-adv-x="828" 
d="M416 159l274 531h117l-50 -690h-94l43 543h-1l-289 -549h-54l-116 549h-1l-129 -543h-94l170 690h116l107 -531h1z" />
    <glyph glyph-name="N" unicode="N" horiz-adv-x="717" 
d="M634 690h93l-109 -690h-93l-294 546l-85 -546h-94l110 690h99l288 -539q32 212 85 539z" />
    <glyph glyph-name="O" unicode="O" horiz-adv-x="762" 
d="M760 412q0 -175 -115 -299q-116 -125 -289 -125q-130 0 -212 79q-81 79 -81 209q0 175 115 299q116 125 290 125q132 0 211 -79q81 -79 81 -209zM662 400q0 96 -57 155q-55 60 -150 60q-126 0 -210 -97q-83 -98 -83 -225q0 -95 56 -156q57 -59 152 -59q126 0 209 96
q83 98 83 226z" />
    <glyph glyph-name="P" unicode="P" horiz-adv-x="515" 
d="M546 531q0 -111 -73 -174q-74 -62 -187 -62h-92l-47 -295h-95l110 690h186q86 0 142 -39q56 -38 56 -120zM447 515q0 94 -119 94h-85l-36 -233h84q70 0 113 37t43 102z" />
    <glyph glyph-name="Q" unicode="Q" horiz-adv-x="762" 
d="M760 412q0 -94 -36 -178.5t-102 -143.5l60 -88l-71 -52l-60 89q-89 -51 -195 -51q-130 0 -212 79q-81 79 -81 209q0 175 115 299q116 125 290 125q132 0 211 -79q81 -79 81 -209zM662 400q0 96 -57 155q-55 60 -150 60q-126 0 -210 -97q-83 -98 -83 -225q0 -95 56 -156
q57 -59 152 -59q73 0 131 34l-46 67l71 52l45 -66q91 95 91 235z" />
    <glyph glyph-name="R" unicode="R" horiz-adv-x="524" 
d="M546 531q0 -88 -48.5 -148t-133.5 -76l140 -307h-115l-126 297h-69l-47 -297h-95l110 690h188q89 0 142.5 -40.5t53.5 -118.5zM448 518q0 91 -130 91h-75l-36 -231h74q78 0 122.5 35t44.5 105z" />
    <glyph glyph-name="S" unicode="S" horiz-adv-x="518" 
d="M542 611l-56 -64q-59 71 -138 71q-56 0 -93 -31t-37 -83q0 -60 96 -102q31 -12 50 -20.5t46.5 -25t43 -33.5t27 -43.5t11.5 -57.5q0 -102 -79 -168t-185 -66q-122 0 -200 118l62 63q24 -43 67 -70t90 -27q59 0 102 36q45 36 45 94q0 16 -6.5 30t-13 22.5t-24.5 20
t-26.5 15.5l-34 16t-32.5 15q-65 28 -100.5 62t-36.5 96q0 99 72 160q71 61 175 61q105 0 175 -89z" />
    <glyph glyph-name="T" unicode="T" horiz-adv-x="486" 
d="M82 607l14 83h468l-13 -83h-187l-96 -607h-95l96 607h-187z" />
    <glyph glyph-name="U" unicode="U" horiz-adv-x="647" 
d="M504 291l63 399h96l-65 -408q-46 -294 -299 -294q-101 0 -158.5 51.5t-57.5 146.5q0 38 9 96l65 408h95l-63 -399q-9 -50 -9 -85q0 -61 35.5 -95.5t97.5 -34.5q96 0 139 66q39 60 52 149z" />
    <glyph glyph-name="V" unicode="V" horiz-adv-x="578" 
d="M290 144l272 546h100l-354 -691h-84l-135 691h102z" />
    <glyph glyph-name="W" unicode="W" horiz-adv-x="921" 
d="M664 150l233 540h100l-306 -691h-93l-75 554l-250 -554h-93l-87 691h100l62 -540l242 540h96z" />
    <glyph glyph-name="X" unicode="X" horiz-adv-x="562" 
d="M325 422l196 268h112l-257 -334l163 -356h-114l-121 291l-213 -291h-114l276 356l-151 334h112z" />
    <glyph glyph-name="Y" unicode="Y" horiz-adv-x="558" 
d="M315 375l222 315h107l-295 -401l-45 -289h-96l46 289l-168 401h108z" />
    <glyph glyph-name="Z" unicode="Z" horiz-adv-x="549" 
d="M114 606l13 84h476l-11 -67l-452 -538h374l-13 -85h-493l12 75l445 531h-351z" />
    <glyph glyph-name="bracketleft" unicode="[" horiz-adv-x="275" 
d="M7 -140l143 901h183l-9 -58h-102l-124 -785h102l-10 -58h-183z" />
    <glyph glyph-name="backslash" unicode="\" horiz-adv-x="501" 
d="M121 766l64 29l270 -800l-64 -29z" />
    <glyph glyph-name="bracketright" unicode="]" horiz-adv-x="275" 
d="M138 703l10 58h183l-143 -901h-183l9 58h102l124 785h-102z" />
    <glyph glyph-name="asciicircum" unicode="^" horiz-adv-x="667" 
d="M272 699h83l182 -399h-81l-142 317l-143 -317h-81z" />
    <glyph glyph-name="underscore" unicode="_" horiz-adv-x="500" 
d="M500 37v-75h-500v75h500z" />
    <glyph glyph-name="grave" unicode="`" 
d="M161 690h92l63 -145h-71z" />
    <glyph glyph-name="a" unicode="a" horiz-adv-x="579" 
d="M561 476l-64 -406q-2 -22 -2 -37l3 -33h-91q-3 10 -3 32q0 23 5 45q-70 -88 -176 -88q-87 0 -137.5 54.5t-50.5 144.5q0 120 73 208q74 89 191 89q105 0 147 -83l12 74h93zM437 275q0 59 -32 94.5t-89 35.5q-77 0 -126 -61q-48 -62 -48 -141q0 -59 32.5 -95t88.5 -36
q78 0 126 61t48 142z" />
    <glyph glyph-name="b" unicode="b" horiz-adv-x="579" 
d="M58 71l86 541q6 38 20 70l5 8h92q-15 -26 -23 -73l-34 -215h1q69 83 172 83q86 0 136 -54t50 -143q0 -118 -74 -209q-73 -90 -192 -90q-106 0 -147 86h-1q-7 -38 -20 -67l-4 -8h-90q15 26 23 71zM466 275q0 59 -32 94.5t-89 35.5q-77 0 -125 -61q-48 -62 -48 -141
q0 -59 32 -95t89 -36q77 0 125 61t48 142z" />
    <glyph glyph-name="c" unicode="c" horiz-adv-x="461" 
d="M487 416l-44 -71q-41 60 -125 60q-76 0 -126 -62t-50 -138q0 -60 33.5 -96.5t92.5 -36.5q39 0 80.5 15.5t68.5 39.5l17 -73q-33 -30 -85.5 -47.5t-106.5 -17.5q-88 0 -143 57q-54 58 -54 146q0 116 80 204q79 88 199 88q50 0 95 -18t68 -50z" />
    <glyph glyph-name="d" unicode="d" horiz-adv-x="579" 
d="M408 75h-1q-67 -86 -174 -86q-87 0 -137.5 54.5t-50.5 144.5q0 120 73 208q74 89 191 89q105 0 147 -83l34 217q3 22 3 38l-3 33h94q3 -11 3 -32q0 -25 -4 -46l-86 -542q-2 -18 -2 -37l3 -33h-91q-3 10 -3 32q0 28 4 43zM437 275q0 59 -32 94.5t-89 35.5q-77 0 -126 -61
q-48 -62 -48 -141q0 -59 32.5 -95t88.5 -36q78 0 126 61t48 142z" />
    <glyph glyph-name="e" unicode="e" horiz-adv-x="523" 
d="M509 357q0 -13 -5.5 -29.5t-22.5 -39t-43.5 -41t-74.5 -31.5t-110 -13q-50 0 -113 9q-1 -5 -1 -18q0 -59 33.5 -93.5t92.5 -34.5q74 0 162 55l30 -57q-87 -75 -215 -75q-91 0 -144 53.5t-53 144.5q0 121 87 210q88 88 215 88q72 0 117 -35.5t45 -92.5zM420 357
q0 25 -23.5 42t-61.5 17q-65 0 -115 -37.5t-68 -98.5q36 -6 79 -6q76 0 133 20q56 21 56 63z" />
    <glyph glyph-name="f" unicode="f" horiz-adv-x="265" 
d="M41 -113l81 509h-65l13 79h65q12 77 30 124q36 97 147 102q53 0 78 -11l-17 -73q-24 9 -51 9q-32 -4 -48 -15.5t-26 -38.5l-10 -31l-6 -35q-3 -29 -4 -31h109l-12 -79h-109l-81 -504q-6 -38 -20 -70l-4 -8h-93q15 26 23 73z" />
    <glyph glyph-name="g" unicode="g" horiz-adv-x="575" 
d="M550 403l-48 -303q-23 -141 -92 -218q-70 -78 -208 -78q-113 0 -194 72l53 66q26 -27 69.5 -43.5t84.5 -16.5q97 0 140 61q39 54 52 147h-1q-64 -84 -173 -84q-83 0 -136 53q-51 53 -51 138q0 115 74 201t189 86q50 0 89.5 -21.5t57.5 -62.5h1q8 46 21 68l4 8h91
q-15 -26 -23 -73zM438 279q0 57 -32.5 91.5t-89.5 34.5q-77 0 -125 -58q-47 -58 -47 -136q0 -58 32 -92t89 -34q77 0 125 58t48 136z" />
    <glyph glyph-name="h" unicode="h" horiz-adv-x="532" 
d="M238 612l-34 -211q27 39 68 61.5t86 22.5q138 0 138 -136q0 -33 -6 -66l-34 -213q-2 -18 -2 -37l3 -33h-94q-3 10 -3 32q0 25 4 45l30 192q5 32 5 52q0 82 -77 82q-64 0 -98 -49q-36 -52 -46 -119l-37 -235h-94l98 619q3 23 3 38l-3 33h94q3 -11 3 -32q0 -25 -4 -46z" />
    <glyph glyph-name="i" unicode="i" horiz-adv-x="228" 
d="M254 640q0 -29 -21 -49.5t-50 -20.5q-22 0 -37 13.5t-15 36.5q0 28 21 49t50 21q23 0 37.5 -13.5t14.5 -36.5zM203 398l-52 -328q-2 -18 -2 -37l3 -33h-95q-3 10 -3 32q0 25 4 45l53 328q3 23 3 38l-3 33h93q3 -10 3 -32q0 -25 -4 -46z" />
    <glyph glyph-name="j" unicode="j" horiz-adv-x="228" 
d="M204 404l-64 -405q-13 -81 -49 -133q-39 -62 -126 -62q-39 0 -58 8l13 78q52 -17 82 4q16 10 25 31q14 32 20 77l63 397q7 40 20 69l5 9h92q-15 -26 -23 -73zM254 640q0 -29 -21 -49.5t-50 -20.5q-22 0 -37 14t-15 35q0 29 21 50t50 21q23 0 37.5 -13.5t14.5 -36.5z" />
    <glyph glyph-name="k" unicode="k" horiz-adv-x="473" 
d="M237 612l-51 -324l215 188h110l-208 -180l155 -296h-110l-120 229l-59 -51l-28 -178h-94l98 619q3 23 3 38l-3 33h93q3 -11 3 -32q0 -25 -4 -46z" />
    <glyph glyph-name="l" unicode="l" horiz-adv-x="230" 
d="M238 612l-86 -542q-2 -18 -2 -37l3 -33h-95q-3 10 -3 32q0 25 4 45l86 542q3 23 3 38l-3 33h94q3 -11 3 -32q0 -25 -4 -46z" />
    <glyph glyph-name="m" unicode="m" horiz-adv-x="791" 
d="M751 288l-35 -218q-3 -20 -3 -37l3 -33h-94q-3 10 -3 32q0 25 4 45l32 200q5 28 5 46q0 80 -67 80q-55 0 -89 -48q-33 -45 -44 -108l-39 -247h-94l44 277q4 27 4 47q0 79 -66 79q-55 0 -90 -48q-33 -45 -44 -108l-39 -247h-93l64 405q3 23 3 38l-3 33h92q7 -26 -1 -76h2
q24 37 64 60.5t81 23.5q104 0 121 -92q63 92 160 92q130 0 130 -137q0 -24 -5 -59z" />
    <glyph glyph-name="n" unicode="n" horiz-adv-x="524" 
d="M485 281l-33 -211q-2 -18 -2 -37l3 -33h-95q-3 10 -3 32q0 25 4 45l30 188q5 35 5 56q0 82 -78 82q-113 0 -142 -164l-38 -239h-93l64 405q3 23 3 38l-3 33h93q7 -26 -1 -76h1q27 39 68 61.5t86 22.5q137 0 137 -138q0 -32 -6 -65z" />
    <glyph glyph-name="o" unicode="o" horiz-adv-x="554" 
d="M538 281q0 -121 -82 -206q-81 -86 -203 -86q-92 0 -150 55t-58 147q0 122 82 207q83 86 204 86q91 0 149 -56q58 -55 58 -147zM442 273q0 59 -33.5 95.5t-90.5 36.5q-77 0 -126 -61q-50 -62 -50 -139q0 -60 33.5 -96.5t90.5 -36.5q77 0 126 61q50 62 50 140z" />
    <glyph glyph-name="p" unicode="p" horiz-adv-x="578" 
d="M152 73l-31 -189q-2 -18 -2 -37l3 -33h-93q-3 10 -3 32q0 25 4 45l81 514q3 23 3 38l-3 33h90q7 -26 -1 -76h1q71 84 175 84q86 0 136.5 -54t50.5 -142q0 -119 -74 -210q-74 -89 -193 -89q-106 0 -144 84zM466 275q0 59 -32.5 94.5t-88.5 35.5q-78 0 -126 -62
q-48 -61 -48 -141q0 -59 32 -94.5t89 -35.5q77 0 125 61q49 61 49 142z" />
    <glyph glyph-name="q" unicode="q" horiz-adv-x="574" 
d="M552 421l-84 -537q-2 -18 -2 -37l3 -33h-94q-3 11 -3 32q0 25 4 45l29 183h-1q-67 -85 -171 -85q-87 0 -137.5 54.5t-50.5 143.5q0 120 73 208q74 89 191 89q103 0 150 -84h1q6 35 20 68l5 8h87q-16 -22 -20 -55zM437 275q0 59 -32.5 94.5t-88.5 35.5q-78 0 -126 -62
q-48 -61 -48 -141q0 -59 32.5 -94.5t88.5 -35.5q78 0 126 61t48 142z" />
    <glyph glyph-name="r" unicode="r" 
d="M374 476l-20 -90h-5q-17 9 -48 9q-55 0 -86 -48q-30 -44 -41 -109l-38 -238h-93l64 406q2 18 2 37l-3 33h94q7 -27 -1 -74h1q46 82 127 82q31 0 47 -8z" />
    <glyph glyph-name="s" unicode="s" horiz-adv-x="402" 
d="M404 418l-50 -54q-42 49 -103 49q-36 0 -60 -17t-24 -49q0 -20 21.5 -34.5t52 -25.5t61 -24.5t52 -39.5t21.5 -63q0 -77 -59 -124t-140 -47q-53 0 -97.5 22.5t-68.5 63.5l53 55q18 -29 53 -47.5t72 -18.5q42 0 70 20t28 56q0 23 -21 38.5t-51.5 26.5t-61 23.5t-51.5 37
t-21 59.5q0 71 52 114q52 45 125 45q93 0 147 -66z" />
    <glyph glyph-name="t" unicode="t" horiz-adv-x="302" 
d="M240 538l-10 -63h109l-12 -79h-110q-3 -21 -15 -81q-25 -132 -25 -189q0 -29 9 -41t33 -12q30 0 55 11l-7 -79q-41 -16 -87 -16q-100 0 -100 103q0 47 7 95q9 64 19 117q6 27 17 92h-67l13 79h67l11 70q3 23 3 38l-3 33h94q3 -10 3 -32q0 -25 -4 -46z" />
    <glyph glyph-name="u" unicode="u" horiz-adv-x="520" 
d="M195 397l-32 -202q-4 -27 -4 -45q0 -79 78 -79q55 0 90.5 42t45.5 108l41 254h93l-64 -405q-2 -18 -2 -37l3 -33h-92q-3 10 -3 32q0 15 2 33q-57 -76 -153 -76q-135 0 -135 135q0 34 6 67l34 213q3 22 3 38l-3 33h93q3 -11 3 -32q0 -25 -4 -46z" />
    <glyph glyph-name="v" unicode="v" horiz-adv-x="468" 
d="M231 121l191 355h97l-267 -476h-81l-116 476h98z" />
    <glyph glyph-name="w" unicode="w" horiz-adv-x="738" 
d="M521 120l161 356h96l-227 -476h-86l-64 352l-176 -352h-85l-76 476h95l49 -356l176 356h74z" />
    <glyph glyph-name="x" unicode="x" horiz-adv-x="481" 
d="M267 306l142 170h105l-201 -226l147 -250h-107l-104 192l-165 -192h-107l226 250l-130 226h105z" />
    <glyph glyph-name="y" unicode="y" horiz-adv-x="464" 
d="M229 109l193 366h97l-309 -558q-30 -55 -62.5 -82.5t-76.5 -27.5q-49 0 -84 18l31 79q24 -12 46 -12q32 0 54 31q12 17 17 27q9 16 29 61l-109 464h98z" />
    <glyph glyph-name="z" unicode="z" horiz-adv-x="442" 
d="M75 396l13 78h372l-9 -59l-318 -334h278l-12 -81h-400l10 60l319 336h-253z" />
    <glyph glyph-name="braceleft" unicode="{" horiz-adv-x="275" 
d="M294 761h44l-9 -58q-46 0 -65 -9q-24 -10 -31 -57l-31 -199q-10 -57 -28.5 -85.5t-61.5 -40.5l-1 -3q30 -10 42 -28t12 -51q0 -47 -19 -135t-19 -135q0 -18 6 -25.5t19 -13.5q5 -3 25 -3h27l-9 -58h-43q-54 0 -79.5 21.5t-25.5 71.5q0 44 18 133q19 86 19 132
q0 28 -12.5 42t-38.5 13l12 74q77 0 86 146q3 39 13 122q10 65 47.5 105.5t102.5 40.5z" />
    <glyph glyph-name="bar" unicode="|" horiz-adv-x="284" 
d="M87 800h70v-919h-70v919z" />
    <glyph glyph-name="braceright" unicode="}" horiz-adv-x="275" 
d="M298 347l-12 -74q-13 0 -24 -3t-19 -11.5t-14 -15.5t-10.5 -22.5t-7.5 -25t-6 -30t-4 -31t-3.5 -34.5t-3.5 -34q-8 -52 -18 -99q-12 -48 -48 -77.5t-92 -29.5h-43l9 58q46 0 65 8q24 10 31 57l31 199q10 58 28.5 86.5t61.5 40.5v3q-30 10 -42 28t-12 51q0 47 19 135
t19 135q0 31 -21 37q-11 4 -21 4q-5 1 -11 1h-24l10 58h43q54 0 79 -21.5t25 -71.5q0 -44 -18 -133t-18 -132q0 -56 51 -56z" />
    <glyph glyph-name="asciitilde" unicode="~" horiz-adv-x="667" 
d="M519 369l51 -49q-62 -101 -149 -101q-46 0 -119 37q-69 34 -98 34q-53 0 -96 -70l-51 49q62 101 149 101q48 0 119 -37q65 -34 98 -34q54 0 96 70z" />
    <glyph glyph-name="nbspace" unicode="&#xa0;" horiz-adv-x="193" 
 />
    <glyph glyph-name="exclamdown" unicode="&#xa1;" horiz-adv-x="292" 
d="M257 434q0 -32 -22 -53.5t-54 -21.5q-24 0 -39.5 13.5t-15.5 37.5q0 32 22 54t54 22q24 0 39.5 -14t15.5 -38zM42 -215l88 507h81l-71 -507h-98z" />
    <glyph glyph-name="cent" unicode="&#xa2;" horiz-adv-x="568" 
d="M545 493l-42 -70q-30 42 -105 51l-53 -334q31 1 69 16t59 36l17 -70q-22 -24 -72 -44q-45 -17 -86 -19l-14 -89h-59l14 90q-81 9 -129 63.5t-48 136.5q0 112 72 196q72 85 183 95l14 89h59l-14 -88q37 -3 77 -19q42 -16 58 -40zM287 144l52 327q-67 -14 -108 -71
q-42 -58 -42 -126q0 -51 25.5 -85.5t72.5 -44.5z" />
    <glyph glyph-name="sterling" unicode="&#xa3;" horiz-adv-x="568" 
d="M573 617l-52 -57q-35 66 -107 66q-59 0 -91 -40t-32 -105q0 -14 2 -40q4 -24 10 -53l8 -38h144l-10 -66h-133q0 -122 -60 -205h258l-13 -79h-458l13 79h112q59 80 59 205h-110l10 66h99q-19 99 -19 133q0 93 60 155q62 62 157 62q112 0 153 -83z" />
    <glyph glyph-name="currency" unicode="&#xa4;" horiz-adv-x="568" 
d="M595 632l-44 -77q-43 66 -126 66q-67 0 -111 -50q-46 -52 -67 -122h240l-11 -66h-248q-9 -57 -10 -68h247l-10 -66h-240v-13q-1 -67 29 -116q32 -47 96 -47q79 0 153 73l29 -65q-75 -93 -201 -93q-71 0 -120 38q-86 71 -84 223h-65l11 67h57q1 14 10 67h-57l11 66h65
q33 105 107 178t179 73q98 0 160 -68z" />
    <glyph glyph-name="yen" unicode="&#xa5;" horiz-adv-x="568" 
d="M322 380l209 310h106l-211 -293h116l-11 -66h-152l-25 -39l-5 -33h171l-11 -66h-170l-31 -193h-93l30 193h-171l11 66h171l5 32l-13 40h-152l11 66h115l-118 293h106z" />
    <glyph glyph-name="brokenbar" unicode="&#xa6;" horiz-adv-x="284" 
d="M87 800h70v-313h-70v313zM87 312h70v-312h-70v312z" />
    <glyph glyph-name="section" unicode="&#xa7;" horiz-adv-x="593" 
d="M568 593l-58 -45q-30 83 -119 83q-46 0 -76.5 -27t-30.5 -70q0 -53 82 -91q36 -17 53.5 -26.5t45 -30t40 -46.5t12.5 -60q0 -57 -31.5 -101t-86.5 -68q60 -37 60 -114q0 -86 -65 -139q-64 -54 -155 -54q-147 0 -180 122l67 42q10 -43 44.5 -67.5t82.5 -24.5
q50 0 83.5 28.5t33.5 75.5q0 33 -25.5 57t-61.5 40.5t-72 35.5t-61.5 51.5t-25.5 76.5q0 59 34 105q35 48 88 68q-50 38 -50 104q0 81 59 131q59 51 144 51q134 0 169 -107zM434 260q0 42 -37 65l-32 21q-7 5 -40 19l-33 15q-38 -13 -61.5 -45t-23.5 -72q0 -38 36 -65
q19 -14 33 -21q11 -6 40 -19q22 -9 33 -14q39 14 62 45.5t23 70.5z" />
    <glyph glyph-name="dieresis" unicode="&#xa8;" 
d="M365 627q0 -25 -18 -44t-43 -19q-20 0 -32 12t-12 32q0 25 18 44t43 19q19 0 31.5 -12.5t12.5 -31.5zM217 627q0 -25 -18 -44t-43 -19q-19 0 -31 12.5t-12 31.5q0 25 18 44t42 19q19 0 31.5 -12.5t12.5 -31.5z" />
    <glyph glyph-name="copyright" unicode="&#xa9;" horiz-adv-x="787" 
d="M374 -11q-150 0 -253 103t-103 253t103 253t253 103q149 0 252 -103q104 -104 104 -253t-104 -253q-103 -103 -252 -103zM592 126q91 91 91 219t-91 218q-90 91 -218 91t-219 -91q-90 -90 -90 -218q0 -127 90 -219q91 -90 219 -90t218 90zM513 240l31 -44
q-22 -27 -63 -45t-92 -18q-88 0 -149 59q-60 60 -60 153t60 152q60 60 149 60q100 0 151 -58l-32 -48q-16 21 -48 35.5t-69 14.5q-63 0 -103.5 -41.5t-40.5 -112.5q0 -72 40 -113.5t104 -41.5q73 0 122 48z" />
    <glyph glyph-name="ordfeminine" unicode="&#xaa;" horiz-adv-x="341" 
d="M327 389q0 -25 -5 -63q-5 -39 -13 -76l-11 -62h-68l4 34q-40 -39 -95 -39q-38 0 -63 20t-25 55q0 34 20 63q11 15 53 31q13 6 34 7q24 3 33 3q3 0 7.5 0.5t13 1t14.5 0.5q17 1 30 1q2 14 2 18q0 48 -60 48q-51 0 -89 -26l-16 46q55 33 119 33q115 0 115 -95zM240 265
l9 57h-22q-31 0 -54 -4q-48 -9 -48 -49q0 -36 47 -36q39 0 68 32z" />
    <glyph glyph-name="guillemotleft" unicode="&#xab;" horiz-adv-x="474" 
d="M228 238l176 198l45 -39l-139 -159l89 -160l-58 -39zM69 238l175 198l45 -39l-139 -159l89 -160l-58 -39z" />
    <glyph glyph-name="logicalnot" unicode="&#xac;" horiz-adv-x="669" 
d="M52 466h523v-299h-74v225h-449v74z" />
    <glyph glyph-name="uni00AD" unicode="&#xad;" horiz-adv-x="283" 
d="M40 234l13 80h235l-13 -80h-235z" />
    <glyph glyph-name="registered" unicode="&#xae;" horiz-adv-x="787" 
d="M374 -11q-150 0 -253 103t-103 253t103 253t253 103q149 0 252 -103q104 -104 104 -253t-104 -253q-103 -103 -252 -103zM592 126q91 91 91 219t-91 218q-90 91 -218 91t-219 -91q-90 -90 -90 -218q0 -127 90 -219q91 -90 219 -90t218 90zM424 317l111 -178h-77l-99 171
h-51v-171h-64v412l142 -1q55 0 92 -32.5t37 -86.5q0 -48 -25.5 -76.5t-65.5 -37.5zM363 497h-55v-134h55q86 0 86 67t-86 67z" />
    <glyph glyph-name="overscore" unicode="&#xaf;" 
d="M118 572l9 55h250l-8 -55h-251z" />
    <glyph glyph-name="degree" unicode="&#xb0;" horiz-adv-x="412" 
d="M340 584q0 -66 -45 -109q-44 -43 -109 -43t-109 43q-45 43 -45 109q0 64 45 107q46 44 109 44t109 -44q45 -43 45 -107zM255 515q29 29 29 69t-29 68q-28 29 -69 29t-69 -29q-28 -28 -28 -68t28 -69t69 -29t69 29z" />
    <glyph glyph-name="plusminus" unicode="&#xb1;" horiz-adv-x="667" 
d="M351 469h224v-73h-224v-195h-75v195h-224v73h224v195h75v-195zM52 159h523v-73h-523v73z" />
    <glyph glyph-name="twosuperior" unicode="&#xb2;" horiz-adv-x="367" 
d="M399 626q0 -39 -25 -82q-8 -14 -30 -36l-29 -29q-4 -3 -34 -29l-113 -99h197l-9 -62h-287l4 53l176 154l37 34q15 14 28.5 37.5t13.5 44.5q0 26 -19 40t-50 14q-70 0 -106 -76l-41 30q14 50 61 79t101 29t89.5 -27.5t35.5 -74.5z" />
    <glyph glyph-name="threesuperior" unicode="&#xb3;" horiz-adv-x="367" 
d="M401 631q0 -37 -22.5 -67.5t-60.5 -45.5q29 -9 45.5 -32.5t16.5 -53.5q0 -65 -52 -107q-53 -41 -118 -41q-53 0 -87.5 24t-43.5 71l52 32q6 -31 29 -48.5t55 -17.5q38 0 66.5 23t28.5 59q0 34 -25 47t-72 13l9 58q109 0 109 75q0 23 -17 36t-43 13q-61 0 -99 -59l-35 36
q49 82 146 82q49 0 83.5 -26.5t34.5 -70.5z" />
    <glyph glyph-name="acute" unicode="&#xb4;" 
d="M138 545l109 145h93l-130 -145h-72z" />
    <glyph glyph-name="mu" unicode="&#xb5;" horiz-adv-x="525" 
d="M376 210l42 264h94l-75 -475h-92l10 62q-25 -30 -64 -49.5t-74 -19.5q-63 0 -79 36l-33 -214h-92l104 660h94l-43 -268q-4 -28 -4 -49q0 -85 79 -85q56 0 90 37.5t43 100.5z" />
    <glyph glyph-name="paragraph" unicode="&#xb6;" horiz-adv-x="583" 
d="M354 690h258l-11 -71h-49l-128 -805h-71l127 805h-85l-128 -805h-71l73 462q-78 2 -123 44.5t-45 118.5q0 116 67 183q68 68 186 68z" />
    <glyph glyph-name="middot" unicode="&#xb7;" horiz-adv-x="328" 
d="M253 300q0 -31 -21.5 -52.5t-53.5 -21.5q-24 0 -39.5 14t-15.5 37q0 31 22 52.5t53 21.5q24 0 39.5 -14t15.5 -37z" />
    <glyph glyph-name="cedilla" unicode="&#xb8;" horiz-adv-x="339" 
d="M42 -146l122 146h67l-103 -146h-86z" />
    <glyph glyph-name="onesuperior" unicode="&#xb9;" horiz-adv-x="367" 
d="M185 662l9 56h151l-68 -430h-71l60 374h-81z" />
    <glyph glyph-name="ordmasculine" unicode="&#xba;" horiz-adv-x="382" 
d="M375 360q0 -72 -51 -125q-51 -52 -126 -52q-57 0 -93 34t-36 90q0 73 50 125q51 52 127 52q57 0 93 -34t36 -90zM304 355q0 31 -18 50.5t-50 19.5q-41 0 -68.5 -32.5t-27.5 -76.5q0 -33 18 -52.5t50 -19.5q42 0 69 33q27 35 27 78z" />
    <glyph glyph-name="guillemotright" unicode="&#xbb;" horiz-adv-x="474" 
d="M265 398l59 38l112 -198l-175 -199l-46 40l139 159zM105 398l59 38l112 -198l-175 -199l-46 40l139 159z" />
    <glyph glyph-name="onequarter" unicode="&#xbc;" horiz-adv-x="863" 
d="M775 438l-46 -290h60l-10 -61h-60l-14 -87h-71l14 87h-216l7 46l269 305h67zM126 7l521 700l45 -31l-522 -699zM144 634l9 56h152l-64 -401h-71l55 345h-81zM519 148h139l32 196z" />
    <glyph glyph-name="onehalf" unicode="&#xbd;" horiz-adv-x="864" 
d="M812 326q0 -64 -58 -125q-27 -28 -52 -50q-30 -26 -60 -50q-32 -25 -48 -38h194l-10 -63h-283l-3 47l161 135q34 30 40 36q47 47 47 90q0 27 -18 42.5t-46 15.5q-56 0 -108 -69l-32 44q26 41 67.5 64t90.5 23q50 0 84 -27.5t34 -74.5zM122 7l522 700l44 -31l-521 -699z
M142 634l9 56h151l-66 -416h-70l56 360h-80z" />
    <glyph glyph-name="threequarters" unicode="&#xbe;" horiz-adv-x="863" 
d="M775 438l-46 -290h60l-10 -61h-60l-14 -87h-71l14 87h-216l7 46l269 305h67zM168 7l522 700l45 -31l-522 -699zM401 631q0 -37 -22.5 -67.5t-60.5 -45.5q62 -21 62 -87q0 -65 -52 -107q-53 -41 -119 -41q-53 0 -87.5 24.5t-43.5 71.5l53 31q6 -31 29 -48.5t55 -17.5
q38 0 66.5 23.5t28.5 58.5q0 42 -34 52q-24 9 -63 9l9 57q109 1 109 76q0 23 -17.5 36t-43.5 13q-60 0 -98 -59l-35 35q50 83 146 83q49 0 83.5 -26.5t34.5 -70.5zM519 148h139l32 196z" />
    <glyph glyph-name="questiondown" unicode="&#xbf;" horiz-adv-x="478" 
d="M367 433q0 -32 -22 -53.5t-54 -21.5q-24 0 -39.5 14t-15.5 37q0 32 21.5 54t53.5 22q25 0 40.5 -14t15.5 -38zM342 -69l35 -62q-33 -45 -86 -69.5t-111 -24.5q-67 0 -113 37q-45 38 -45 102q0 50 22.5 92.5t54.5 66.5q29 22 65 53q35 32 51 58q11 20 17 52q6 31 9 56h80
l-4 -33l-5 -37q-10 -63 -36 -93q-15 -21 -61 -58q-50 -37 -76 -69.5t-26 -69.5t26 -56t68 -19q81 0 135 74z" />
    <glyph glyph-name="Agrave" unicode="&#xc0;" horiz-adv-x="630" 
d="M293 888h92l63 -147h-72zM360 692h83l161 -692h-106l-39 180h-283l-96 -180h-100zM379 568l-163 -306h229z" />
    <glyph glyph-name="Aacute" unicode="&#xc1;" horiz-adv-x="630" 
d="M370 741l110 147h93l-131 -147h-72zM360 692h83l161 -692h-106l-39 180h-283l-96 -180h-100zM379 568l-163 -306h229z" />
    <glyph glyph-name="Acircumflex" unicode="&#xc2;" horiz-adv-x="630" 
d="M394 888h77l65 -147h-69l-42 97l-73 -97h-70zM360 692h83l161 -692h-106l-39 180h-283l-96 -180h-100zM379 568l-163 -306h229z" />
    <glyph glyph-name="Atilde" unicode="&#xc3;" horiz-adv-x="630" 
d="M533 863l45 -10q-9 -38 -38.5 -66t-65.5 -28q-32 0 -67 23q-34 24 -50 24q-34 0 -48 -43l-46 10q9 39 39 66.5t66 27.5q31 0 66 -23t51 -23q33 0 48 42zM360 692h83l161 -692h-106l-39 180h-283l-96 -180h-100zM379 568l-163 -306h229z" />
    <glyph glyph-name="Adieresis" unicode="&#xc4;" horiz-adv-x="630" 
d="M546 820q0 -25 -18.5 -45t-42.5 -20q-19 0 -31.5 12.5t-12.5 31.5q0 26 18 45.5t43 19.5q20 0 32 -12t12 -32zM399 820q0 -27 -17.5 -46t-43.5 -19q-19 0 -31 12.5t-12 31.5q0 27 17.5 46t43.5 19q19 0 31 -12t12 -32zM360 692h83l161 -692h-106l-39 180h-283l-96 -180
h-100zM379 568l-163 -306h229z" />
    <glyph glyph-name="Aring" unicode="&#xc5;" horiz-adv-x="630" 
d="M520 838q0 -46 -34 -80q-33 -33 -79 -33q-36 0 -59.5 22t-23.5 58q0 46 33 79q35 33 80 33q36 0 59.5 -22t23.5 -57zM360 692h83l161 -692h-106l-39 180h-283l-96 -180h-100zM472 830q0 19 -11.5 30.5t-30.5 11.5q-24 0 -41 -18t-17 -42q0 -19 11.5 -30.5t30.5 -11.5
q24 0 41 18t17 42zM379 568l-163 -306h229z" />
    <glyph glyph-name="AE" unicode="&#xc6;" horiz-adv-x="824" 
d="M-50 0l498 690h409l-13 -83h-268l-32 -199h252l-14 -83h-251l-38 -241h275l-13 -84h-370l28 181h-229l-128 -181h-106zM238 264h188l55 345h-1z" />
    <glyph glyph-name="Ccedilla" unicode="&#xc7;" horiz-adv-x="645" 
d="M687 608l-53 -79q-24 39 -76 61q-54 23 -103 23q-127 0 -210 -96q-82 -94 -82 -224q0 -97 56.5 -155.5t151.5 -58.5q122 0 211 84l30 -72q-99 -96 -239 -102l-84 -139h-96l102 142q-106 16 -169 93t-63 190q-3 111 49 209.5t146.5 158t206.5 57.5q148 0 222 -92z" />
    <glyph glyph-name="Egrave" unicode="&#xc8;" horiz-adv-x="515" 
d="M263 888h93l63 -147h-72zM52 0l110 690h389l-13 -82h-295l-32 -204h279l-14 -83h-278l-38 -237h303l-13 -84h-398z" />
    <glyph glyph-name="Eacute" unicode="&#xc9;" horiz-adv-x="515" 
d="M298 741l110 147h92l-130 -147h-72zM52 0l110 690h389l-13 -82h-295l-32 -204h279l-14 -83h-278l-38 -237h303l-13 -84h-398z" />
    <glyph glyph-name="Ecircumflex" unicode="&#xca;" horiz-adv-x="515" 
d="M349 888h77l65 -147h-69l-42 97l-73 -97h-70zM52 0l110 690h389l-13 -82h-295l-32 -204h279l-14 -83h-278l-38 -237h303l-13 -84h-398z" />
    <glyph glyph-name="Edieresis" unicode="&#xcb;" horiz-adv-x="515" 
d="M501 820q0 -27 -17.5 -46t-43.5 -19q-19 0 -31 12.5t-12 31.5q0 27 17.5 46t43.5 19q19 0 31 -12t12 -32zM354 820q0 -27 -17.5 -46t-43.5 -19q-19 0 -31 12.5t-12 31.5q0 27 17.5 46t43.5 19q19 0 31 -12t12 -32zM52 0l110 690h389l-13 -83h-295l-32 -203h279l-14 -83
h-278l-38 -237h303l-13 -84h-398z" />
    <glyph glyph-name="Igrave" unicode="&#xcc;" horiz-adv-x="242" 
d="M109 888h93l63 -147h-72zM52 0l110 690h95l-110 -690h-95z" />
    <glyph glyph-name="Iacute" unicode="&#xcd;" horiz-adv-x="242" 
d="M169 741l110 147h93l-131 -147h-72zM52 0l110 690h95l-110 -690h-95z" />
    <glyph glyph-name="Icircumflex" unicode="&#xce;" horiz-adv-x="242" 
d="M202 888h77l65 -147h-69l-42 97l-74 -97h-69zM52 0l110 690h95l-110 -690h-95z" />
    <glyph glyph-name="Idieresis" unicode="&#xcf;" horiz-adv-x="242" 
d="M354 824q0 -26 -17.5 -45.5t-42.5 -19.5q-19 0 -31.5 12.5t-12.5 31.5q0 27 17.5 46t43.5 19q19 0 31 -12.5t12 -31.5zM207 824q0 -26 -17.5 -45.5t-42.5 -19.5q-19 0 -31.5 12.5t-12.5 31.5q0 27 17.5 46t43.5 19q19 0 31 -12.5t12 -31.5zM52 0l110 690h95l-110 -690
h-95z" />
    <glyph glyph-name="Eth" unicode="&#xd0;" horiz-adv-x="665" 
d="M664 409q0 -175 -118 -292q-117 -117 -294 -117h-200l52 324h-63l12 74h62l47 292h200q134 0 218 -75q84 -74 84 -206zM566 395q0 98 -58.5 154t-158.5 56h-106l-33 -207h168l-11 -73h-168l-38 -239h106q127 0 213 89q86 91 86 220z" />
    <glyph glyph-name="Ntilde" unicode="&#xd1;" horiz-adv-x="717" 
d="M576 863l45 -10q-9 -38 -38.5 -66t-65.5 -28q-32 0 -67 23q-35 24 -50 24q-34 0 -48 -43l-45 10q8 39 37.5 66.5t66.5 27.5q31 0 66 -23t51 -23q33 0 48 42zM634 690h93l-109 -690h-93l-294 547q-24 -167 -85 -547h-94l110 690h99l288 -539q15 103 85 539z" />
    <glyph glyph-name="Ograve" unicode="&#xd2;" horiz-adv-x="762" 
d="M356 888h92l63 -147h-72zM760 412q0 -175 -115 -299q-116 -125 -289 -125q-130 0 -212 79q-81 79 -81 209q0 175 115 299q116 125 290 125q132 0 211 -79q81 -79 81 -209zM662 400q0 96 -57 155q-55 60 -150 60q-126 0 -210 -97q-83 -98 -83 -225q0 -95 56 -156
q57 -59 152 -59q126 0 209 96q83 98 83 226z" />
    <glyph glyph-name="Oacute" unicode="&#xd3;" horiz-adv-x="762" 
d="M438 741l110 147h92l-130 -147h-72zM760 412q0 -175 -115 -299q-116 -125 -289 -125q-130 0 -212 79q-81 79 -81 209q0 175 115 299q116 125 290 125q132 0 211 -79q81 -79 81 -209zM662 400q0 96 -57 155q-55 60 -150 60q-126 0 -210 -97q-83 -98 -83 -225
q0 -95 56 -156q57 -59 152 -59q126 0 209 96q83 98 83 226z" />
    <glyph glyph-name="Ocircumflex" unicode="&#xd4;" horiz-adv-x="762" 
d="M460 888h76l66 -147h-70l-42 97l-73 -97h-69zM760 412q0 -175 -115 -299q-116 -125 -289 -125q-130 0 -212 79q-81 79 -81 209q0 175 115 299q116 125 290 125q132 0 211 -79q81 -79 81 -209zM662 400q0 96 -57 155q-55 60 -150 60q-126 0 -210 -97q-83 -98 -83 -225
q0 -95 56 -156q57 -59 152 -59q126 0 209 96q83 98 83 226z" />
    <glyph glyph-name="Otilde" unicode="&#xd5;" horiz-adv-x="762" 
d="M598 863l46 -10q-9 -38 -39 -66t-66 -28q-32 0 -67 23q-34 24 -50 24q-34 0 -48 -43l-45 10q9 39 38.5 66.5t65.5 27.5q31 0 66 -23t51 -23q33 0 48 42zM760 412q0 -175 -115 -299q-116 -125 -289 -125q-130 0 -212 79q-81 79 -81 209q0 175 115 299q116 125 290 125
q132 0 211 -79q81 -79 81 -209zM662 400q0 96 -57 155q-55 60 -150 60q-126 0 -210 -97q-83 -98 -83 -225q0 -95 56 -156q57 -59 152 -59q126 0 209 96q83 98 83 226z" />
    <glyph glyph-name="Odieresis" unicode="&#xd6;" horiz-adv-x="762" 
d="M611 820q0 -25 -18 -45t-42 -20q-19 0 -31.5 12.5t-12.5 31.5q0 27 17.5 46t43.5 19q19 0 31 -12t12 -32zM464 820q0 -25 -18 -45t-42 -20q-19 0 -31.5 12.5t-12.5 31.5q0 27 17.5 46t43.5 19q19 0 31 -12t12 -32zM760 412q0 -175 -115 -299q-116 -125 -289 -125
q-130 0 -212 79q-81 79 -81 209q0 175 115 299q116 125 290 125q132 0 211 -79q81 -79 81 -209zM662 400q0 96 -57 155q-55 60 -150 60q-126 0 -210 -97q-83 -98 -83 -225q0 -95 56 -156q57 -59 152 -59q126 0 209 96q83 98 83 226z" />
    <glyph glyph-name="multiply" unicode="&#xd7;" horiz-adv-x="667" 
d="M567 544l-200 -200l200 -200l-52 -54l-201 201l-202 -201l-51 54l200 200l-200 200l51 54l202 -201l201 201z" />
    <glyph glyph-name="Oslash" unicode="&#xd8;" horiz-adv-x="762" 
d="M676 625l89 81l40 -49l-89 -80q44 -71 44 -165q0 -175 -115 -299q-116 -125 -289 -125q-127 0 -208 75l-87 -79l-40 49l87 78q-45 71 -45 165q0 175 115 299q116 125 290 125q127 0 208 -75zM187 183l415 376q-58 56 -147 56q-126 0 -210 -97q-83 -98 -83 -225
q0 -64 25 -110zM662 400q0 60 -23 108l-415 -376q57 -54 146 -54q126 0 209 96q83 98 83 226z" />
    <glyph glyph-name="Ugrave" unicode="&#xd9;" horiz-adv-x="647" 
d="M317 888h92l63 -147h-71zM504 291l63 399h96l-65 -408q-46 -294 -299 -294q-101 0 -158.5 51.5t-57.5 146.5q0 38 9 96l65 408h95l-63 -399q-9 -50 -9 -85q0 -61 35.5 -95t97.5 -34q39 0 69.5 12t50.5 30.5t34.5 47.5t22.5 58t14 66z" />
    <glyph glyph-name="Uacute" unicode="&#xda;" horiz-adv-x="647" 
d="M363 741l110 147h92l-130 -147h-72zM504 291l63 399h96l-65 -408q-46 -294 -299 -294q-101 0 -158.5 51.5t-57.5 146.5q0 38 9 96l65 408h95l-63 -399q-9 -50 -9 -85q0 -61 35.5 -95t97.5 -34q39 0 69.5 12t50.5 30.5t34.5 47.5t22.5 58t14 66z" />
    <glyph glyph-name="Ucircumflex" unicode="&#xdb;" horiz-adv-x="647" 
d="M403 888h76l66 -147h-70l-42 97l-73 -97h-69zM504 291l63 399h96l-65 -408q-46 -294 -299 -294q-101 0 -158.5 51.5t-57.5 146.5q0 38 9 96l65 408h95l-63 -399q-9 -50 -9 -85q0 -61 35.5 -95t97.5 -34q39 0 69.5 12t50.5 30.5t34.5 47.5t22.5 58t14 66z" />
    <glyph glyph-name="Udieresis" unicode="&#xdc;" horiz-adv-x="647" 
d="M554 820q0 -25 -18 -45t-42 -20q-19 0 -31.5 12.5t-12.5 31.5q0 27 17.5 46t43.5 19q19 0 31 -12t12 -32zM407 820q0 -25 -18 -45t-42 -20q-19 0 -31.5 12.5t-12.5 31.5q0 27 17.5 46t43.5 19q19 0 31 -12t12 -32zM504 291l63 399h96l-65 -408q-46 -294 -299 -294
q-101 0 -158.5 51.5t-57.5 146.5q0 38 9 96l65 408h95l-63 -399q-9 -50 -9 -85q0 -61 35.5 -95t97.5 -34q39 0 69.5 12t50.5 30.5t34.5 47.5t22.5 58t14 66z" />
    <glyph glyph-name="Yacute" unicode="&#xdd;" horiz-adv-x="558" 
d="M318 741l110 147h92l-130 -147h-72zM315 375l222 315h107l-295 -401l-45 -289h-96l46 289l-168 401h108z" />
    <glyph glyph-name="Thorn" unicode="&#xde;" horiz-adv-x="511" 
d="M517 401q0 -111 -73 -174q-74 -62 -187 -62h-84l-26 -165h-95l110 690h95l-21 -130q125 0 170 -13q111 -29 111 -146zM417 385q0 95 -119 95h-75l-37 -234h75q70 0 113 37t43 102z" />
    <glyph glyph-name="germandbls" unicode="&#xdf;" horiz-adv-x="542" 
d="M29 -113l89 560q19 115 62 179q51 74 175 74q66 0 110 -34q45 -34 45 -96q0 -64 -31 -107.5t-83 -55.5v-1q57 -9 91 -54.5t34 -106.5q0 -113 -78 -183q-77 -69 -194 -69q-28 0 -55 6l18 77q18 -5 45 -5q74 0 122 48q48 49 48 123q0 58 -34 85q-38 31 -130 31l11 75
q148 0 148 119q0 34 -24.5 55t-61.5 21q-55 0 -81 -34t-37 -103l-95 -599q-6 -38 -20 -70l-4 -8h-93q15 26 23 73z" />
    <glyph glyph-name="agrave" unicode="&#xe0;" horiz-adv-x="579" 
d="M561 476l-64 -406q-2 -22 -2 -37l3 -33h-91q-3 10 -3 32q0 23 5 45q-70 -88 -176 -88q-87 0 -137.5 54.5t-50.5 144.5q0 120 73 208q74 89 191 89q105 0 147 -83l12 74h93zM437 275q0 59 -32 94.5t-89 35.5q-77 0 -126 -61q-48 -62 -48 -141q0 -59 32.5 -95t88.5 -36
q78 0 126 61t48 142zM192 690h92l63 -145h-71z" />
    <glyph glyph-name="aacute" unicode="&#xe1;" horiz-adv-x="579" 
d="M561 476l-64 -406q-2 -22 -2 -37l3 -33h-91q-3 10 -3 32q0 23 5 45q-70 -88 -176 -88q-87 0 -137.5 54.5t-50.5 144.5q0 120 73 208q74 89 191 89q105 0 147 -83l12 74h93zM437 275q0 59 -32 94.5t-89 35.5q-77 0 -126 -61q-48 -62 -48 -141q0 -59 32.5 -95t88.5 -36
q78 0 126 61t48 142zM257 545l109 145h93l-130 -145h-72z" />
    <glyph glyph-name="acircumflex" unicode="&#xe2;" horiz-adv-x="579" 
d="M561 476l-64 -406q-2 -22 -2 -37l3 -33h-91q-3 10 -3 32q0 23 5 45q-70 -88 -176 -88q-87 0 -137.5 54.5t-50.5 144.5q0 120 73 208q74 89 191 89q105 0 147 -83l12 74h93zM437 275q0 59 -32 94.5t-89 35.5q-77 0 -126 -61q-48 -62 -48 -141q0 -59 32.5 -95t88.5 -36
q78 0 126 61t48 142zM289 690h76l66 -145h-69l-42 98l-74 -98h-69z" />
    <glyph glyph-name="atilde" unicode="&#xe3;" horiz-adv-x="579" 
d="M561 476l-64 -406q-2 -22 -2 -37l3 -33h-91q-3 10 -3 32q0 23 5 45q-70 -88 -176 -88q-87 0 -137.5 54.5t-50.5 144.5q0 120 73 208q74 89 191 89q105 0 147 -83l12 74h93zM437 275q0 59 -32 94.5t-89 35.5q-77 0 -126 -61q-48 -62 -48 -141q0 -59 32.5 -95t88.5 -36
q78 0 126 61t48 142zM436 670l45 -11q-9 -38 -38 -65t-66 -27q-31 0 -66 23t-51 23q-34 0 -48 -42l-45 10q9 39 38.5 66t65.5 27q31 0 66 -23t51 -23q34 0 48 42z" />
    <glyph glyph-name="adieresis" unicode="&#xe4;" horiz-adv-x="579" 
d="M561 476l-64 -406q-2 -22 -2 -37l3 -33h-91q-3 10 -3 32q0 23 5 45q-70 -88 -176 -88q-87 0 -137.5 54.5t-50.5 144.5q0 120 73 208q74 89 191 89q105 0 147 -83l12 74h93zM437 275q0 59 -32 94.5t-89 35.5q-77 0 -126 -61q-48 -62 -48 -141q0 -59 32.5 -95t88.5 -36
q78 0 126 61t48 142zM439 627q0 -25 -18 -44t-43 -19q-20 0 -32 12t-12 32q0 25 18 44t43 19q19 0 31.5 -12.5t12.5 -31.5zM291 627q0 -25 -18 -44t-43 -19q-19 0 -31 12.5t-12 31.5q0 25 18 44t42 19q19 0 31.5 -12.5t12.5 -31.5z" />
    <glyph glyph-name="aring" unicode="&#xe5;" horiz-adv-x="579" 
d="M561 476l-64 -406q-2 -22 -2 -37l3 -33h-91q-3 10 -3 32q0 23 5 45q-70 -88 -176 -88q-87 0 -137.5 54.5t-50.5 144.5q0 120 73 208q74 89 191 89q105 0 147 -83l12 74h93zM437 275q0 59 -32 94.5t-89 35.5q-77 0 -126 -61q-48 -62 -48 -141q0 -59 32.5 -95t88.5 -36
q78 0 126 61t48 142zM416 653q0 -45 -34 -78t-79 -33q-37 0 -60.5 22t-23.5 57q0 45 34 78q35 33 80 33q36 0 59.5 -22t23.5 -57zM367 646q0 19 -11.5 30.5t-29.5 11.5q-24 0 -41 -18t-17 -42q0 -19 11.5 -30.5t30.5 -11.5q24 0 40.5 18t16.5 42z" />
    <glyph glyph-name="ae" unicode="&#xe6;" horiz-adv-x="817" 
d="M803 357q0 -13 -5.5 -29.5t-22.5 -39t-43.5 -41t-74.5 -31.5t-110 -13q-50 0 -113 9q-1 -5 -1 -18q0 -59 33.5 -93.5t92.5 -34.5q74 0 162 55l30 -57q-87 -75 -215 -75q-124 0 -174 95q-92 -95 -201 -95q-61 0 -99.5 33t-38.5 89q0 180 258 180q38 0 71 -3q3 21 3 39
q0 41 -26.5 62.5t-70.5 21.5q-77 0 -145 -41l-18 65q85 49 179 49q128 0 153 -87q88 88 214 88q72 0 117 -35.5t45 -92.5zM199 59q37 0 80 23q41 24 64 57q-4 17 -4 48q0 5 2 37q-47 5 -75 5q-148 0 -148 -103q0 -32 23 -49.5t58 -17.5zM714 357q0 25 -23.5 42t-61.5 17
q-65 0 -115 -37.5t-68 -98.5q36 -6 79 -6q76 0 133 20q56 21 56 63z" />
    <glyph glyph-name="ccedilla" unicode="&#xe7;" horiz-adv-x="461" 
d="M487 416l-44 -71q-41 60 -125 60q-76 0 -126 -62t-50 -138q0 -60 33.5 -96.5t92.5 -36.5q39 0 80.5 15.5t68.5 39.5l17 -73q-57 -51 -155 -62l-95 -137h-93l113 138q-72 12 -115.5 66.5t-43.5 132.5q0 116 80 204q79 88 199 88q50 0 95 -18t68 -50z" />
    <glyph glyph-name="egrave" unicode="&#xe8;" horiz-adv-x="523" 
d="M509 357q0 -13 -5.5 -29.5t-22.5 -39t-43.5 -41t-74.5 -31.5t-110 -13q-50 0 -113 9q-1 -5 -1 -18q0 -59 33.5 -93.5t92.5 -34.5q74 0 162 55l30 -57q-87 -75 -215 -75q-91 0 -144 53.5t-53 144.5q0 121 87 210q88 88 215 88q72 0 117 -35.5t45 -92.5zM420 357
q0 25 -23.5 42t-61.5 17q-65 0 -115 -37.5t-68 -98.5q36 -6 79 -6q76 0 133 20q56 21 56 63zM184 690h92l63 -145h-71z" />
    <glyph glyph-name="eacute" unicode="&#xe9;" horiz-adv-x="523" 
d="M509 357q0 -13 -5.5 -29.5t-22.5 -39t-43.5 -41t-74.5 -31.5t-110 -13q-50 0 -113 9q-1 -5 -1 -18q0 -59 33.5 -93.5t92.5 -34.5q74 0 162 55l30 -57q-87 -75 -215 -75q-91 0 -144 53.5t-53 144.5q0 121 87 210q88 88 215 88q72 0 117 -35.5t45 -92.5zM420 357
q0 25 -23.5 42t-61.5 17q-65 0 -115 -37.5t-68 -98.5q36 -6 79 -6q76 0 133 20q56 21 56 63zM235 545l109 145h93l-130 -145h-72z" />
    <glyph glyph-name="ecircumflex" unicode="&#xea;" horiz-adv-x="523" 
d="M509 357q0 -13 -5.5 -29.5t-22.5 -39t-43.5 -41t-74.5 -31.5t-110 -13q-50 0 -113 9q-1 -5 -1 -18q0 -59 33.5 -93.5t92.5 -34.5q74 0 162 55l30 -57q-87 -75 -215 -75q-91 0 -144 53.5t-53 144.5q0 121 87 210q88 88 215 88q72 0 117 -35.5t45 -92.5zM420 357
q0 25 -23.5 42t-61.5 17q-65 0 -115 -37.5t-68 -98.5q36 -6 79 -6q76 0 133 20q56 21 56 63zM294 690h76l66 -145h-69l-42 98l-74 -98h-69z" />
    <glyph glyph-name="edieresis" unicode="&#xeb;" horiz-adv-x="523" 
d="M509 357q0 -13 -5.5 -29.5t-22.5 -39t-43.5 -41t-74.5 -31.5t-110 -13q-50 0 -113 9q-1 -5 -1 -18q0 -59 33.5 -93.5t92.5 -34.5q74 0 162 55l30 -57q-87 -75 -215 -75q-91 0 -144 53.5t-53 144.5q0 121 87 210q88 88 215 88q72 0 117 -35.5t45 -92.5zM420 357
q0 25 -23.5 42t-61.5 17q-65 0 -115 -37.5t-68 -98.5q36 -6 79 -6q76 0 133 20q56 21 56 63zM430 627q0 -25 -18 -44t-43 -19q-19 0 -31.5 12t-12.5 32q0 25 18 44t43 19q20 0 32 -12.5t12 -31.5zM282 627q0 -25 -18 -44t-43 -19q-19 0 -31 12.5t-12 31.5q0 25 18 44t42 19
q20 0 32 -12.5t12 -31.5z" />
    <glyph glyph-name="igrave" unicode="&#xec;" horiz-adv-x="228" 
d="M71 690h93l63 -147h-72zM203 398l-52 -328q-2 -18 -2 -37l3 -33h-95q-3 10 -3 32q0 25 4 45l53 328q3 23 3 38l-3 33h93q3 -10 3 -32q0 -25 -4 -46z" />
    <glyph glyph-name="iacute" unicode="&#xed;" horiz-adv-x="228" 
d="M132 543l109 147h93l-131 -147h-71zM203 398l-52 -328q-2 -18 -2 -37l3 -33h-95q-3 10 -3 32q0 25 4 45l53 328q3 23 3 38l-3 33h93q3 -10 3 -32q0 -25 -4 -46z" />
    <glyph glyph-name="icircumflex" unicode="&#xee;" horiz-adv-x="228" 
d="M164 690h77l65 -147h-69l-42 99l-73 -99h-70zM203 398l-52 -328q-2 -18 -2 -37l3 -33h-95q-3 10 -3 32q0 25 4 45l53 328q3 23 3 38l-3 33h93q3 -10 3 -32q0 -25 -4 -46z" />
    <glyph glyph-name="idieresis" unicode="&#xef;" horiz-adv-x="228" 
d="M316 627q0 -25 -18 -45t-42 -20q-19 0 -31.5 12.5t-12.5 31.5q0 27 17.5 46t43.5 19q19 0 31 -12t12 -32zM170 627q0 -27 -17.5 -46t-43.5 -19q-19 0 -31 12.5t-12 31.5q0 26 17.5 45.5t42.5 19.5q20 0 32 -12.5t12 -31.5zM203 398l-52 -328q-2 -18 -2 -37l3 -33h-95
q-3 10 -3 32q0 25 4 45l53 328q3 23 3 38l-3 33h93q3 -10 3 -32q0 -25 -4 -46z" />
    <glyph glyph-name="eth" unicode="&#xf0;" horiz-adv-x="554" 
d="M539 311q0 -134 -77 -229q-76 -93 -212 -93q-90 0 -148 55q-57 56 -57 145q0 111 79 196q80 86 191 86q76 0 117 -44q-31 89 -103 164l-122 -72l-20 47l106 63q-39 36 -83 68l69 44q56 -39 89 -72l128 75l21 -48l-112 -65q134 -143 134 -320zM440 267q0 58 -34 94t-90 36
q-75 0 -125 -59q-49 -58 -49 -135q0 -58 33.5 -94.5t89.5 -36.5q75 0 125 59q50 61 50 136z" />
    <glyph glyph-name="ntilde" unicode="&#xf1;" horiz-adv-x="524" 
d="M449 670l45 -11q-9 -38 -38.5 -66t-65.5 -28q-32 0 -67 23q-35 24 -50 24q-34 0 -48 -43l-46 11q9 38 39 66t66 28q32 0 66 -24q35 -23 51 -23q34 0 48 43zM485 281l-33 -211q-2 -18 -2 -37l3 -33h-95q-3 10 -3 32q0 25 4 45l30 188q5 35 5 56q0 82 -78 82
q-113 0 -142 -164l-38 -239h-93l64 405q3 23 3 38l-3 33h93q7 -26 -1 -76h1q27 39 68 61.5t86 22.5q137 0 137 -138q0 -32 -6 -65z" />
    <glyph glyph-name="ograve" unicode="&#xf2;" horiz-adv-x="554" 
d="M239 690h91l64 -147h-72zM538 281q0 -121 -82 -206q-81 -86 -203 -86q-92 0 -150 55t-58 147q0 122 82 207q83 86 204 86q91 0 149 -56q58 -55 58 -147zM442 273q0 59 -33.5 95.5t-90.5 36.5q-77 0 -126 -61q-50 -62 -50 -139q0 -60 33.5 -96.5t90.5 -36.5q77 0 126 61
q50 62 50 140z" />
    <glyph glyph-name="oacute" unicode="&#xf3;" horiz-adv-x="554" 
d="M287 543l110 147h92l-130 -147h-72zM538 281q0 -121 -82 -206q-81 -86 -203 -86q-92 0 -150 55t-58 147q0 122 82 207q83 86 204 86q91 0 149 -56q58 -55 58 -147zM442 273q0 59 -33.5 95.5t-90.5 36.5q-77 0 -126 -61q-50 -62 -50 -139q0 -60 33.5 -96.5t90.5 -36.5
q77 0 126 61q50 62 50 140z" />
    <glyph glyph-name="ocircumflex" unicode="&#xf4;" horiz-adv-x="554" 
d="M325 690h77l65 -147h-69l-42 99l-73 -99h-70zM538 281q0 -121 -82 -206q-81 -86 -203 -86q-92 0 -150 55t-58 147q0 122 82 207q83 86 204 86q91 0 149 -56q58 -55 58 -147zM442 273q0 59 -33.5 95.5t-90.5 36.5q-77 0 -126 -61q-50 -62 -50 -139q0 -60 33.5 -96.5
t90.5 -36.5q77 0 126 61q50 62 50 140z" />
    <glyph glyph-name="otilde" unicode="&#xf5;" horiz-adv-x="554" 
d="M464 670l46 -11q-9 -38 -38.5 -66t-65.5 -28q-32 0 -67 23q-35 24 -51 24q-34 0 -48 -43l-45 11q9 38 38.5 66t65.5 28q31 0 66 -24q35 -23 52 -23q15 0 28 12t19 31zM538 281q0 -121 -82 -206q-81 -86 -203 -86q-92 0 -150 55t-58 147q0 122 82 207q83 86 204 86
q91 0 149 -56q58 -55 58 -147zM442 273q0 59 -33.5 95.5t-90.5 36.5q-77 0 -126 -61q-50 -62 -50 -139q0 -60 33.5 -96.5t90.5 -36.5q77 0 126 61q50 62 50 140z" />
    <glyph glyph-name="odieresis" unicode="&#xf6;" horiz-adv-x="554" 
d="M477 627q0 -27 -17.5 -46t-43.5 -19q-19 0 -31 12.5t-12 31.5q0 27 17.5 46t43.5 19q19 0 31 -12t12 -32zM331 627q0 -27 -17.5 -46t-43.5 -19q-19 0 -31.5 12.5t-12.5 31.5q0 26 18 45.5t43 19.5q19 0 31.5 -12.5t12.5 -31.5zM538 281q0 -121 -82 -206q-81 -86 -203 -86
q-92 0 -150 55t-58 147q0 122 82 207q83 86 204 86q91 0 149 -56q58 -55 58 -147zM442 273q0 59 -33.5 95.5t-90.5 36.5q-77 0 -126 -61q-50 -62 -50 -139q0 -60 33.5 -96.5t90.5 -36.5q77 0 126 61q50 62 50 140z" />
    <glyph glyph-name="divide" unicode="&#xf7;" horiz-adv-x="667" 
d="M375 510q0 -26 -18 -44t-43 -18q-26 0 -44 18t-18 44q0 25 18.5 43t43.5 18t43 -18t18 -43zM52 382h523v-74h-523v74zM252 180q0 26 18 44t44 18q39 3 56 -38.5t-13 -67.5q-19 -17 -43 -17t-44 18t-18 43z" />
    <glyph glyph-name="oslash" unicode="&#xf8;" horiz-adv-x="554" 
d="M473 435l66 59l36 -43l-66 -58q29 -50 29 -112q0 -121 -82 -206q-81 -86 -203 -86q-86 0 -144 50l-66 -59l-35 43l66 58q-29 49 -29 110q0 122 82 207q83 86 204 86q87 0 142 -49zM151 150l253 224q-31 31 -86 31q-77 0 -126 -61q-50 -62 -50 -139q0 -29 9 -55zM442 273
q0 29 -8 53l-253 -224q33 -30 85 -30q77 0 126 61q50 62 50 140z" />
    <glyph glyph-name="ugrave" unicode="&#xf9;" horiz-adv-x="520" 
d="M214 690h92l64 -147h-72zM195 397l-32 -202q-4 -27 -4 -45q0 -79 78 -79q55 0 90.5 42t45.5 108l41 254h93l-64 -405q-2 -18 -2 -37l3 -33h-92q-3 10 -3 32q0 15 2 33q-57 -76 -153 -76q-135 0 -135 135q0 34 6 67l34 213q3 22 3 38l-3 33h93q3 -11 3 -32q0 -25 -4 -46z
" />
    <glyph glyph-name="uacute" unicode="&#xfa;" horiz-adv-x="520" 
d="M272 543l110 147h92l-130 -147h-72zM195 397l-32 -202q-4 -27 -4 -45q0 -79 78 -79q55 0 90.5 42t45.5 108l41 254h93l-64 -405q-2 -18 -2 -37l3 -33h-92q-3 10 -3 32q0 15 2 33q-57 -76 -153 -76q-135 0 -135 135q0 34 6 67l34 213q3 22 3 38l-3 33h93q3 -11 3 -32
q0 -25 -4 -46z" />
    <glyph glyph-name="ucircumflex" unicode="&#xfb;" horiz-adv-x="520" 
d="M306 690h77l66 -147h-70l-42 99l-73 -99h-70zM195 397l-32 -202q-4 -27 -4 -45q0 -79 78 -79q55 0 90.5 42t45.5 108l41 254h93l-64 -405q-2 -18 -2 -37l3 -33h-92q-3 10 -3 32q0 15 2 33q-57 -76 -153 -76q-135 0 -135 135q0 34 6 67l34 213q3 22 3 38l-3 33h93
q3 -11 3 -32q0 -25 -4 -46z" />
    <glyph glyph-name="udieresis" unicode="&#xfc;" horiz-adv-x="520" 
d="M459 627q0 -25 -18.5 -45t-42.5 -20q-19 0 -31.5 12.5t-12.5 31.5q0 27 17.5 46t43.5 19q19 0 31.5 -12.5t12.5 -31.5zM312 627q0 -27 -17.5 -46t-43.5 -19q-19 0 -31 12.5t-12 31.5q0 27 17.5 46t43.5 19q19 0 31 -12t12 -32zM195 397l-32 -202q-4 -27 -4 -45
q0 -79 78 -79q55 0 90.5 42t45.5 108l41 254h93l-64 -405q-2 -18 -2 -37l3 -33h-92q-3 10 -3 32q0 15 2 33q-57 -76 -153 -76q-135 0 -135 135q0 34 6 67l34 213q3 22 3 38l-3 33h93q3 -11 3 -32q0 -25 -4 -46z" />
    <glyph glyph-name="yacute" unicode="&#xfd;" horiz-adv-x="464" 
d="M244 543l110 147h92l-130 -147h-72zM230 109l192 367h97l-309 -559q-30 -55 -62.5 -82.5t-76.5 -27.5q-49 0 -84 18l31 79q24 -12 46 -12q35 0 54 31q12 17 18 28q5 9 16 33t13 27l-110 465h98z" />
    <glyph glyph-name="thorn" unicode="&#xfe;" horiz-adv-x="579" 
d="M237 611l-33 -209h1q67 82 172 82q86 0 136 -53.5t50 -142.5q0 -118 -74 -209q-73 -90 -192 -90q-105 0 -144 85h-1l-30 -190q-2 -18 -2 -37l3 -33h-95q-3 10 -3 31q0 25 4 45l115 728q3 22 3 38l-3 33h94q3 -11 3 -32q0 -25 -4 -46zM466 275q0 59 -32 94.5t-89 35.5
q-77 0 -125 -61q-48 -62 -48 -141q0 -60 32 -95.5t89 -35.5q77 0 125 61t48 142z" />
    <glyph glyph-name="ydieresis" unicode="&#xff;" horiz-adv-x="464" 
d="M436 631q0 -27 -17.5 -46t-43.5 -19q-19 0 -31.5 12t-12.5 32q0 25 18.5 45t42.5 20q19 0 31.5 -12.5t12.5 -31.5zM289 631q0 -26 -17.5 -45.5t-42.5 -19.5q-19 0 -31.5 12t-12.5 32q0 27 17.5 46t43.5 19q19 0 31 -12.5t12 -31.5zM230 109l192 367h97l-309 -559
q-30 -55 -62.5 -82.5t-76.5 -27.5q-49 0 -84 18l31 79q24 -12 46 -12q35 0 54 31q12 17 18 28q5 9 16 33t13 27l-110 465h98z" />
    <glyph glyph-name="Amacron" unicode="&#x100;" horiz-adv-x="630" 
d="M360 692h83l161 -692h-106l-39 179h-283l-96 -179h-100zM379 568l-163 -306h229zM271 786l9 55h250l-8 -55h-251z" />
    <glyph glyph-name="amacron" unicode="&#x101;" horiz-adv-x="579" 
d="M561 476l-64 -406q-2 -22 -2 -37l3 -33h-91q-3 10 -3 32q0 23 5 45q-70 -88 -176 -88q-87 0 -137.5 54.5t-50.5 144.5q0 120 73 208q74 89 191 89q105 0 147 -83l12 74h93zM437 275q0 59 -32 94.5t-89 35.5q-77 0 -126 -61q-48 -62 -48 -141q0 -59 32.5 -95t88.5 -36
q78 0 126 61t48 142zM194 572l9 55h250l-8 -55h-251z" />
    <glyph glyph-name="Abreve" unicode="&#x102;" horiz-adv-x="630" 
d="M360 692h83l161 -692h-106l-39 179h-283l-96 -179h-100zM379 568l-163 -306h229zM507 893h48q-17 -59 -59.5 -91t-103.5 -32q-60 0 -93 31.5t-32 91.5h49q4 -64 85 -64t106 64z" />
    <glyph glyph-name="abreve" unicode="&#x103;" horiz-adv-x="579" 
d="M561 476l-64 -406q-2 -22 -2 -37l3 -33h-91q-3 10 -3 32q0 23 5 45q-70 -88 -176 -88q-87 0 -137.5 54.5t-50.5 144.5q0 120 73 208q74 89 191 89q105 0 147 -83l12 74h93zM437 275q0 59 -32 94.5t-89 35.5q-77 0 -126 -61q-48 -62 -48 -141q0 -59 32.5 -95t88.5 -36
q78 0 126 61t48 142zM420 679h48q-17 -59 -59.5 -91t-103.5 -32q-60 0 -93 31.5t-32 91.5h49q4 -64 85 -64t106 64z" />
    <glyph glyph-name="Aogonek" unicode="&#x104;" horiz-adv-x="630" 
d="M589 -132l11 -33q-52 -43 -108 -43q-38 0 -63 19.5t-25 54.5q0 73 94 134l-39 179h-283l-96 -179h-100l380 692h83l161 -692q-46 0 -90 -39q-43 -40 -43 -75q0 -19 13.5 -29.5t34.5 -10.5q33 0 70 22zM379 568l-163 -306h229z" />
    <glyph glyph-name="aogonek" unicode="&#x105;" horiz-adv-x="579" 
d="M501 -129l11 -33q-52 -43 -108 -43q-38 0 -63 19.5t-25 54.5q0 73 90 131v4q-2 10 -2 28q0 23 5 45q-70 -88 -176 -88q-87 0 -137.5 54.5t-50.5 144.5q0 120 73 208q74 89 191 89q105 0 147 -83l12 74h93l-64 -406q-2 -22 -2 -37l3 -33q-34 0 -74 -39q-41 -39 -41 -72
q0 -19 13.5 -29.5t34.5 -10.5q33 0 70 22zM437 275q0 59 -32 94.5t-89 35.5q-77 0 -126 -61q-48 -62 -48 -141q0 -59 32.5 -95t88.5 -36q78 0 126 61t48 142z" />
    <glyph glyph-name="Cacute" unicode="&#x106;" horiz-adv-x="645" 
d="M687 608l-53 -79q-24 39 -76 61q-54 23 -103 23q-127 0 -210 -96q-82 -94 -82 -224q0 -97 56.5 -155.5t151.5 -58.5q122 0 211 84l30 -72q-106 -103 -259 -103q-131 0 -211 78q-79 79 -79 209q-3 111 49 209.5t146.5 158t206.5 57.5q148 0 222 -92zM344 759l109 145h93
l-130 -145h-72z" />
    <glyph glyph-name="cacute" unicode="&#x107;" horiz-adv-x="461" 
d="M487 416l-44 -71q-41 60 -125 60q-76 0 -126 -62t-50 -138q0 -60 33.5 -96.5t92.5 -36.5q39 0 80.5 15.5t68.5 39.5l17 -73q-33 -30 -85.5 -47.5t-106.5 -17.5q-88 0 -143 57q-54 58 -54 146q0 116 80 204q79 88 199 88q50 0 95 -18t68 -50zM209 545l109 145h93
l-130 -145h-72z" />
    <glyph glyph-name="Ccircumflex" unicode="&#x108;" horiz-adv-x="645" 
d="M403 904h76l66 -145h-69l-42 98l-74 -98h-69zM687 608l-53 -79q-24 39 -76 61q-54 23 -103 23q-127 0 -210 -96q-82 -94 -82 -224q0 -97 56.5 -155.5t151.5 -58.5q122 0 211 84l30 -72q-106 -103 -259 -103q-131 0 -211 78q-79 79 -79 209q-3 111 49 209.5t146.5 158
t206.5 57.5q148 0 222 -92z" />
    <glyph glyph-name="ccircumflex" unicode="&#x109;" horiz-adv-x="461" 
d="M273 690h76l66 -145h-69l-42 98l-74 -98h-69zM487 416l-44 -71q-41 60 -125 60q-76 0 -126 -62t-50 -138q0 -60 33.5 -96.5t92.5 -36.5q39 0 80.5 15.5t68.5 39.5l17 -73q-33 -30 -85.5 -47.5t-106.5 -17.5q-88 0 -143 57q-54 58 -54 146q0 116 80 204q79 88 199 88
q50 0 95 -18t68 -50z" />
    <glyph glyph-name="Cdotaccent" unicode="&#x10a;" horiz-adv-x="645" 
d="M687 608l-53 -79q-24 39 -76 61q-54 23 -103 23q-127 0 -210 -96q-82 -94 -82 -224q0 -97 56.5 -155.5t151.5 -58.5q122 0 211 84l30 -72q-106 -103 -259 -103q-131 0 -211 78q-79 79 -79 209q-3 111 49 209.5t146.5 158t206.5 57.5q148 0 222 -92zM470 842
q0 -25 -18.5 -44t-43.5 -19q-20 0 -32 12.5t-12 31.5q0 25 18 43.5t43 18.5q20 0 32.5 -12t12.5 -31z" />
    <glyph glyph-name="cdotaccent" unicode="&#x10b;" horiz-adv-x="461" 
d="M487 416l-44 -71q-41 60 -125 60q-76 0 -126 -62t-50 -138q0 -60 33.5 -96.5t92.5 -36.5q39 0 80.5 15.5t68.5 39.5l17 -73q-33 -30 -85.5 -47.5t-106.5 -17.5q-88 0 -143 57q-54 58 -54 146q0 116 80 204q79 88 199 88q50 0 95 -18t68 -50zM340 628q0 -25 -18.5 -44
t-43.5 -19q-20 0 -32 12.5t-12 31.5q0 25 18 43.5t43 18.5q20 0 32.5 -12t12.5 -31z" />
    <glyph glyph-name="Ccaron" unicode="&#x10c;" horiz-adv-x="645" 
d="M421 806l73 98h69l-112 -145h-76l-66 145h69zM687 608l-53 -79q-24 39 -76 61q-54 23 -103 23q-127 0 -210 -96q-82 -94 -82 -224q0 -97 56.5 -155.5t151.5 -58.5q122 0 211 84l30 -72q-106 -103 -259 -103q-131 0 -211 78q-79 79 -79 209q-3 111 49 209.5t146.5 158
t206.5 57.5q148 0 222 -92z" />
    <glyph glyph-name="ccaron" unicode="&#x10d;" horiz-adv-x="461" 
d="M294 592l73 98h69l-112 -145h-76l-66 145h69zM487 416l-44 -71q-41 60 -125 60q-76 0 -126 -62t-50 -138q0 -60 33.5 -96.5t92.5 -36.5q39 0 80.5 15.5t68.5 39.5l17 -73q-33 -30 -85.5 -47.5t-106.5 -17.5q-88 0 -143 57q-54 58 -54 146q0 116 80 204q79 88 199 88
q50 0 95 -18t68 -50z" />
    <glyph glyph-name="Dcaron" unicode="&#x10e;" horiz-adv-x="665" 
d="M664 409q0 -175 -118 -292q-117 -117 -294 -117h-200l110 690h200q134 0 218 -75q84 -74 84 -206zM566 395q0 98 -58.5 154t-158.5 56h-106l-82 -519h106q127 0 213 89q86 91 86 220zM377 806l73 98h69l-112 -145h-76l-66 145h69z" />
    <glyph glyph-name="dcaron" unicode="&#x10f;" horiz-adv-x="681" 
d="M408 75h-1q-67 -86 -174 -86q-87 0 -137.5 54.5t-50.5 144.5q0 120 73 208q74 89 191 89q105 0 147 -83l34 217q3 22 3 38l-3 33h94q3 -11 3 -32q0 -25 -4 -46l-86 -542q-2 -18 -2 -37l3 -33h-91q-3 10 -3 32q0 28 4 43zM437 275q0 59 -32 94.5t-89 35.5q-77 0 -126 -61
q-48 -62 -48 -141q0 -59 32.5 -95t88.5 -36q78 0 126 61t48 142zM596 476l100 214h95l-120 -214h-75z" />
    <glyph glyph-name="Dcroat" unicode="&#x110;" horiz-adv-x="665" 
d="M664 409q0 -175 -118 -292q-117 -117 -294 -117h-200l52 324h-63l12 74h62l47 292h200q134 0 218 -75q84 -74 84 -206zM566 395q0 98 -58.5 154t-158.5 56h-106l-33 -207h168l-11 -73h-168l-38 -239h106q127 0 213 89q86 91 86 220z" />
    <glyph glyph-name="dslash" unicode="&#x111;" horiz-adv-x="579" 
d="M408 75h-1q-67 -86 -174 -86q-87 0 -137.5 54.5t-50.5 144.5q0 120 73 208q74 89 191 89q105 0 147 -83l23 151h-192l13 80h192q1 6 1 24l-3 33h94q3 -11 3 -32q0 -19 -1 -25h66l-13 -80h-66l-76 -483q-2 -18 -2 -37l3 -33h-91q-3 10 -3 32q0 28 4 43zM437 275
q0 59 -32 94.5t-89 35.5q-77 0 -126 -61q-48 -62 -48 -141q0 -59 32.5 -95t88.5 -36q78 0 126 61t48 142z" />
    <glyph glyph-name="Emacron" unicode="&#x112;" horiz-adv-x="515" 
d="M52 0l110 690h389l-13 -83h-295l-32 -203h279l-14 -83h-278l-38 -237h303l-13 -84h-398zM234 786l9 55h250l-8 -55h-251z" />
    <glyph glyph-name="emacron" unicode="&#x113;" horiz-adv-x="523" 
d="M509 357q0 -13 -5.5 -29.5t-22.5 -39t-43.5 -41t-74.5 -31.5t-110 -13q-50 0 -113 9q-1 -5 -1 -18q0 -59 33.5 -93.5t92.5 -34.5q74 0 162 55l30 -57q-87 -75 -215 -75q-91 0 -144 53.5t-53 144.5q0 121 87 210q88 88 215 88q72 0 117 -35.5t45 -92.5zM420 357
q0 25 -23.5 42t-61.5 17q-65 0 -115 -37.5t-68 -98.5q36 -6 79 -6q76 0 133 20q56 21 56 63zM182 572l9 55h250l-8 -55h-251z" />
    <glyph glyph-name="Ebreve" unicode="&#x114;" horiz-adv-x="515" 
d="M52 0l110 690h389l-13 -83h-295l-32 -203h279l-14 -83h-278l-38 -237h303l-13 -84h-398zM468 893h48q-17 -59 -59.5 -91t-103.5 -32q-60 0 -93 31.5t-32 91.5h49q4 -64 85 -64t106 64z" />
    <glyph glyph-name="ebreve" unicode="&#x115;" horiz-adv-x="523" 
d="M509 357q0 -13 -5.5 -29.5t-22.5 -39t-43.5 -41t-74.5 -31.5t-110 -13q-50 0 -113 9q-1 -5 -1 -18q0 -59 33.5 -93.5t92.5 -34.5q74 0 162 55l30 -57q-87 -75 -215 -75q-91 0 -144 53.5t-53 144.5q0 121 87 210q88 88 215 88q72 0 117 -35.5t45 -92.5zM420 357
q0 25 -23.5 42t-61.5 17q-65 0 -115 -37.5t-68 -98.5q36 -6 79 -6q76 0 133 20q56 21 56 63zM430 679h48q-17 -59 -59.5 -91t-103.5 -32q-60 0 -93 31.5t-32 91.5h49q4 -64 85 -64t106 64z" />
    <glyph glyph-name="Edotaccent" unicode="&#x116;" horiz-adv-x="515" 
d="M52 0l110 690h389l-13 -83h-295l-32 -203h279l-14 -83h-278l-38 -237h303l-13 -84h-398zM422 842q0 -25 -18.5 -44t-43.5 -19q-20 0 -32 12.5t-12 31.5q0 25 18 43.5t43 18.5q20 0 32.5 -12t12.5 -31z" />
    <glyph glyph-name="edotaccent" unicode="&#x117;" horiz-adv-x="523" 
d="M509 357q0 -13 -5.5 -29.5t-22.5 -39t-43.5 -41t-74.5 -31.5t-110 -13q-50 0 -113 9q-1 -5 -1 -18q0 -59 33.5 -93.5t92.5 -34.5q74 0 162 55l30 -57q-87 -75 -215 -75q-91 0 -144 53.5t-53 144.5q0 121 87 210q88 88 215 88q72 0 117 -35.5t45 -92.5zM420 357
q0 25 -23.5 42t-61.5 17q-65 0 -115 -37.5t-68 -98.5q36 -6 79 -6q76 0 133 20q56 21 56 63zM381 628q0 -25 -18.5 -44t-43.5 -19q-19 0 -31.5 12.5t-12.5 31.5q0 25 18 43.5t43 18.5q20 0 32.5 -12t12.5 -31z" />
    <glyph glyph-name="Eogonek" unicode="&#x118;" horiz-adv-x="515" 
d="M429 -130l11 -33q-52 -43 -108 -43q-38 0 -63 19.5t-25 54.5q0 71 91 132h-283l110 690h389l-13 -83h-295l-32 -203h279l-14 -83h-278l-38 -237h303l-13 -84h-48q-31 -16 -62 -49q-29 -32 -29 -63q0 -19 13.5 -29.5t34.5 -10.5q33 0 70 22z" />
    <glyph glyph-name="eogonek" unicode="&#x119;" horiz-adv-x="523" 
d="M416 -109l11 -33q-52 -43 -108 -43q-38 0 -63 19.5t-25 54.5q0 54 53 102q-38 -2 -42 -2q-91 0 -144 53.5t-53 144.5q0 121 87 210q88 88 215 88q72 0 117 -35.5t45 -92.5q0 -13 -5.5 -29.5t-22.5 -39t-43.5 -41t-74.5 -31.5t-110 -13q-50 0 -113 9q-1 -5 -1 -18
q0 -59 33.5 -93.5t92.5 -34.5q74 0 162 55l30 -57q-29 -27 -75 -47q-33 -19 -58.5 -49.5t-25.5 -58.5q0 -19 13.5 -29.5t34.5 -10.5q33 0 70 22zM420 357q0 25 -23.5 42t-61.5 17q-65 0 -115 -37.5t-68 -98.5q36 -6 79 -6q76 0 133 20q56 21 56 63z" />
    <glyph glyph-name="Ecaron" unicode="&#x11a;" horiz-adv-x="515" 
d="M52 0l110 690h389l-13 -83h-295l-32 -203h279l-14 -83h-278l-38 -237h303l-13 -84h-398zM359 806l73 98h69l-112 -145h-76l-66 145h69z" />
    <glyph glyph-name="ecaron" unicode="&#x11b;" horiz-adv-x="523" 
d="M509 357q0 -13 -5.5 -29.5t-22.5 -39t-43.5 -41t-74.5 -31.5t-110 -13q-50 0 -113 9q-1 -5 -1 -18q0 -59 33.5 -93.5t92.5 -34.5q74 0 162 55l30 -57q-87 -75 -215 -75q-91 0 -144 53.5t-53 144.5q0 121 87 210q88 88 215 88q72 0 117 -35.5t45 -92.5zM420 357
q0 25 -23.5 42t-61.5 17q-65 0 -115 -37.5t-68 -98.5q36 -6 79 -6q76 0 133 20q56 21 56 63zM307 592l73 98h69l-112 -145h-76l-66 145h69z" />
    <glyph glyph-name="Gcircumflex" unicode="&#x11c;" horiz-adv-x="725" 
d="M713 579l-74 -62q-66 99 -189 99q-127 0 -208 -99q-80 -98 -80 -228q0 -97 56.5 -155.5t151.5 -58.5q53 0 109 15t86 47l24 152h-178l13 80h271l-43 -269q-130 -112 -301 -112q-128 0 -208 80q-79 79 -79 209q0 111 50 208q49 97 142 156q94 59 207 59q165 0 250 -121z
M417 904h76l66 -145h-69l-42 98l-74 -98h-69z" />
    <glyph glyph-name="gcircumflex" unicode="&#x11d;" horiz-adv-x="575" 
d="M550 403l-48 -303q-23 -141 -92 -218q-70 -78 -208 -78q-113 0 -194 72l53 66q26 -27 69.5 -43.5t84.5 -16.5q97 0 140 61q39 54 52 147h-1q-64 -84 -173 -84q-83 0 -136 53q-51 53 -51 138q0 115 74 201t189 86q50 0 89.5 -21.5t57.5 -62.5h1q8 46 21 68l4 8h91
q-15 -26 -23 -73zM438 279q0 57 -32.5 91.5t-89.5 34.5q-77 0 -125 -58q-47 -58 -47 -136q0 -58 32 -92t89 -34q77 0 125 58t48 136zM294 690h76l66 -145h-69l-42 98l-74 -98h-69z" />
    <glyph glyph-name="Gbreve" unicode="&#x11e;" horiz-adv-x="725" 
d="M713 579l-74 -62q-66 99 -189 99q-127 0 -208 -99q-80 -98 -80 -228q0 -97 56.5 -155.5t151.5 -58.5q53 0 109 15t86 47l24 152h-178l13 80h271l-43 -269q-130 -112 -301 -112q-128 0 -208 80q-79 79 -79 209q0 111 50 208q49 97 142 156q94 59 207 59q165 0 250 -121z
M538 893h48q-17 -59 -59.5 -91t-103.5 -32q-60 0 -93 31.5t-32 91.5h49q4 -64 85 -64t106 64z" />
    <glyph glyph-name="gbreve" unicode="&#x11f;" horiz-adv-x="575" 
d="M550 403l-48 -303q-23 -141 -92 -218q-70 -78 -208 -78q-113 0 -194 72l53 66q26 -27 69.5 -43.5t84.5 -16.5q97 0 140 61q39 54 52 147h-1q-64 -84 -173 -84q-83 0 -136 53q-51 53 -51 138q0 115 74 201t189 86q50 0 89.5 -21.5t57.5 -62.5h1q8 46 21 68l4 8h91
q-15 -26 -23 -73zM438 279q0 57 -32.5 91.5t-89.5 34.5q-77 0 -125 -58q-47 -58 -47 -136q0 -58 32 -92t89 -34q77 0 125 58t48 136zM416 679h48q-17 -59 -59.5 -91t-103.5 -32q-60 0 -93 31.5t-32 91.5h49q4 -64 85 -64t106 64z" />
    <glyph glyph-name="Gdotaccent" unicode="&#x120;" horiz-adv-x="725" 
d="M713 579l-74 -62q-66 99 -189 99q-127 0 -208 -99q-80 -98 -80 -228q0 -97 56.5 -155.5t151.5 -58.5q53 0 109 15t86 47l24 152h-178l13 80h271l-43 -269q-130 -112 -301 -112q-128 0 -208 80q-79 79 -79 209q0 111 50 208q49 97 142 156q94 59 207 59q165 0 250 -121z
M494 842q0 -25 -18.5 -44t-43.5 -19q-20 0 -32 12.5t-12 31.5q0 25 18 43.5t43 18.5q20 0 32.5 -12t12.5 -31z" />
    <glyph glyph-name="gdotaccent" unicode="&#x121;" horiz-adv-x="575" 
d="M550 403l-48 -303q-23 -141 -92 -218q-70 -78 -208 -78q-113 0 -194 72l53 66q26 -27 69.5 -43.5t84.5 -16.5q97 0 140 61q39 54 52 147h-1q-64 -84 -173 -84q-83 0 -136 53q-51 53 -51 138q0 115 74 201t189 86q50 0 89.5 -21.5t57.5 -62.5h1q8 46 21 68l4 8h91
q-15 -26 -23 -73zM438 279q0 57 -32.5 91.5t-89.5 34.5q-77 0 -125 -58q-47 -58 -47 -136q0 -58 32 -92t89 -34q77 0 125 58t48 136zM373 628q0 -25 -18.5 -44t-43.5 -19q-19 0 -31.5 12.5t-12.5 31.5q0 25 18 43.5t43 18.5q20 0 32.5 -12t12.5 -31z" />
    <glyph glyph-name="Gcommaaccent" unicode="&#x122;" horiz-adv-x="725" 
d="M713 579l-74 -62q-66 99 -189 99q-127 0 -208 -99q-80 -98 -80 -228q0 -97 56.5 -155.5t151.5 -58.5q53 0 109 15t86 47l24 152h-178l13 80h271l-43 -269q-130 -112 -301 -112q-128 0 -208 80q-79 79 -79 209q0 111 50 208q49 97 142 156q94 59 207 59q165 0 250 -121z
M421 -50l-86 -140h-71l59 140h98z" />
    <glyph glyph-name="gcommaaccent" unicode="&#x123;" horiz-adv-x="575" 
d="M550 403l-48 -303q-23 -141 -92 -218q-70 -78 -208 -78q-113 0 -194 72l53 66q26 -27 69.5 -43.5t84.5 -16.5q97 0 140 61q39 54 52 147h-1q-64 -84 -173 -84q-83 0 -136 53q-51 53 -51 138q0 115 74 201t189 86q50 0 89.5 -21.5t57.5 -62.5h1q8 46 21 68l4 8h91
q-15 -26 -23 -73zM438 279q0 57 -32.5 91.5t-89.5 34.5q-77 0 -125 -58q-47 -58 -47 -136q0 -58 32 -92t89 -34q77 0 125 58t48 136zM262 576l86 140h71l-59 -140h-98z" />
    <glyph glyph-name="Hcircumflex" unicode="&#x124;" horiz-adv-x="692" 
d="M562 406l45 284h95l-109 -690h-95l51 322h-351l-51 -322h-95l110 690h95l-45 -284h350zM414 904h76l66 -145h-69l-42 98l-74 -98h-69z" />
    <glyph glyph-name="hcircumflex" unicode="&#x125;" horiz-adv-x="532" 
d="M238 612l-34 -211q27 39 68 61.5t86 22.5q138 0 138 -136q0 -33 -6 -66l-34 -213q-2 -18 -2 -37l3 -33h-94q-3 10 -3 32q0 25 4 45l30 192q5 32 5 52q0 82 -77 82q-64 0 -98 -49q-36 -52 -46 -119l-37 -235h-94l98 619q3 23 3 38l-3 33h94q3 -11 3 -32q0 -25 -4 -46z
M188 908h76l66 -145h-69l-42 98l-74 -98h-69z" />
    <glyph glyph-name="Hbar" unicode="&#x126;" horiz-adv-x="692" 
d="M676 525l-83 -525h-95l51 322h-351l-51 -322h-95l83 525h-70l12 75h71l14 90h95l-14 -90h350l13 90h97l-15 -90h73l-12 -75h-73zM212 406h349l20 119h-350z" />
    <glyph glyph-name="hbar" unicode="&#x127;" horiz-adv-x="532" 
d="M134 553h-66l13 80h66q1 6 1 24l-3 33h94q3 -11 3 -32q0 -19 -1 -25h192l-13 -80h-192l-24 -152q27 39 68 61.5t86 22.5q138 0 138 -136q0 -33 -6 -66l-34 -213q-2 -18 -2 -37l3 -33h-94q-3 10 -3 32q0 25 4 45l30 192q5 32 5 52q0 82 -77 82q-64 0 -98 -49
q-36 -52 -46 -119l-37 -235h-94z" />
    <glyph glyph-name="Itilde" unicode="&#x128;" horiz-adv-x="242" 
d="M339 884l45 -11q-9 -38 -38 -65t-66 -27q-31 0 -66 23t-51 23q-35 0 -48 -42l-45 10q9 39 38.5 66t65.5 27q31 0 66 -23t51 -23q35 0 48 42zM52 0l110 690h95l-110 -690h-95z" />
    <glyph glyph-name="itilde" unicode="&#x129;" horiz-adv-x="228" 
d="M203 398l-52 -328q-2 -18 -2 -37l3 -33h-95q-3 10 -3 32q0 25 4 45l53 328q3 23 3 38l-3 33h93q3 -10 3 -32q0 -25 -4 -46zM284 670l45 -11q-9 -38 -38 -65t-66 -27q-31 0 -66 23t-51 23q-34 0 -48 -42l-45 10q9 39 38.5 66t65.5 27q30 0 65 -23t52 -23q34 0 48 42z" />
    <glyph glyph-name="Imacron" unicode="&#x12a;" horiz-adv-x="242" 
d="M52 0l110 690h95l-110 -690h-95zM87 786l9 55h250l-8 -55h-251z" />
    <glyph glyph-name="imacron" unicode="&#x12b;" horiz-adv-x="228" 
d="M203 398l-52 -328q-2 -18 -2 -37l3 -33h-95q-3 10 -3 32q0 25 4 45l53 328q3 23 3 38l-3 33h93q3 -10 3 -32q0 -25 -4 -46zM35 572l9 55h250l-8 -55h-251z" />
    <glyph glyph-name="Ibreve" unicode="&#x12c;" horiz-adv-x="242" 
d="M52 0l110 690h95l-110 -690h-95zM321 893h48q-17 -59 -59.5 -91t-103.5 -32q-60 0 -93 31.5t-32 91.5h49q4 -64 85 -64t106 64z" />
    <glyph glyph-name="ibreve" unicode="&#x12d;" horiz-adv-x="228" 
d="M204 398l-52 -328q-2 -18 -2 -37l3 -33h-95q-3 10 -3 32q0 25 4 45l53 328q3 23 3 38l-3 33h93q3 -10 3 -32q0 -25 -4 -46zM274 679h48q-17 -59 -59.5 -91t-103.5 -32q-60 0 -93 31.5t-32 91.5h49q4 -64 85 -64t106 64z" />
    <glyph glyph-name="Iogonek" unicode="&#x12e;" horiz-adv-x="242" 
d="M169 -129l11 -33q-52 -43 -108 -43q-38 0 -63 19.5t-25 54.5q0 69 89 131h-21l110 690h95l-110 -690h-7q-32 -17 -61 -49q-28 -31 -28 -62q0 -19 13.5 -29.5t34.5 -10.5q33 0 70 22z" />
    <glyph glyph-name="iogonek" unicode="&#x12f;" horiz-adv-x="228" 
d="M153 -130l11 -33q-52 -43 -108 -43q-38 0 -63 19.5t-25 54.5q0 70 89 132q-3 10 -3 32q0 25 4 45l53 328q3 23 3 38l-3 33h93q3 -10 3 -32q0 -25 -4 -46l-52 -328q-2 -18 -2 -37l3 -33q-49 -8 -83 -42t-34 -70q0 -19 13.5 -29.5t34.5 -10.5q33 0 70 22zM254 640
q0 -29 -21 -49.5t-50 -20.5q-22 0 -37 13.5t-15 36.5q0 28 21 49t50 21q23 0 37.5 -13.5t14.5 -36.5z" />
    <glyph glyph-name="Idot" unicode="&#x130;" horiz-adv-x="242" 
d="M52 0l110 690h95l-110 -690h-95zM283 842q0 -25 -18.5 -44t-43.5 -19q-19 0 -31.5 12.5t-12.5 31.5q0 25 18 43.5t43 18.5q20 0 32.5 -12t12.5 -31z" />
    <glyph glyph-name="dotlessi" unicode="&#x131;" horiz-adv-x="228" 
d="M203 398l-52 -328q-2 -18 -2 -37l3 -33h-95q-3 10 -3 32q0 25 4 45l53 328q3 23 3 38l-3 33h93q3 -10 3 -32q0 -25 -4 -46z" />
    <glyph glyph-name="IJ" unicode="&#x132;" horiz-adv-x="484" 
d="M294 -1l110 691h94l-108 -687q-11 -76 -46 -136q-37 -67 -124 -67q-46 0 -71 12l14 77q18 -9 51 -9q43 0 60 44q13 30 20 75zM52 0l110 690h95l-110 -690h-95z" />
    <glyph glyph-name="ij" unicode="&#x133;" horiz-adv-x="456" 
d="M254 640q0 -29 -21 -49.5t-50 -20.5q-22 0 -37 13.5t-15 36.5q0 28 21 49t50 21q23 0 37.5 -13.5t14.5 -36.5zM203 398l-52 -328q-2 -18 -2 -37l3 -33h-95q-3 10 -3 32q0 25 4 45l53 328q3 23 3 38l-3 33h93q3 -10 3 -32q0 -25 -4 -46zM432 404l-64 -405
q-13 -81 -49 -133q-39 -62 -126 -62q-39 0 -58 8l13 78q52 -17 82 4q16 10 25 31q14 32 20 77l63 397q7 40 20 69l5 9h92q-15 -26 -23 -73zM482 640q0 -29 -21 -49.5t-50 -20.5q-22 0 -37 14t-15 35q0 29 21 50t50 21q23 0 37.5 -13.5t14.5 -36.5z" />
    <glyph glyph-name="Jcircumflex" unicode="&#x134;" horiz-adv-x="242" 
d="M52 -1l110 691h94l-108 -687q-11 -76 -46 -136q-37 -67 -124 -67q-46 0 -71 12l14 77q18 -9 51 -9q43 0 60 44q13 30 20 75zM202 904h76l66 -145h-69l-42 98l-74 -98h-69z" />
    <glyph glyph-name="jcircumflex" unicode="&#x135;" horiz-adv-x="228" 
d="M168 690h76l66 -145h-69l-42 98l-74 -98h-69zM204 404l-64 -405q-13 -81 -49 -133q-39 -62 -126 -62q-39 0 -58 8l13 78q52 -17 82 4q16 10 25 31q14 32 20 77l63 397q7 40 20 69l5 9h92q-15 -26 -23 -73z" />
    <glyph glyph-name="Kcommaaccent" unicode="&#x136;" horiz-adv-x="561" 
d="M210 398l314 292h117l-297 -272l205 -418h-115l-166 345l-78 -71l-43 -274h-95l110 690h94zM339 -50l-86 -140h-71l59 140h98z" />
    <glyph glyph-name="kcommaaccent" unicode="&#x137;" horiz-adv-x="473" 
d="M237 612l-51 -324l215 188h110l-208 -180l155 -296h-110l-120 229l-59 -51l-28 -178h-94l98 619q3 23 3 38l-3 33h93q3 -11 3 -32q0 -25 -4 -46zM295 -50l-86 -140h-71l59 140h98z" />
    <glyph glyph-name="kgreenlandic" unicode="&#x138;" horiz-adv-x="469" 
d="M199 398l-17 -110l215 188h110l-208 -180l155 -296h-110l-120 229l-59 -51l-28 -178h-94l64 405q3 23 3 38l-3 33h93q3 -10 3 -32q0 -25 -4 -46z" />
    <glyph glyph-name="Lacute" unicode="&#x139;" horiz-adv-x="413" 
d="M256 690l-96 -605h234l-13 -85h-329l110 690h94zM166 759l109 145h93l-130 -145h-72z" />
    <glyph glyph-name="lacute" unicode="&#x13a;" horiz-adv-x="230" 
d="M238 612l-86 -542q-2 -18 -2 -37l3 -33h-95q-3 10 -3 32q0 25 4 45l86 542q3 23 3 38l-3 33h94q3 -11 3 -32q0 -25 -4 -46zM143 760l109 145h93l-130 -145h-72z" />
    <glyph glyph-name="Lcommaaccent" unicode="&#x13b;" horiz-adv-x="413" 
d="M256 690l-96 -605h234l-13 -85h-329l110 690h94zM281 -50l-86 -140h-71l59 140h98z" />
    <glyph glyph-name="lcommaaccent" unicode="&#x13c;" horiz-adv-x="230" 
d="M238 612l-86 -542q-2 -18 -2 -37l3 -33h-95q-3 10 -3 32q0 25 4 45l86 542q3 23 3 38l-3 33h94q3 -11 3 -32q0 -25 -4 -46zM174 -50l-86 -140h-71l59 140h98z" />
    <glyph glyph-name="Lcaron" unicode="&#x13d;" horiz-adv-x="413" 
d="M256 690l-96 -605h234l-13 -85h-329l110 690h94zM318 475l100 214h95l-120 -214h-75z" />
    <glyph glyph-name="lcaron" unicode="&#x13e;" horiz-adv-x="336" 
d="M238 612l-86 -542q-2 -18 -2 -37l3 -33h-95q-3 10 -3 32q0 25 4 45l86 542q3 23 3 38l-3 33h94q3 -11 3 -32q0 -25 -4 -46zM251 476l100 214h95l-120 -214h-75z" />
    <glyph glyph-name="Ldot" unicode="&#x13f;" horiz-adv-x="413" 
d="M256 690l-96 -605h234l-13 -85h-329l110 690h94zM424 330q0 -31 -21.5 -52.5t-53.5 -21.5q-24 0 -39.5 14t-15.5 37q0 31 22 52.5t53 21.5q24 0 39.5 -14t15.5 -37z" />
    <glyph glyph-name="ldot" unicode="&#x140;" horiz-adv-x="403" 
d="M238 612l-86 -542q-2 -18 -2 -37l3 -33h-95q-3 10 -3 32q0 25 4 45l86 542q3 23 3 38l-3 33h94q3 -11 3 -32q0 -25 -4 -46zM394 300q0 -31 -21.5 -52.5t-53.5 -21.5q-24 0 -39.5 14t-15.5 37q0 31 22 52.5t53 21.5q24 0 39.5 -14t15.5 -37z" />
    <glyph glyph-name="Lslash" unicode="&#x141;" horiz-adv-x="413" 
d="M198 323l-38 -238h234l-13 -85h-329l41 254l-67 -47l13 84l67 47l56 352h94l-45 -283l124 88l-13 -83z" />
    <glyph glyph-name="lslash" unicode="&#x142;" horiz-adv-x="231" 
d="M200 373l-48 -303q-2 -18 -2 -37l3 -33h-95q-3 10 -3 32q0 25 4 45l34 213l-65 -55l14 87l65 55l38 242q3 23 3 38l-3 33h94q3 -11 3 -32q0 -25 -4 -46l-24 -152l65 56l-13 -87z" />
    <glyph glyph-name="Nacute" unicode="&#x143;" horiz-adv-x="717" 
d="M634 690h93l-109 -690h-93l-294 546l-85 -546h-94l110 690h99l288 -539q32 212 85 539zM382 759l109 145h93l-130 -145h-72z" />
    <glyph glyph-name="nacute" unicode="&#x144;" horiz-adv-x="524" 
d="M485 281l-33 -211q-2 -18 -2 -37l3 -33h-95q-3 10 -3 32q0 25 4 45l30 188q5 35 5 56q0 82 -78 82q-113 0 -142 -164l-38 -239h-93l64 405q3 23 3 38l-3 33h93q7 -26 -1 -76h1q27 39 68 61.5t86 22.5q137 0 137 -138q0 -32 -6 -65zM238 545l109 145h93l-130 -145h-72z
" />
    <glyph glyph-name="Ncommaaccent" unicode="&#x145;" horiz-adv-x="717" 
d="M634 690h93l-109 -690h-93l-294 546l-85 -546h-94l110 690h99l288 -539q32 212 85 539zM396 -50l-86 -140h-71l59 140h98z" />
    <glyph glyph-name="ncommaaccent" unicode="&#x146;" horiz-adv-x="524" 
d="M485 281l-33 -211q-2 -18 -2 -37l3 -33h-95q-3 10 -3 32q0 25 4 45l30 188q5 35 5 56q0 82 -78 82q-113 0 -142 -164l-38 -239h-93l64 405q3 23 3 38l-3 33h93q7 -26 -1 -76h1q27 39 68 61.5t86 22.5q137 0 137 -138q0 -32 -6 -65zM300 -50l-86 -140h-71l59 140h98z" />
    <glyph glyph-name="Ncaron" unicode="&#x147;" horiz-adv-x="717" 
d="M634 690h93l-109 -690h-93l-294 546l-85 -546h-94l110 690h99l288 -539q32 212 85 539zM457 806l73 98h69l-112 -145h-76l-66 145h69z" />
    <glyph glyph-name="ncaron" unicode="&#x148;" horiz-adv-x="524" 
d="M485 281l-33 -211q-2 -18 -2 -37l3 -33h-95q-3 10 -3 32q0 25 4 45l30 188q5 35 5 56q0 82 -78 82q-113 0 -142 -164l-38 -239h-93l64 405q3 23 3 38l-3 33h93q7 -26 -1 -76h1q27 39 68 61.5t86 22.5q137 0 137 -138q0 -32 -6 -65zM309 592l73 98h69l-112 -145h-76
l-66 145h69z" />
    <glyph glyph-name="Eng" unicode="&#x14a;" horiz-adv-x="717" 
d="M547 153l86 537h94l-108 -687q-11 -76 -46 -136q-37 -67 -124 -67q-45 0 -71 12l14 77q18 -9 51 -9q43 0 60 44q13 30 20 78l-292 544l-85 -546h-94l110 690h99z" />
    <glyph glyph-name="eng" unicode="&#x14b;" horiz-adv-x="524" 
d="M485 281l-44 -282q-13 -81 -49 -133q-39 -62 -126 -62q-39 0 -58 8l13 78q52 -17 82 4q16 10 25 31q14 32 20 77l41 263q5 35 5 56q0 82 -78 82q-113 0 -142 -164l-38 -239h-93l64 405q3 23 3 38l-3 33h93q7 -26 -1 -76h1q27 39 68 61.5t86 22.5q137 0 137 -138
q0 -22 -6 -65z" />
    <glyph glyph-name="Omacron" unicode="&#x14c;" horiz-adv-x="762" 
d="M760 412q0 -175 -115 -299q-116 -125 -289 -125q-130 0 -212 79q-81 79 -81 209q0 175 115 299q116 125 290 125q132 0 211 -79q81 -79 81 -209zM662 400q0 96 -57 155q-55 60 -150 60q-126 0 -210 -97q-83 -98 -83 -225q0 -95 56 -156q57 -59 152 -59q126 0 209 96
q83 98 83 226zM336 786l9 55h250l-8 -55h-251z" />
    <glyph glyph-name="omacron" unicode="&#x14d;" horiz-adv-x="554" 
d="M538 281q0 -121 -82 -206q-81 -86 -203 -86q-92 0 -150 55t-58 147q0 122 82 207q83 86 204 86q91 0 149 -56q58 -55 58 -147zM442 273q0 59 -33.5 95.5t-90.5 36.5q-77 0 -126 -61q-50 -62 -50 -139q0 -60 33.5 -96.5t90.5 -36.5q77 0 126 61q50 62 50 140zM194 572
l9 55h250l-8 -55h-251z" />
    <glyph glyph-name="Obreve" unicode="&#x14e;" horiz-adv-x="762" 
d="M760 412q0 -175 -115 -299q-116 -125 -289 -125q-130 0 -212 79q-81 79 -81 209q0 175 115 299q116 125 290 125q132 0 211 -79q81 -79 81 -209zM662 400q0 96 -57 155q-55 60 -150 60q-126 0 -210 -97q-83 -98 -83 -225q0 -95 56 -156q57 -59 152 -59q126 0 209 96
q83 98 83 226zM559 893h48q-17 -59 -59.5 -91t-103.5 -32q-60 0 -93 31.5t-32 91.5h49q4 -64 85 -64t106 64z" />
    <glyph glyph-name="obreve" unicode="&#x14f;" horiz-adv-x="554" 
d="M538 281q0 -121 -82 -206q-81 -86 -203 -86q-92 0 -150 55t-58 147q0 122 82 207q83 86 204 86q91 0 149 -56q58 -55 58 -147zM442 273q0 59 -33.5 95.5t-90.5 36.5q-77 0 -126 -61q-50 -62 -50 -139q0 -60 33.5 -96.5t90.5 -36.5q77 0 126 61q50 62 50 140zM428 679h48
q-17 -59 -59.5 -91t-103.5 -32q-60 0 -93 31.5t-32 91.5h49q4 -64 85 -64t106 64z" />
    <glyph glyph-name="Ohungarumlaut" unicode="&#x150;" horiz-adv-x="762" 
d="M760 412q0 -175 -115 -299q-116 -125 -289 -125q-130 0 -212 79q-81 79 -81 209q0 175 115 299q116 125 290 125q132 0 211 -79q81 -79 81 -209zM662 400q0 96 -57 155q-55 60 -150 60q-126 0 -210 -97q-83 -98 -83 -225q0 -95 56 -156q57 -59 152 -59q126 0 209 96
q83 98 83 226zM447 759l110 145h92l-132 -145h-70zM315 759l110 145h92l-132 -145h-70z" />
    <glyph glyph-name="ohungarumlaut" unicode="&#x151;" horiz-adv-x="554" 
d="M538 281q0 -121 -82 -206q-81 -86 -203 -86q-92 0 -150 55t-58 147q0 122 82 207q83 86 204 86q91 0 149 -56q58 -55 58 -147zM442 273q0 59 -33.5 95.5t-90.5 36.5q-77 0 -126 -61q-50 -62 -50 -139q0 -60 33.5 -96.5t90.5 -36.5q77 0 126 61q50 62 50 140zM310 545
l110 145h92l-132 -145h-70zM178 545l110 145h92l-132 -145h-70z" />
    <glyph glyph-name="OE" unicode="&#x152;" horiz-adv-x="962" 
d="M630 653l6 37h358l-13 -83h-267l-33 -203h251l-13 -83h-251l-37 -238h275l-14 -83h-365l6 36q-79 -48 -181 -48q-130 0 -209 79q-80 80 -80 209q0 172 114 298q115 126 288 126q98 0 165 -47zM545 139l65 415q-57 61 -159 61q-124 0 -207 -98q-82 -97 -82 -225
q0 -95 55 -154q55 -60 149 -60q102 0 179 61z" />
    <glyph glyph-name="oe" unicode="&#x153;" horiz-adv-x="914" 
d="M900 357q0 -13 -5.5 -29.5t-22.5 -39t-43.5 -41t-74.5 -31.5t-110 -13q-50 0 -113 9q-1 -5 -1 -18q0 -59 33.5 -93.5t92.5 -34.5q74 0 162 55l30 -57q-87 -75 -215 -75q-123 0 -172 91q-82 -91 -208 -91q-92 0 -150 55t-58 147q0 122 82 207q83 86 204 86q61 0 108.5 -26
t73.5 -73q90 100 225 100q72 0 117 -35.5t45 -92.5zM442 273q0 59 -33.5 95.5t-90.5 36.5q-77 0 -126 -61q-50 -62 -50 -139q0 -60 33.5 -96.5t90.5 -36.5q77 0 126 61q50 62 50 140zM811 357q0 25 -23.5 42t-61.5 17q-65 0 -115 -37.5t-68 -98.5q36 -6 79 -6q76 0 133 20
q56 21 56 63z" />
    <glyph glyph-name="Racute" unicode="&#x154;" horiz-adv-x="524" 
d="M546 531q0 -88 -48.5 -148t-133.5 -76l140 -307h-115l-126 297h-69l-47 -297h-95l110 690h188q89 0 142.5 -40.5t53.5 -118.5zM448 518q0 91 -130 91h-75l-36 -231h74q78 0 122.5 35t44.5 105zM268 759l109 145h93l-130 -145h-72z" />
    <glyph glyph-name="racute" unicode="&#x155;" 
d="M374 476l-20 -90h-5q-17 9 -48 9q-55 0 -86 -48q-30 -44 -41 -109l-38 -238h-93l64 406q2 18 2 37l-3 33h94q7 -27 -1 -74h1q46 82 127 82q31 0 47 -8zM175 545l109 145h93l-130 -145h-72z" />
    <glyph glyph-name="Rcommaaccent" unicode="&#x156;" horiz-adv-x="524" 
d="M546 531q0 -88 -48.5 -148t-133.5 -76l140 -307h-115l-126 297h-69l-47 -297h-95l110 690h188q89 0 142.5 -40.5t53.5 -118.5zM448 518q0 91 -130 91h-75l-36 -231h74q78 0 122.5 35t44.5 105zM320 -50l-86 -140h-71l59 140h98z" />
    <glyph glyph-name="rcommaaccent" unicode="&#x157;" 
d="M374 476l-20 -90h-5q-17 9 -48 9q-55 0 -86 -48q-30 -44 -41 -109l-38 -238h-93l64 406q2 18 2 37l-3 33h94q7 -27 -1 -74h1q46 82 127 82q31 0 47 -8zM172 -50l-86 -140h-71l59 140h98z" />
    <glyph glyph-name="Rcaron" unicode="&#x158;" horiz-adv-x="524" 
d="M546 531q0 -88 -48.5 -148t-133.5 -76l140 -307h-115l-126 297h-69l-47 -297h-95l110 690h188q89 0 142.5 -40.5t53.5 -118.5zM448 518q0 91 -130 91h-75l-36 -231h74q78 0 122.5 35t44.5 105zM345 806l73 98h69l-112 -145h-76l-66 145h69z" />
    <glyph glyph-name="rcaron" unicode="&#x159;" 
d="M374 476l-20 -90h-5q-17 9 -48 9q-55 0 -86 -48q-30 -44 -41 -109l-38 -238h-93l64 406q2 18 2 37l-3 33h94q7 -27 -1 -74h1q46 82 127 82q31 0 47 -8zM228 592l73 98h69l-112 -145h-76l-66 145h69z" />
    <glyph glyph-name="Sacute" unicode="&#x15a;" horiz-adv-x="518" 
d="M542 611l-56 -64q-59 71 -138 71q-56 0 -93 -31t-37 -83q0 -60 96 -102q31 -12 50 -20.5t46.5 -25t43 -33.5t27 -43.5t11.5 -57.5q0 -102 -79 -168t-185 -66q-122 0 -200 118l62 63q24 -43 67 -70t90 -27q59 0 102 36q45 36 45 94q0 16 -6.5 30t-13 22.5t-24.5 20
t-26.5 15.5l-34 16t-32.5 15q-65 28 -100.5 62t-36.5 96q0 99 72 160q71 61 175 61q105 0 175 -89zM271 759l109 145h93l-130 -145h-72z" />
    <glyph glyph-name="sacute" unicode="&#x15b;" horiz-adv-x="402" 
d="M404 418l-50 -54q-42 49 -103 49q-36 0 -60 -17t-24 -49q0 -20 21.5 -34.5t52 -25.5t61 -24.5t52 -39.5t21.5 -63q0 -77 -59 -124t-140 -47q-53 0 -97.5 22.5t-68.5 63.5l53 55q18 -29 53 -47.5t72 -18.5q42 0 70 20t28 56q0 23 -21 38.5t-51.5 26.5t-61 23.5t-51.5 37
t-21 59.5q0 71 52 114q52 45 125 45q93 0 147 -66zM170 545l109 145h93l-130 -145h-72z" />
    <glyph glyph-name="Scircumflex" unicode="&#x15c;" horiz-adv-x="518" 
d="M542 611l-56 -64q-59 71 -138 71q-56 0 -93 -31t-37 -83q0 -60 96 -102q31 -12 50 -20.5t46.5 -25t43 -33.5t27 -43.5t11.5 -57.5q0 -102 -79 -168t-185 -66q-122 0 -200 118l62 63q24 -43 67 -70t90 -27q59 0 102 36q45 36 45 94q0 16 -6.5 30t-13 22.5t-24.5 20
t-26.5 15.5l-34 16t-32.5 15q-65 28 -100.5 62t-36.5 96q0 99 72 160q71 61 175 61q105 0 175 -89zM319 904h76l66 -145h-69l-42 98l-74 -98h-69z" />
    <glyph glyph-name="scircumflex" unicode="&#x15d;" horiz-adv-x="402" 
d="M404 418l-50 -54q-42 49 -103 49q-36 0 -60 -17t-24 -49q0 -20 21.5 -34.5t52 -25.5t61 -24.5t52 -39.5t21.5 -63q0 -77 -59 -124t-140 -47q-53 0 -97.5 22.5t-68.5 63.5l53 55q18 -29 53 -47.5t72 -18.5q42 0 70 20t28 56q0 23 -21 38.5t-51.5 26.5t-61 23.5t-51.5 37
t-21 59.5q0 71 52 114q52 45 125 45q93 0 147 -66zM229 690h76l66 -145h-69l-42 98l-74 -98h-69z" />
    <glyph glyph-name="Scedilla" unicode="&#x15e;" horiz-adv-x="518" 
d="M542 611l-56 -64q-59 71 -138 71q-56 0 -93 -31t-37 -83q0 -60 96 -102q31 -12 50 -20.5t46.5 -25t43 -33.5t27 -43.5t11.5 -57.5q0 -76 -48 -135.5t-125 -84.5l-97 -138h-86l103 124h-11q-122 0 -200 118l62 63q24 -43 67 -70t90 -27q59 0 102 36q45 36 45 94
q0 16 -6.5 30t-13 22.5t-24.5 20t-26.5 15.5l-34 16t-32.5 15q-65 28 -100.5 62t-36.5 96q0 99 72 160q71 61 175 61q105 0 175 -89z" />
    <glyph glyph-name="scedilla" unicode="&#x15f;" horiz-adv-x="402" 
d="M404 418l-50 -54q-42 49 -103 49q-36 0 -60 -17t-24 -49q0 -20 21.5 -34.5t52 -25.5t61 -24.5t52 -39.5t21.5 -63q0 -54 -30.5 -94.5t-82.5 -61.5l-100 -141h-86l105 126h-5q-53 0 -97.5 22.5t-68.5 63.5l53 55q18 -29 53 -47.5t72 -18.5q42 0 70 20t28 56q0 23 -21 38.5
t-51.5 26.5t-61 23.5t-51.5 37t-21 59.5q0 71 52 114q52 45 125 45q93 0 147 -66z" />
    <glyph glyph-name="Scaron" unicode="&#x160;" horiz-adv-x="518" 
d="M379 789l73 99h70l-112 -147h-77l-65 147h69zM542 611l-56 -64q-59 71 -138 71q-56 0 -93 -31t-37 -83q0 -60 96 -102q31 -12 50 -20.5t46.5 -25t43 -33.5t27 -43.5t11.5 -57.5q0 -102 -79 -168t-185 -66q-122 0 -200 118l62 63q24 -43 67 -70t90 -27q59 0 102 36
q45 36 45 94q0 16 -6.5 30t-13 22.5t-24.5 20t-26.5 15.5l-34 16t-32.5 15q-65 28 -100.5 62t-36.5 96q0 99 72 160q71 61 175 61q105 0 175 -89z" />
    <glyph glyph-name="scaron" unicode="&#x161;" horiz-adv-x="402" 
d="M274 591l73 99h70l-112 -147h-77l-65 147h69zM404 418l-50 -54q-42 49 -103 49q-36 0 -60 -17t-24 -49q0 -20 21.5 -34.5t52 -25.5t61 -24.5t52 -39.5t21.5 -63q0 -77 -59 -124t-140 -47q-53 0 -97.5 22.5t-68.5 63.5l53 55q18 -29 53 -47.5t72 -18.5q42 0 70 20t28 56
q0 23 -21 38.5t-51.5 26.5t-61 23.5t-51.5 37t-21 59.5q0 71 52 114q52 45 125 45q93 0 147 -66z" />
    <glyph glyph-name="Tcommaaccent" unicode="&#x162;" horiz-adv-x="486" 
d="M82 607l14 83h468l-13 -83h-187l-96 -607h-95l96 607h-187zM284 -50l-86 -140h-71l59 140h98z" />
    <glyph glyph-name="tcommaaccent" unicode="&#x163;" horiz-adv-x="302" 
d="M240 538l-10 -63h109l-12 -79h-110q-3 -21 -15 -81q-25 -132 -25 -189q0 -29 9 -41t33 -12q30 0 55 11l-7 -79q-41 -16 -87 -16q-100 0 -100 103q0 47 7 95q9 64 19 117q6 27 17 92h-67l13 79h67l11 70q3 23 3 38l-3 33h94q3 -10 3 -32q0 -25 -4 -46zM229 -50l-86 -140
h-71l59 140h98z" />
    <glyph glyph-name="Tcaron" unicode="&#x164;" horiz-adv-x="486" 
d="M343 806l73 98h69l-112 -145h-76l-66 145h69zM82 607l14 83h468l-13 -83h-187l-96 -607h-95l96 607h-187z" />
    <glyph glyph-name="tcaron" unicode="&#x165;" horiz-adv-x="302" 
d="M240 538l-10 -63h109l-12 -79h-110q-3 -21 -15 -81q-25 -132 -25 -189q0 -29 9 -41t33 -12q30 0 55 11l-7 -79q-41 -16 -87 -16q-100 0 -100 103q0 47 7 95q9 64 19 117q6 27 17 92h-67l13 79h67l11 70q3 23 3 38l-3 33h94q3 -10 3 -32q0 -25 -4 -46zM295 526l100 214h95
l-120 -214h-75z" />
    <glyph glyph-name="Tbar" unicode="&#x166;" horiz-adv-x="486" 
d="M82 607l14 83h468l-13 -83h-187l-29 -180h93l-12 -75h-93l-55 -352h-95l55 352h-91l12 75h91l29 180h-187z" />
    <glyph glyph-name="tbar" unicode="&#x167;" horiz-adv-x="302" 
d="M240 538l-10 -63h109l-12 -79h-110l-13 -72h96l-13 -80h-98q-12 -72 -12 -118q0 -29 9 -41t33 -12q30 0 55 11l-7 -79q-41 -16 -87 -16q-100 0 -100 103q0 63 16 152h-51l13 80h52l13 72h-67l13 79h67l11 70q3 23 3 38l-3 33h94q3 -10 3 -32q0 -25 -4 -46z" />
    <glyph glyph-name="Utilde" unicode="&#x168;" horiz-adv-x="647" 
d="M504 291l63 399h96l-65 -408q-46 -294 -299 -294q-101 0 -158.5 51.5t-57.5 146.5q0 38 9 96l65 408h95l-63 -399q-9 -50 -9 -85q0 -61 35.5 -95.5t97.5 -34.5q96 0 139 66q39 60 52 149zM532 884l45 -11q-9 -38 -38 -65t-66 -27q-31 0 -66 23t-51 23q-34 0 -48 -42
l-45 10q9 39 38.5 66t65.5 27q30 0 65 -23t52 -23q34 0 48 42z" />
    <glyph glyph-name="utilde" unicode="&#x169;" horiz-adv-x="520" 
d="M195 397l-32 -202q-4 -27 -4 -45q0 -79 78 -79q55 0 90.5 42t45.5 108l41 254h93l-64 -405q-2 -18 -2 -37l3 -33h-92q-3 10 -3 32q0 15 2 33q-57 -76 -153 -76q-135 0 -135 135q0 34 6 67l34 213q3 22 3 38l-3 33h93q3 -11 3 -32q0 -25 -4 -46zM433 670l45 -11
q-9 -38 -38 -65t-66 -27q-31 0 -66 23t-51 23q-35 0 -48 -42l-45 10q9 39 38.5 66t65.5 27q31 0 66 -23t51 -23q35 0 48 42z" />
    <glyph glyph-name="Umacron" unicode="&#x16a;" horiz-adv-x="647" 
d="M504 291l63 399h96l-65 -408q-46 -294 -299 -294q-101 0 -158.5 51.5t-57.5 146.5q0 38 9 96l65 408h95l-63 -399q-9 -50 -9 -85q0 -61 35.5 -95.5t97.5 -34.5q96 0 139 66q39 60 52 149zM292 786l9 55h250l-8 -55h-251z" />
    <glyph glyph-name="umacron" unicode="&#x16b;" horiz-adv-x="520" 
d="M195 397l-32 -202q-4 -27 -4 -45q0 -79 78 -79q55 0 90.5 42t45.5 108l41 254h93l-64 -405q-2 -18 -2 -37l3 -33h-92q-3 10 -3 32q0 15 2 33q-57 -76 -153 -76q-135 0 -135 135q0 34 6 67l34 213q3 22 3 38l-3 33h93q3 -11 3 -32q0 -25 -4 -46zM188 572l9 55h250l-8 -55
h-251z" />
    <glyph glyph-name="Ubreve" unicode="&#x16c;" horiz-adv-x="647" 
d="M504 291l63 399h96l-65 -408q-46 -294 -299 -294q-101 0 -158.5 51.5t-57.5 146.5q0 38 9 96l65 408h95l-63 -399q-9 -50 -9 -85q0 -61 35.5 -95.5t97.5 -34.5q96 0 139 66q39 60 52 149zM524 893h48q-17 -59 -59.5 -91t-103.5 -32q-60 0 -93 31.5t-32 91.5h49
q4 -64 85 -64t106 64z" />
    <glyph glyph-name="ubreve" unicode="&#x16d;" horiz-adv-x="520" 
d="M195 397l-32 -202q-4 -27 -4 -45q0 -79 78 -79q55 0 90.5 42t45.5 108l41 254h93l-64 -405q-2 -18 -2 -37l3 -33h-92q-3 10 -3 32q0 15 2 33q-57 -76 -153 -76q-135 0 -135 135q0 34 6 67l34 213q3 22 3 38l-3 33h93q3 -11 3 -32q0 -25 -4 -46zM416 679h48
q-17 -59 -59.5 -91t-103.5 -32q-60 0 -93 31.5t-32 91.5h49q4 -64 85 -64t106 64z" />
    <glyph glyph-name="Uring" unicode="&#x16e;" horiz-adv-x="647" 
d="M504 291l63 399h96l-65 -408q-46 -294 -299 -294q-101 0 -158.5 51.5t-57.5 146.5q0 38 9 96l65 408h95l-63 -399q-9 -50 -9 -85q0 -61 35.5 -95.5t97.5 -34.5q96 0 139 66q39 60 52 149zM517 867q0 -45 -34 -78q-35 -33 -79 -33q-37 0 -60.5 22t-23.5 57q0 45 34 78
q35 33 80 33q36 0 59.5 -22t23.5 -57zM468 860q0 19 -11.5 30.5t-29.5 11.5q-24 0 -41 -18t-17 -42q0 -19 11.5 -30.5t30.5 -11.5q24 0 40.5 18t16.5 42z" />
    <glyph glyph-name="uring" unicode="&#x16f;" horiz-adv-x="520" 
d="M195 397l-32 -202q-4 -27 -4 -45q0 -79 78 -79q55 0 90.5 42t45.5 108l41 254h93l-64 -405q-2 -18 -2 -37l3 -33h-92q-3 10 -3 32q0 15 2 33q-57 -76 -153 -76q-135 0 -135 135q0 34 6 67l34 213q3 22 3 38l-3 33h93q3 -11 3 -32q0 -25 -4 -46zM422 653q0 -45 -34 -78
t-79 -33q-37 0 -60.5 22t-23.5 57q0 45 34 78q35 33 80 33q36 0 59.5 -22t23.5 -57zM373 646q0 19 -11.5 30.5t-29.5 11.5q-24 0 -41 -18t-17 -42q0 -19 11.5 -30.5t30.5 -11.5q24 0 40.5 18t16.5 42z" />
    <glyph glyph-name="Uhungarumlaut" unicode="&#x170;" horiz-adv-x="647" 
d="M504 291l63 399h96l-65 -408q-46 -294 -299 -294q-101 0 -158.5 51.5t-57.5 146.5q0 38 9 96l65 408h95l-63 -399q-9 -50 -9 -85q0 -61 35.5 -95.5t97.5 -34.5q96 0 139 66q39 60 52 149zM420 759l110 145h92l-132 -145h-70zM288 759l110 145h92l-132 -145h-70z" />
    <glyph glyph-name="uhungarumlaut" unicode="&#x171;" horiz-adv-x="520" 
d="M195 397l-32 -202q-4 -27 -4 -45q0 -79 78 -79q55 0 90.5 42t45.5 108l41 254h93l-64 -405q-2 -18 -2 -37l3 -33h-92q-3 10 -3 32q0 15 2 33q-57 -76 -153 -76q-135 0 -135 135q0 34 6 67l34 213q3 22 3 38l-3 33h93q3 -11 3 -32q0 -25 -4 -46zM309 545l110 145h92
l-132 -145h-70zM177 545l110 145h92l-132 -145h-70z" />
    <glyph glyph-name="Uogonek" unicode="&#x172;" horiz-adv-x="647" 
d="M405 -124l11 -33q-52 -43 -108 -43q-38 0 -63 19.5t-25 54.5q0 60 67 114q-95 3 -149.5 54.5t-54.5 143.5q0 38 9 96l65 408h95l-63 -399q-9 -50 -9 -85q0 -61 35.5 -95.5t97.5 -34.5q96 0 139 66q39 60 52 149l63 399h96l-65 -408q-41 -260 -243 -290q-29 -20 -48.5 -47
t-19.5 -51q0 -19 13.5 -29.5t34.5 -10.5q33 0 70 22z" />
    <glyph glyph-name="uogonek" unicode="&#x173;" horiz-adv-x="520" 
d="M445 -130l11 -33q-52 -43 -108 -43q-38 0 -63 19.5t-25 54.5q0 73 92 132q-3 3 -3 32q0 15 2 33q-57 -76 -153 -76q-135 0 -135 135q0 34 6 67l34 213q3 22 3 38l-3 33h93q3 -11 3 -32q0 -25 -4 -46l-32 -202q-4 -27 -4 -45q0 -79 78 -79q55 0 90.5 42t45.5 108l41 254
h93l-64 -405q-2 -18 -2 -37l3 -33q-34 0 -76 -39q-41 -41 -41 -73q0 -19 13.5 -29.5t34.5 -10.5q33 0 70 22z" />
    <glyph glyph-name="Wcircumflex" unicode="&#x174;" horiz-adv-x="921" 
d="M664 150l233 540h100l-306 -691h-93l-75 554l-250 -554h-93l-87 691h100l62 -540l242 540h96zM534 904h76l66 -145h-69l-42 98l-74 -98h-69z" />
    <glyph glyph-name="wcircumflex" unicode="&#x175;" horiz-adv-x="738" 
d="M521 120l161 356h96l-227 -476h-86l-64 352l-176 -352h-85l-76 476h95l49 -356l176 356h74zM408 690h76l66 -145h-69l-42 98l-74 -98h-69z" />
    <glyph glyph-name="Ycircumflex" unicode="&#x176;" horiz-adv-x="558" 
d="M315 375l222 315h107l-295 -401l-45 -289h-96l46 289l-168 401h108zM350 904h76l66 -145h-69l-42 98l-74 -98h-69z" />
    <glyph glyph-name="ycircumflex" unicode="&#x177;" horiz-adv-x="464" 
d="M229 109l193 366h97l-309 -558q-30 -55 -62.5 -82.5t-76.5 -27.5q-49 0 -84 18l31 79q24 -12 46 -12q32 0 54 31q12 17 17 27q9 16 29 61l-109 464h98zM273 690h76l66 -145h-69l-42 98l-74 -98h-69z" />
    <glyph glyph-name="Ydieresis" unicode="&#x178;" horiz-adv-x="558" 
d="M511 828q0 -27 -17.5 -46t-43.5 -19q-19 0 -31 12t-12 32q0 27 17.5 46t43.5 19q19 0 31 -12.5t12 -31.5zM364 828q0 -27 -17.5 -46t-43.5 -19q-19 0 -31 12t-12 32q0 27 17.5 46t43.5 19q19 0 31 -12.5t12 -31.5zM315 375l222 315h107l-295 -401l-45 -289h-96l46 289
l-168 401h108z" />
    <glyph glyph-name="Zacute" unicode="&#x179;" horiz-adv-x="549" 
d="M114 606l13 84h476l-11 -67l-452 -538h374l-13 -85h-493l12 75l445 531h-351zM289 759l109 145h93l-130 -145h-72z" />
    <glyph glyph-name="zacute" unicode="&#x17a;" horiz-adv-x="442" 
d="M75 396l13 78h372l-9 -59l-318 -334h278l-12 -81h-400l10 60l319 336h-253zM193 545l109 145h93l-130 -145h-72z" />
    <glyph glyph-name="Zdotaccent" unicode="&#x17b;" horiz-adv-x="549" 
d="M114 606l13 84h476l-11 -67l-452 -538h374l-13 -85h-493l12 75l445 531h-351zM417 842q0 -25 -18.5 -44t-43.5 -19q-19 0 -31.5 12.5t-12.5 31.5q0 25 18 43.5t43 18.5q20 0 32.5 -12t12.5 -31z" />
    <glyph glyph-name="zdotaccent" unicode="&#x17c;" horiz-adv-x="442" 
d="M75 396l13 78h372l-9 -59l-318 -334h278l-12 -81h-400l10 60l319 336h-253zM329 628q0 -25 -18.5 -44t-43.5 -19q-19 0 -31.5 12.5t-12.5 31.5q0 25 18 43.5t43 18.5q20 0 32.5 -12t12.5 -31z" />
    <glyph glyph-name="Zcaron" unicode="&#x17d;" horiz-adv-x="549" 
d="M381 789l73 99h69l-112 -147h-76l-66 147h70zM114 607l14 83h475l-11 -66l-452 -539h374l-13 -85h-493l12 75l445 532h-351z" />
    <glyph glyph-name="zcaron" unicode="&#x17e;" horiz-adv-x="442" 
d="M293 591l73 99h69l-112 -147h-76l-66 147h70zM75 396l13 79h373l-10 -59l-318 -335h278l-12 -81h-400l10 61l319 335h-253z" />
    <glyph glyph-name="florin" unicode="&#x192;" horiz-adv-x="568" 
d="M606 686l-37 -71q-24 18 -54 18q-38 0 -57 -34q-16 -28 -27 -63l-40 -117h107l-24 -73h-108l-103 -304q-28 -82 -69.5 -123t-109.5 -41q-48 0 -79 24l38 73q22 -14 53 -14q25 0 44 19q17 17 24.5 32t18.5 51l96 283h-89l24 73h90l14 45q12 39 18 55l21 54q22 52 62 97
q40 43 98 43q21 0 48 -8t41 -19z" />
    <glyph glyph-name="AEacute" unicode="&#x1fc;" horiz-adv-x="824" 
d="M-50 0l498 690h409l-13 -83h-268l-32 -199h252l-14 -83h-251l-38 -241h275l-13 -84h-370l28 181h-229l-128 -181h-106zM238 264h188l55 345h-1zM584 759l109 145h93l-130 -145h-72z" />
    <glyph glyph-name="aeacute" unicode="&#x1fd;" horiz-adv-x="817" 
d="M803 357q0 -13 -5.5 -29.5t-22.5 -39t-43.5 -41t-74.5 -31.5t-110 -13q-50 0 -113 9q-1 -5 -1 -18q0 -59 33.5 -93.5t92.5 -34.5q74 0 162 55l30 -57q-87 -75 -215 -75q-124 0 -174 95q-92 -95 -201 -95q-61 0 -99.5 33t-38.5 89q0 180 258 180q38 0 71 -3q3 21 3 39
q0 41 -26.5 62.5t-70.5 21.5q-77 0 -145 -41l-18 65q85 49 179 49q128 0 153 -87q88 88 214 88q72 0 117 -35.5t45 -92.5zM199 59q37 0 80 23q41 24 64 57q-4 17 -4 48q0 5 2 37q-47 5 -75 5q-148 0 -148 -103q0 -32 23 -49.5t58 -17.5zM714 357q0 25 -23.5 42t-61.5 17
q-65 0 -115 -37.5t-68 -98.5q36 -6 79 -6q76 0 133 20q56 21 56 63zM409 545l109 145h93l-130 -145h-72z" />
    <glyph glyph-name="Oslashacute" unicode="&#x1fe;" horiz-adv-x="762" 
d="M438 741l110 147h92l-130 -147h-72zM676 625l89 81l40 -49l-89 -80q44 -71 44 -165q0 -175 -115 -299q-116 -125 -289 -125q-127 0 -208 75l-87 -79l-40 49l87 78q-45 71 -45 165q0 175 115 299q116 125 290 125q127 0 208 -75zM187 183l415 376q-58 56 -147 56
q-126 0 -210 -97q-83 -98 -83 -225q0 -64 25 -110zM662 400q0 60 -23 108l-415 -376q57 -54 146 -54q126 0 209 96q83 98 83 226z" />
    <glyph glyph-name="oslashacute" unicode="&#x1ff;" horiz-adv-x="554" 
d="M287 543l110 147h92l-130 -147h-72zM473 435l66 59l36 -43l-66 -58q29 -50 29 -112q0 -121 -82 -206q-81 -86 -203 -86q-86 0 -144 50l-66 -59l-35 43l66 58q-29 49 -29 110q0 122 82 207q83 86 204 86q87 0 142 -49zM151 150l253 224q-31 31 -86 31q-77 0 -126 -61
q-50 -62 -50 -139q0 -29 9 -55zM442 273q0 29 -8 53l-253 -224q33 -30 85 -30q77 0 126 61q50 62 50 140z" />
    <glyph glyph-name="dotlessj" unicode="&#x237;" horiz-adv-x="228" 
d="M204 404l-64 -405q-13 -81 -49 -133q-39 -62 -126 -62q-39 0 -58 8l13 78q52 -17 82 4q16 10 25 31q14 32 20 77l63 397q7 40 20 69l5 9h92q-15 -26 -23 -73z" />
    <glyph glyph-name="circumflex" unicode="&#x2c6;" 
d="M212 690h76l66 -145h-69l-42 98l-74 -98h-69z" />
    <glyph glyph-name="caron" unicode="&#x2c7;" 
d="M235 592l73 98h69l-112 -145h-76l-66 145h69z" />
    <glyph glyph-name="breve" unicode="&#x2d8;" 
d="M345 679h48q-17 -59 -59.5 -91t-103.5 -32q-60 0 -93 31.5t-32 91.5h49q4 -64 85 -64t106 64z" />
    <glyph glyph-name="dotaccent" unicode="&#x2d9;" 
d="M292 628q0 -25 -18.5 -44t-43.5 -19q-20 0 -32 12.5t-12 31.5q0 25 18 43.5t43 18.5q20 0 32.5 -12t12.5 -31z" />
    <glyph glyph-name="ring" unicode="&#x2da;" 
d="M340 653q0 -45 -34 -78t-79 -33q-37 0 -60.5 22t-23.5 57q0 45 34 78q35 33 80 33q36 0 59.5 -22t23.5 -57zM291 646q0 19 -11.5 30.5t-29.5 11.5q-24 0 -41 -18t-17 -42q0 -19 11.5 -30.5t30.5 -11.5q24 0 40.5 18t16.5 42z" />
    <glyph glyph-name="ogonek" unicode="&#x2db;" 
d="M205 -132l11 -33q-52 -43 -108 -43q-38 0 -63 19.5t-25 54.5q0 74 102 139h57l-1 -7q-31 -16 -62 -49q-29 -32 -29 -63q0 -19 13.5 -29.5t34.5 -10.5q33 0 70 22z" />
    <glyph glyph-name="tilde" unicode="&#x2dc;" 
d="M351 670l45 -11q-9 -38 -38 -65t-66 -27q-31 0 -66 23t-51 23q-35 0 -48 -42l-45 10q9 39 38.5 66t65.5 27q31 0 66 -23t51 -23q35 0 48 42z" />
    <glyph glyph-name="hungarumlaut" unicode="&#x2dd;" 
d="M204 545l110 145h92l-132 -145h-70zM72 545l110 145h92l-132 -145h-70z" />
    <glyph glyph-name="Wgrave" unicode="&#x1e80;" horiz-adv-x="921" 
d="M664 150l233 540h100l-306 -691h-93l-75 554l-250 -554h-93l-87 691h100l62 -540l242 540h96zM448 904h92l63 -145h-71z" />
    <glyph glyph-name="wgrave" unicode="&#x1e81;" horiz-adv-x="738" 
d="M521 120l161 356h96l-227 -476h-86l-64 352l-176 -352h-85l-76 476h95l49 -356l176 356h74zM316 690h92l63 -145h-71z" />
    <glyph glyph-name="Wacute" unicode="&#x1e82;" horiz-adv-x="921" 
d="M664 150l233 540h100l-306 -691h-93l-75 554l-250 -554h-93l-87 691h100l62 -540l242 540h96zM499 759l109 145h93l-130 -145h-72z" />
    <glyph glyph-name="wacute" unicode="&#x1e83;" horiz-adv-x="738" 
d="M521 120l161 356h96l-227 -476h-86l-64 352l-176 -352h-85l-76 476h95l49 -356l176 356h74zM368 545l109 145h93l-130 -145h-72z" />
    <glyph glyph-name="Wdieresis" unicode="&#x1e84;" horiz-adv-x="921" 
d="M664 150l233 540h100l-306 -691h-93l-75 554l-250 -554h-93l-87 691h100l62 -540l242 540h96zM670 841q0 -25 -18 -44t-43 -19q-19 0 -31.5 12t-12.5 32q0 25 18 44t43 19q20 0 32 -12.5t12 -31.5zM522 841q0 -25 -18 -44t-43 -19q-19 0 -31 12.5t-12 31.5q0 25 18 44
t42 19q20 0 32 -12.5t12 -31.5z" />
    <glyph glyph-name="wdieresis" unicode="&#x1e85;" horiz-adv-x="738" 
d="M521 120l161 356h96l-227 -476h-86l-64 352l-176 -352h-85l-76 476h95l49 -356l176 356h74zM553 627q0 -25 -18 -44t-43 -19q-20 0 -32 12t-12 32q0 25 18 44t43 19q19 0 31.5 -12.5t12.5 -31.5zM405 627q0 -25 -18 -44t-43 -19q-19 0 -31 12.5t-12 31.5q0 25 18 44
t42 19q19 0 31.5 -12.5t12.5 -31.5z" />
    <glyph glyph-name="Ygrave" unicode="&#x1ef2;" horiz-adv-x="558" 
d="M315 375l222 315h107l-295 -401l-45 -289h-96l46 289l-168 401h108zM260 904h92l63 -145h-71z" />
    <glyph glyph-name="ygrave" unicode="&#x1ef3;" horiz-adv-x="464" 
d="M229 109l193 366h97l-309 -558q-30 -55 -62.5 -82.5t-76.5 -27.5q-49 0 -84 18l31 79q24 -12 46 -12q32 0 54 31q12 17 17 27q9 16 29 61l-109 464h98zM174 690h92l63 -145h-71z" />
    <glyph glyph-name="endash" unicode="&#x2013;" horiz-adv-x="448" 
d="M16 236l12 75h446l-12 -75h-446z" />
    <glyph glyph-name="emdash" unicode="&#x2014;" horiz-adv-x="824" 
d="M22 236l12 75h806l-12 -75h-806z" />
    <glyph glyph-name="quoteleft" unicode="&#x2018;" horiz-adv-x="303" 
d="M128 476l120 214h75l-99 -214h-96z" />
    <glyph glyph-name="quoteright" unicode="&#x2019;" horiz-adv-x="303" 
d="M121 476l100 214h95l-120 -214h-75z" />
    <glyph glyph-name="quotesinglbase" unicode="&#x201a;" horiz-adv-x="303" 
d="M27 -116l100 213h95l-119 -213h-76z" />
    <glyph glyph-name="quotedblleft" unicode="&#x201c;" horiz-adv-x="474" 
d="M299 476l120 214h72l-99 -214h-93zM130 476l119 214h73l-99 -214h-93z" />
    <glyph glyph-name="quotedblright" unicode="&#x201d;" horiz-adv-x="474" 
d="M292 476l99 214h93l-120 -214h-72zM123 476l99 214h93l-120 -214h-72z" />
    <glyph glyph-name="quotedblbase" unicode="&#x201e;" horiz-adv-x="474" 
d="M198 -116l99 213h93l-119 -213h-73zM29 -116l99 213h93l-120 -213h-72z" />
    <glyph glyph-name="dagger" unicode="&#x2020;" horiz-adv-x="583" 
d="M424 726l-40 -251h185l-13 -78h-184l-91 -573h-80l91 573h-185l12 78h185l40 251h80z" />
    <glyph glyph-name="daggerdbl" unicode="&#x2021;" horiz-adv-x="583" 
d="M424 726l-39 -246h184l-12 -78h-185l-40 -254h185l-13 -78h-184l-39 -246h-80l39 246h-185l12 78h185l40 254h-184l12 78h185l39 246h80z" />
    <glyph glyph-name="bullet" unicode="&#x2022;" horiz-adv-x="541" 
d="M356 471q45 -45 45 -106t-45 -106q-44 -45 -105 -45t-106 45t-45 106t45 106t106 45t105 -45z" />
    <glyph glyph-name="ellipsis" unicode="&#x2026;" horiz-adv-x="915" 
d="M797 64q0 -30 -21.5 -51t-51.5 -21q-24 0 -38.5 13.5t-14.5 36.5q0 30 21.5 50.5t51.5 20.5q24 0 38.5 -13t14.5 -36zM505 64q0 -30 -21.5 -51t-51.5 -21q-24 0 -39 13.5t-15 36.5q0 30 21.5 50.5t51.5 20.5q24 0 39 -13t15 -36zM212 64q0 -30 -21.5 -51t-51.5 -21
q-24 0 -38.5 13.5t-14.5 36.5q0 30 21 50.5t51 20.5q24 0 39 -13t15 -36z" />
    <glyph glyph-name="perthousand" unicode="&#x2030;" horiz-adv-x="1095" 
d="M1062 187q0 -83 -52 -141t-134 -58q-61 0 -97.5 37t-36.5 97q0 83 52 141q53 59 135 59q60 0 96.5 -37t36.5 -98zM410 561q0 -83 -52 -141q-53 -59 -135 -59q-60 0 -96.5 37t-36.5 98q0 82 52 140q53 59 134 59q61 0 97.5 -37t36.5 -97zM125 7l521 700l45 -31l-521 -699z
M726 187q0 -83 -52 -141t-134 -58q-61 0 -97.5 37t-36.5 97q0 83 52 141q53 59 135 59q60 0 96.5 -37t36.5 -98zM993 178q0 37 -20 58.5t-55 21.5q-47 0 -76 -38t-29 -87q0 -37 19 -58.5t54 -21.5q48 0 77 38q30 37 30 87zM340 551q0 37 -19.5 58.5t-54.5 21.5
q-48 0 -77 -38t-29 -87q0 -37 19.5 -58.5t54.5 -21.5q47 0 76 38q30 38 30 87zM656 178q0 37 -19.5 58.5t-54.5 21.5q-47 0 -76 -38t-29 -87q0 -37 19 -58.5t54 -21.5q48 0 77 38t29 87z" />
    <glyph glyph-name="guilsinglleft" unicode="&#x2039;" horiz-adv-x="308" 
d="M69 238l175 198l46 -40l-138 -158l89 -160l-60 -39z" />
    <glyph glyph-name="guilsinglright" unicode="&#x203a;" horiz-adv-x="308" 
d="M99 397l60 39l112 -198l-175 -199l-46 40l139 159z" />
    <glyph glyph-name="fraction" unicode="&#x2044;" horiz-adv-x="193" 
d="M-164 5l548 742l45 -31l-548 -742z" />
    <glyph glyph-name="Euro" unicode="&#x20ac;" horiz-adv-x="568" 
d="M595 632l-44 -77q-43 66 -126 66q-67 0 -111 -50q-46 -52 -67 -122h240l-11 -66h-248q-9 -57 -10 -68h247l-10 -66h-240v-13q-1 -67 29 -116q32 -47 96 -47q79 0 153 73l29 -65q-75 -93 -201 -93q-71 0 -120 38q-86 71 -84 223h-65l11 67h57q1 14 10 67h-57l11 66h65
q33 105 107 178t179 73q98 0 160 -68z" />
    <glyph glyph-name="trademark" unicode="&#x2122;" horiz-adv-x="850" 
d="M654 690h89l31 -398h-65l-22 313h-2l-103 -313h-51l-102 313h-3l-21 -313h-65l31 398h88l97 -299h2zM29 690h289v-56h-112v-342h-65v342h-112v56z" />
    <glyph glyph-name="product" unicode="&#x220f;" horiz-adv-x="830" 
d="M806 291l-12 -75h-87q-39 -74 -105 -126q-112 -90 -272 -90h-208l34 216h-92l12 75h92l17 113h-92l12 75h92l34 211h208q80 0 143.5 -25t100.5 -65q48 -54 63 -121h89l-12 -75h-69q-5 -71 -17 -113h69zM653 404h-371l-17 -113h372q17 54 17 97q0 2 -0.5 8.5t-0.5 7.5z
M600 216h-347l-21 -132h111q163 0 257 132zM315 607l-21 -128h344q-47 128 -212 128h-111z" />
    <glyph glyph-name="minus" unicode="&#x2212;" horiz-adv-x="667" 
d="M52 382h523v-74h-523v74z" />
    <glyph glyph-name="approxequal" unicode="&#x2248;" horiz-adv-x="904" 
d="M623 -11q-77 0 -128 39l3 -28h-91q-3 10 -3 32q0 23 5 45q-70 -88 -176 -88q-87 0 -137.5 54.5t-50.5 144.5q0 120 73 208q74 89 191 89q105 0 147 -83l12 74h93l-7 -46q77 55 174 55q72 0 117 -35.5t45 -92.5q0 -13 -5.5 -29.5t-22.5 -39t-43.5 -41t-74.5 -31.5
t-110 -13q-50 0 -113 9q-1 -5 -1 -18q0 -59 33.5 -93.5t92.5 -34.5q74 0 162 55l30 -57q-87 -75 -215 -75zM437 275q0 59 -32 94.5t-89 35.5q-77 0 -126 -61q-48 -62 -48 -141q0 -59 32.5 -95t88.5 -36q78 0 126 61t48 142zM801 357q0 25 -23.5 42t-61.5 17
q-65 0 -115 -37.5t-68 -98.5q36 -6 79 -6q76 0 133 20q56 21 56 63z" />
    <glyph glyph-name="notequal" unicode="&#x2260;" horiz-adv-x="667" 
d="M339 291h236v-74h-252l-32 -138h-75l32 138h-196v74h212l25 108h-237v73h252l32 139h75l-32 -139h196v-73h-211z" />
    <glyph glyph-name="lessequal" unicode="&#x2264;" horiz-adv-x="984" 
d="M363 15q-19 -16 -42 -16t-37 16q-14 17 -10 40t23 39q19 17 42 17t37 -17q14 -16 10 -39t-23 -40zM207 170q4 23 23 39.5t42 16.5t37 -16.5t10 -39.5q-3 -23 -22 -39.5t-42 -16.5t-37 16.5t-11 39.5zM230 245q-19 -16 -42 -16t-37 16q-14 17 -10 40t23 39q19 17 42 17
t37 -17q14 -16 10 -39t-23 -40zM383 745q4 23 23 39.5t42 16.5t37 -16.5t10 -39.5q-3 -23 -22 -39.5t-42 -16.5t-37 16.5t-11 39.5zM369 590q-19 -16 -42 -16t-37 16q-14 17 -10 40t23 39q19 17 42 17t37 -17q14 -16 10 -39t-23 -40zM266 475q-19 -16 -42 -16t-37 16
q-14 17 -10 40t23 39q19 17 42 17t37 -17q14 -16 10 -39t-23 -40zM988 360q-19 -16 -42 -16t-37 16q-14 17 -10 40t23 39q19 17 42 17t37 -17q14 -16 10 -39t-23 -40zM823 360q-19 -16 -42 -16t-37 16q-14 17 -10 40t23 39q19 17 42 17t37 -17q14 -16 10 -39t-23 -40z
M328 360q-19 -16 -42 -16t-37 16q-14 17 -10 40t23 39q19 17 42 17t37 -17q14 -16 10 -39t-23 -40zM163 360q-19 -16 -42 -16t-37 16q-14 17 -10 40t23 39q19 17 42 17t37 -17q14 -16 10 -39t-23 -40zM493 360q-19 -16 -42 -16t-37 16q-14 17 -10 40t23 39q19 17 42 17
t37 -17q14 -16 10 -39t-23 -40zM658 360q-19 -16 -42 -16t-37 16q-14 17 -10 40t23 39q19 17 42 17t37 -17q14 -16 10 -39t-23 -40z" />
    <glyph glyph-name="greaterequal" unicode="&#x2265;" horiz-adv-x="984" 
d="M446 360q-19 -16 -42 -16t-37 16q-14 17 -10 40t23 39q19 17 42 17t37 -17q14 -16 10 -39t-23 -40zM611 360q-19 -16 -42 -16t-37 16q-14 17 -10 40t23 39q19 17 42 17t37 -17q14 -16 10 -39t-23 -40zM941 360q-19 -16 -42 -16t-37 16q-14 17 -10 40t23 39q19 17 42 17
t37 -17q14 -16 10 -39t-23 -40zM776 360q-19 -16 -42 -16t-37 16q-14 17 -10 40t23 39q19 17 42 17t37 -17q14 -16 10 -39t-23 -40zM281 360q-19 -16 -42 -16t-37 16q-14 17 -10 40t23 39q19 17 42 17t37 -17q14 -16 10 -39t-23 -40zM116 360q-19 -16 -42 -16t-37 16
q-14 17 -10 40t23 39q19 17 42 17t37 -17q14 -16 10 -39t-23 -40zM874 475q-19 -16 -42 -16t-37 16q-14 17 -10 40t23 39q19 17 42 17t37 -17q14 -16 10 -39t-23 -40zM807 590q-19 -16 -42 -16t-37 16q-14 17 -10 40t23 39q19 17 42 17t37 -17q14 -16 10 -39t-23 -40z
M651 745q4 23 23 39.5t42 16.5t37 -16.5t10 -39.5q-3 -23 -22 -39.5t-42 -16.5t-37 16.5t-11 39.5zM838 245q-19 -16 -42 -16t-37 16q-14 17 -10 40t23 39q19 17 42 17t37 -17q14 -16 10 -39t-23 -40zM645 170q4 23 23 39.5t42 16.5t37 -16.5t10 -39.5q-3 -23 -22 -39.5
t-42 -16.5t-37 16.5t-11 39.5zM631 15q-19 -16 -42 -16t-37 16q-14 17 -10 40t23 39q19 17 42 17t37 -17q14 -16 10 -39t-23 -40z" />
    <glyph glyph-name="commaaccent" unicode="&#xf6c3;" horiz-adv-x="301" 
d="M188 -50l-86 -140h-71l59 140h98z" />
    <glyph glyph-name="apple" unicode="&#xf8ff;" horiz-adv-x="1439" 
d="M589 -62h-7q25 21 25 45q0 35 -29 41q5 -33 5 -52q0 -36 -30.5 -57t-73.5 -21q-27 0 -47 15t-20 39q0 21 14 31.5t32 10.5q10 0 13 -1q13 26 45 40v3q-3 7 -3 23q-20 -41 -55 -41q-19 0 -32 20.5t-13 50.5q0 21 18 66q18 47 18 60q0 23 -9 23q-10 0 -21 -11.5t-12 -18.5
q0 -35 -34 -53q0 -142 -116 -142q-35 0 -57.5 16.5t-22.5 48.5q0 22 12.5 38.5t30.5 16.5q25 0 25 -29q0 -22 -11.5 -38t-29.5 -16q-2 0 -8.5 2.5t-7.5 2.5q3 -12 13 -20.5t20 -8.5q33 0 51 43q16 41 26 86q-22 9 -35 31q-9 -3 -14 -3q-56 0 -56 58q0 45 32 80q31 36 77 36
q37 0 63 -13q29 -12 36 -12q2 0 16 2v-4q-56 -14 -92 -63q-2 19 -16 30.5t-34 11.5q-29 0 -51.5 -24.5t-22.5 -54.5q0 -42 45 -42q8 0 14 3q-5 12 -5 28q0 20 10 34t22 14q17 0 17 -20q0 -35 -36 -57q7 -17 31 -28q16 67 47 105q38 43 70 47v-5q-47 -23 -47 -109
q0 -3 0.5 -8t1 -14t0.5 -16q32 17 32 46q0 24 -12 38v1q13 -6 15 -30q17 32 49 32q22 0 34.5 -21t12.5 -53q0 -11 -18 -57q-17 -48 -17 -67q0 -17 9 -17q25 0 39 57q10 38 13 52l12 57l10 47q18 -8 26 -8q12 0 34 16q0 -3 -13 -57q-22 -102 -22 -137v-7l1 -14q37 -7 37 -50
q0 -28 -24 -48zM1321 115l32 -25l-113 -22l8 -40l-70 56q-26 -59 -64 -98q15 -7 41 -7q53 0 73 41h2q-4 -22 -25 -36.5t-46 -14.5q-26 0 -53 10q-57 -59 -113 -59q-58 0 -58 95q-1 -1 -6 -1q-32 0 -54 29.5t-22 79.5q0 34 41 78t86 44q40 0 40 -52q0 -33 -33 -59
q-30 -24 -68 -29q-10 -47 -10 -66q0 -17 20 -17q5 0 6 1v1q0 32 19 63q20 33 48 33q13 0 13 -20q0 -24 -24 -53q-22 -28 -49 -31q0 -87 56 -87q44 0 98 54q-63 30 -63 96q0 26 15 47.5t38 26.5v-3q-22 -6 -34.5 -26.5t-12.5 -47.5q0 -58 64 -86q43 50 60 102l-90 27l39 16
l-52 107l42 -13l-9 63l41 -45l24 35l24 -78l34 107l17 -28l62 37v-71h38l-82 -81l81 23l-13 -42l61 -6zM751 -4h6v-4q-9 0 -15.5 -5t-6.5 -13q0 -9 6.5 -15t15.5 -6q29 0 50 30t21 59q0 16 -11 35q-30 -63 -70 -63q-30 0 -30 42q0 25 13.5 42t30.5 20q11 74 11 109q0 8 -9 8
q-5 0 -12.5 -6t-14.5 -21t-7 -35q0 -18 -23 -138q-22 -116 -27 -130q-18 8 -26 8q-10 0 -33 -16l17 90q16 83 27 151q13 69 13 84q0 37 -40 59q-39 25 -39 118q0 27 18 86q19 58 19 89q0 17 -7 17q-10 0 -24.5 -17.5t-23.5 -42.5q-2 -15 -15.5 -87.5t-14.5 -74.5
q-18 9 -26 9q-18 0 -31 -10l10 60q23 122 23 148q0 14 -7 14q-13 0 -30 -42h-8q5 16 9.5 25.5t15.5 18t26 8.5q40 0 47 -45q1 1 6 9t7 11t7.5 9.5t10 9t10.5 5t13 2.5q22 0 36 -26.5t14 -64.5q0 -39 -20 -99t-20 -87q0 -53 37 -63q16 -3 29 -17t17 -37q23 38 46 38
q26 0 43 -35q17 -36 17 -64q0 -32 -13 -61q15 -23 15 -46q0 -37 -21 -65t-53 -28q-13 0 -22 8t-9 20q0 9 6.5 15.5t15.5 6.5zM131 257h-4l3 3q10 0 21.5 9t11.5 20v5q-17 -7 -39 -7q-24 0 -46 9t-22 25q0 11 13 17.5t28 6.5q18 0 40 -11.5t31 -26.5q35 15 35 46q0 18 -8 28
q-26 -16 -56 -16q-48 0 -78 33t-30 89q0 16 10 43q-26 20 -26 58q0 37 23 69q24 33 57 33h7l6 -1v-5h-9q-33 0 -55 -30q-23 -31 -23 -65q0 -33 24 -50q27 62 79 121q52 60 86 60q31 0 31 -53q0 -43 -36 -83q-35 -40 -81 -56v-1q-1 -1 -1 -2q-22 -88 -22 -116q0 -15 9 -24.5
t16 -11.5t12 -2q24 0 49 18q-13 10 -34 10q-22 0 -28 -6v3q9 9 25 9q26 0 42 -12q42 37 42 91q0 44 -28 44q-26 0 -43.5 -23t-17.5 -51q0 -30 18 -30q13 0 22 16.5t9 35.5q0 2 -2 12h6q2 -6 2 -12q0 -20 -11.5 -39t-25.5 -19q-24 0 -24 38q0 28 19 53.5t45 25.5
q21 0 33.5 -18t12.5 -45q0 -52 -48 -87q12 -12 12 -34q0 -37 -43 -55q1 -1 1 -4q0 -14 -12.5 -24.5t-27.5 -10.5zM1137 457h9q-23 -86 -61 -86q-18 0 -32 13t-18 36q-15 -29 -26 -39.5t-26 -10.5q-27 0 -42 34q-14 36 -14 67q0 36 37 82q38 48 68 48q17 0 24 -19
q4 22 9.5 49t8.5 43l4 17q15 -9 26 -8t35 16q-55 -288 -55 -304q0 -13 7 -13q13 0 26 25q14 27 20 50zM909 424h7q-14 -53 -45 -53q-37 0 -48 48q-25 -49 -51 -49q-27 0 -42 34q-15 35 -15 67q0 36 37 82q38 48 68 48q18 0 26 -23l5 20q18 -7 27 -7q8 0 33 15
q-38 -198 -38 -211t6 -13q13 0 30 42zM1353 424h8q-15 -53 -46 -53q-39 0 -47 48q-15 -29 -26 -39t-25 -10q-27 0 -43 34q-15 35 -15 67q0 35 38 82q37 48 68 48q17 0 26 -23l5 20q18 -7 26 -7q10 0 33 15l-12 -61q-10 -45 -18 -94q-8 -46 -8 -56q0 -13 7 -13q12 0 29 42z
M460 424h7q-14 -53 -46 -53q-17 0 -30 12.5t-17 35.5q-15 -29 -25.5 -39t-26.5 -10q-26 0 -41 34q-14 36 -14 67q0 35 38 82q37 48 68 48q15 0 24 -23l5 20q27 -10 38 -5q3 1 8.5 4.5t9.5 6.5l4 2q0 -2 -13 -62q-11 -50 -18 -93q-8 -46 -8 -56q0 -13 8 -13q13 0 29 42z
M296 -74h-4q-20 0 -38 10.5t-18 27.5q0 21 26 21q18 0 33.5 -12.5t15.5 -28.5l-1 -4v-4q26 6 43 23.5t17 43.5q0 12 -5 29h3q6 -9 6 -29q0 -27 -20 -48.5t-48 -26.5q-15 -28 -57 -28q-30 0 -53 13t-23 36q0 12 7 20t19 8q9 0 12 -1q-65 56 -144 56q-23 0 -85 -8
q13 5 41 13.5t32 10.5q36 14 63 44q28 31 28 59q0 32 -22.5 51.5t-56.5 19.5q-71 0 -71 -41q0 -12 13 -19.5t30 -7.5q19 0 52 27v-7q-22 -31 -52 -31q-21 0 -36 10.5t-15 27.5q0 48 75 48q44 0 68 -22.5t24 -59.5q0 -28 -25 -56q-24 -27 -46 -41l14 -4q44 -9 71.5 -26
t51.5 -51h-1v-1q-2 0 -8.5 1.5t-8.5 1.5q-25 0 -25 -22q0 -21 24 -32q26 -12 47 -12q31 0 47 21zM1051 557q-1 36 -15 36q-11 0 -18.5 -18.5t-7.5 -32.5q-25 -107 -25 -153q0 -8 7 -8q20 0 30 34q12 39 29 142zM466 -24h-12q-33 0 -33 -31q0 -20 16.5 -32.5t39.5 -12.5
q22 0 41 14t19 35q0 20 -20 72q-30 -11 -40 -34q13 -5 21.5 -15.5t8.5 -20.5q0 -7 -6 -13t-14 -6q-10 0 -16 9.5t-6 19t1 15.5zM1266 452q1 27 17 97q0 44 -14 44q-19 0 -26 -51q-24 -132 -24 -153q0 -8 6 -8q24 0 41 71zM822 452q2 27 17 97q0 44 -14 44q-17 1 -26 -51
q-24 -132 -24 -153q0 -8 5 -8q25 0 42 71zM373 452q1 27 17 97q0 44 -14 44q-8 0 -15.5 -17t-10.5 -34q-24 -106 -24 -153q0 -8 6 -8q23 0 41 71zM126 537q40 18 69 62t29 91q0 20 -14 20q-16 0 -38 -48l-8 -22q-9 -23 -20.5 -55t-17.5 -48zM1142 388h2q-5 -30 -26 -49
t-50 -23q0 -21 -21 -37t-49 -16q-27 0 -45 12t-18 37q0 16 12.5 29.5t29.5 14.5v-3q-13 -2 -23.5 -12.5t-10.5 -22.5q0 -41 57 -41q62 0 63 39q-1 -1 -6 -1q-18 0 -30.5 7.5t-12.5 20.5q0 6 6 10.5t12 4.5q12 0 22 -9.5t14 -22.5q25 3 46.5 21t27.5 41zM896 356l8 -4
q-6 -27 -33.5 -46.5t-60.5 -19.5h-8q-13 -13 -38 -13q-56 0 -78 42v1q34 -39 76 -39q23 0 33 10q-33 4 -68 25q-33 21 -33 57q0 17 8 27l4 -3q-4 -12 -4 -22q0 -33 32 -51q30 -17 70 -22q3 6 3 14q0 18 -15 30.5t-35 12.5q-17 0 -31 -8l-3 1q18 20 53.5 8t35.5 -43
q0 -5 -2 -15h3q31 0 54 15t29 43zM920 113q28 4 46 41q18 38 18 66q0 17 -8 17q-32 0 -56 -124zM941 26v-2q19 0 42 27q24 28 24 52q0 11 -7 11q-22 0 -41 -31q-18 -30 -18 -57zM160 304q-9 14 -28 24.5t-35 10.5q-31 0 -31 -18q0 -24 53 -24q23 0 41 7zM590 255l-4 1v2
q-3 19 -13.5 29t-23.5 10q-7 0 -31 -12q-25 -11 -48 -11q-26 0 -26 20q0 12 10.5 18.5t23.5 6.5l46 -5q25 0 25 18q0 11 -8.5 17.5t-21.5 6.5q-22 0 -22 -14q0 -11 12 -11q9 0 17 5l1 -6q-7 -4 -17 -4q-19 0 -19 15q0 8 9.5 14t19.5 6q15 0 25 -8t10 -20q0 -23 -31 -23
l-46 5q-30 0 -30 -21q0 -14 21 -14q13 0 39 12q25 13 35 13q21 0 34 -14t13 -36zM760 109q-15 -1 -26.5 -18.5t-11.5 -38.5q0 -28 18 -28q7 0 12 23l3 20q5 20 5 42zM304 -54q0 14 -12 23.5t-27 9.5q-21 0 -21 -20q0 -17 27 -24q29 -5 33 11zM266 191q33 23 33 51
q0 15 -12 15q-18 0 -23 -27.5t2 -38.5zM1059 326h3q-6 26 -27 26q-12 0 -12 -10q0 -16 36 -16zM474 -26q-1 -3 -1 -10q0 -24 12 -24t12 9q0 14 -23 25z" />
    <glyph glyph-name="NULL" horiz-adv-x="0" 
 />
    <glyph glyph-name="CR" horiz-adv-x="333" 
 />
    </font>
</defs>
</svg>
