<?xml version="1.0" standalone="no"?>
<!DOCTYPE svg PUBLIC "-//W3C//DTD SVG 1.1//EN" "http://www.w3.org/Graphics/SVG/1.1/DTD/svg11.dtd" >
<svg xmlns="http://www.w3.org/2000/svg" xmlns:xlink="http://www.w3.org/1999/xlink" version="1.1">
<metadata>
Created by FontForge 20170731 at Thu Mar 20 13:42:28 2014
 By Aleksey,,,
Copyright (c) 2011 Rod McDonald. Published by Canada Type. All rights reserved.
</metadata>
<defs>
<font id="Gibson-BoldItalic" horiz-adv-x="645" >
  <font-face 
    font-family="Gibson"
    font-weight="700"
    font-style="italic"
    font-stretch="normal"
    units-per-em="1000"
    panose-1="2 0 0 0 0 0 0 0 0 0"
    ascent="800"
    descent="-200"
    x-height="510"
    cap-height="690"
    bbox="-100 -200 1399 940"
    underline-thickness="50"
    underline-position="-250"
    slope="-9"
    unicode-range="U+0020-FB04"
  />
<missing-glyph horiz-adv-x="189" 
 />
    <glyph glyph-name="ff" unicode="ff" horiz-adv-x="728" 
d="M389 -103l71 447h-146l-70 -441q-7 -40 -20 -69l-5 -9h-217q15 27 23 72l71 447h-58l27 166h57q16 101 71 148t158 47q77 0 133 -15l-34 -152q-34 8 -62 8q-24 0 -34.5 -7.5t-13.5 -28.5h146q16 101 71 148t158 47q77 0 133 -15l-34 -152q-34 8 -62 8q-24 0 -34.5 -7.5
t-13.5 -28.5h96l-26 -166h-96l-70 -441q-7 -40 -20 -69l-5 -9h-217q15 27 23 72z" />
    <glyph glyph-name="fi" unicode="fi" horiz-adv-x="674" 
d="M720 654q0 -56 -38.5 -92t-96.5 -36q-45 0 -73 23.5t-28 64.5q0 56 38.5 92t96.5 36q45 0 73 -23t28 -65zM619 35l3 -35h-217q-4 11 -4 35q0 23 4 43l57 360q3 21 3 37l-3 35h217q3 -14 3 -36q0 -26 -3 -42l-57 -360q-3 -21 -3 -37zM25 -103l71 447h-58l27 166h57
q16 101 71 148t158 47q77 0 133 -15l-34 -152q-34 8 -62 8q-24 0 -34.5 -7.5t-13.5 -28.5h96l-26 -166h-96l-70 -441q-7 -40 -20 -69l-5 -9h-217q15 27 23 72z" />
    <glyph glyph-name="fl" unicode="fl" horiz-adv-x="681" 
d="M25 -103l71 447h-58l27 166h57q16 101 71 148t158 47q77 0 133 -15l-34 -152q-34 8 -62 8q-24 0 -34.5 -7.5t-13.5 -28.5h96l-26 -166h-96l-70 -441q-7 -40 -20 -69l-5 -9h-217q15 27 23 72zM623 35l3 -35h-217q-4 11 -4 35q0 23 4 43l85 540q3 22 3 41l-2 31h217
q3 -10 3 -33q0 -24 -4 -45l-85 -540q-3 -21 -3 -37z" />
    <glyph glyph-name="ffi" unicode="ffi" horiz-adv-x="1038" 
d="M389 -103l71 447h-146l-70 -441q-7 -40 -20 -69l-5 -9h-217q15 27 23 72l71 447h-58l27 166h57q16 101 71 148t158 47q77 0 133 -15l-34 -152q-34 8 -62 8q-24 0 -34.5 -7.5t-13.5 -28.5h146q16 101 71 148t158 47q77 0 133 -15l-34 -152q-34 8 -62 8q-24 0 -34.5 -7.5
t-13.5 -28.5h96l-26 -166h-96l-70 -441q-7 -40 -20 -69l-5 -9h-217q15 27 23 72zM983 35l3 -35h-217q-4 11 -4 35q0 23 4 43l57 360q3 21 3 37l-3 35h217q3 -14 3 -36q0 -26 -3 -42l-57 -360q-3 -21 -3 -37zM1084 654q0 -56 -38.5 -92t-96.5 -36q-45 0 -73 23.5t-28 64.5
q0 56 38.5 92t96.5 36q45 0 73 -23t28 -65z" />
    <glyph glyph-name="ffl" unicode="ffl" horiz-adv-x="1045" 
d="M389 -103l71 447h-146l-70 -441q-7 -40 -20 -69l-5 -9h-217q15 27 23 72l71 447h-58l27 166h57q16 101 71 148t158 47q77 0 133 -15l-34 -152q-34 8 -62 8q-24 0 -34.5 -7.5t-13.5 -28.5h146q16 101 71 148t158 47q77 0 133 -15l-34 -152q-34 8 -62 8q-24 0 -34.5 -7.5
t-13.5 -28.5h96l-26 -166h-96l-70 -441q-7 -40 -20 -69l-5 -9h-217q15 27 23 72zM987 35l3 -35h-217q-4 11 -4 35q0 23 4 43l85 540q3 22 3 41l-2 31h217q3 -10 3 -33q0 -24 -4 -45l-85 -540q-3 -21 -3 -37z" />
    <glyph glyph-name="f_j" unicode="fj" horiz-adv-x="672" 
d="M25 -103l71 447h-58l27 166h57q16 101 71 148t158 47q77 0 133 -15l-34 -152q-34 8 -62 8q-24 0 -34.5 -7.5t-13.5 -28.5h96l-26 -166h-96l-70 -441q-7 -40 -20 -69l-5 -9h-217q15 27 23 72zM681 438l-66 -412q-18 -108 -72 -159.5t-156 -51.5q-72 0 -103 10l32 172
q17 -5 39 -5q21 0 30.5 10.5t13.5 35.5l62 395q6 37 21 69l5 8h217q-15 -27 -23 -72zM721 654q0 -56 -38.5 -92t-96.5 -36q-45 0 -73 23.5t-28 64.5q0 56 38.5 92t96.5 36q45 0 73 -23t28 -65z" />
    <glyph glyph-name="f_t" unicode="ft" horiz-adv-x="757" 
d="M716 557l-7 -47h101l-27 -166h-100q-1 -13 -9 -46q-14 -68 -14 -103q0 -24 33 -24q23 0 50 8l-18 -174q-73 -17 -143 -17q-149 0 -149 130q0 38 4 70q4 35 15 88l13 68h-151l-70 -441q-7 -40 -20 -69l-5 -9h-217q15 27 23 72l71 447h-58l27 166h57q16 101 71 148t158 47
q77 0 133 -15l-34 -152q-34 8 -62 8q-24 0 -34.5 -7.5t-13.5 -28.5h151l8 50q3 18 3 44l-2 31h217q3 -11 3 -33q0 -24 -4 -45z" />
    <glyph glyph-name=".notdef" horiz-adv-x="189" 
 />
    <glyph glyph-name=".null" horiz-adv-x="0" 
 />
    <glyph glyph-name="nonmarkingreturn" horiz-adv-x="333" 
 />
    <glyph glyph-name="space" unicode=" " horiz-adv-x="189" 
 />
    <glyph glyph-name="exclam" unicode="!" horiz-adv-x="339" 
d="M91 239l52 451h228l-91 -451h-189zM284 120q0 -59 -38.5 -95t-99.5 -36q-47 0 -75 22.5t-28 65.5q0 59 38.5 94.5t99.5 35.5q46 0 74.5 -22.5t28.5 -64.5z" />
    <glyph glyph-name="quotedbl" unicode="&#x22;" horiz-adv-x="567" 
d="M379 405l21 285h199l-69 -285h-151zM120 405l21 285h199l-69 -285h-151z" />
    <glyph glyph-name="numbersign" unicode="#" horiz-adv-x="688" 
d="M680 748l-70 -205h95l-17 -109h-115l-44 -128h103l-17 -109h-123l-71 -205h-117l71 205h-109l-70 -205h-118l71 205h-96l18 109h115l44 128h-103l17 109h123l71 205h117l-71 -205h108l71 205h117zM303 306h109l44 128h-109z" />
    <glyph glyph-name="dollar" unicode="$" 
d="M642 610l-96 -142q-47 44 -103 55l-18 -85q41 -19 62 -32q20 -10 49 -33q52 -41 52 -114q0 -103 -73 -173q-73 -68 -178 -79l-8 -37h-86l8 35q-119 10 -189 80l111 147q18 -22 55 -40q40 -20 66 -23l18 86q-71 29 -115 63q-53 41 -53 115q0 110 71 175q72 65 184 75l9 39
h86l-9 -42q42 -4 86 -23.5t71 -46.5zM357 461l15 65q-15 -1 -25 -12.5t-10 -26.5t20 -26zM380 234l-15 -67q24 4 33 25t-18 42z" />
    <glyph glyph-name="percent" unicode="%" horiz-adv-x="921" 
d="M896 217q0 -97 -62 -165q-61 -67 -160 -67q-73 0 -117 41.5t-44 112.5q0 100 61 165q61 67 161 67q73 0 117 -41.5t44 -112.5zM190 28l524 682l77 -53l-524 -682zM468 546q0 -97 -62 -165q-61 -67 -160 -67q-73 0 -117 41.5t-44 112.5q0 100 61 165q61 67 161 67
q73 0 117 -41.5t44 -112.5zM760 199q0 50 -45 50q-31 0 -47.5 -25.5t-16.5 -63.5q0 -48 43 -48q31 0 48.5 25.5t17.5 61.5zM333 528q0 50 -45 50q-31 0 -48 -25.5t-17 -63.5q0 -48 43 -48q31 0 49 25.5t18 61.5z" />
    <glyph glyph-name="ampersand" unicode="&#x26;" horiz-adv-x="790" 
d="M650 399l131 -91q-74 -92 -142 -140l126 -157l-2 -11h-246l-40 50q-98 -62 -211 -62q-98 0 -163 43q-66 44 -66 133q0 78 47.5 134.5t129.5 84.5q-42 54 -42 111q0 106 79 158q80 53 191 53q53 0 95 -13q46 -13 77 -48.5t31 -85.5q0 -64 -41 -120.5t-106 -87.5l47 -58
q59 49 105 107zM463 527q0 31 -39 31q-23 0 -37.5 -12t-14.5 -33q0 -11 4 -19q3 -5 10 -13t13 -15t7 -8q57 36 57 69zM383 173l-77 96q-58 -27 -58 -72q0 -20 16 -32.5t38 -12.5q50 0 81 21z" />
    <glyph glyph-name="quotesingle" unicode="'" horiz-adv-x="383" 
d="M158 405l21 285h199l-69 -285h-151z" />
    <glyph glyph-name="parenleft" unicode="(" horiz-adv-x="373" 
d="M313 800l125 -70q-87 -107 -143 -261q-55 -149 -55 -287q0 -82 16 -165q17 -87 46 -147l-148 -70q-50 99 -72.5 184t-22.5 181q0 175 62.5 326.5t191.5 308.5z" />
    <glyph glyph-name="parenright" unicode=")" horiz-adv-x="373" 
d="M366 435q0 -175 -62.5 -326.5t-191.5 -308.5l-125 70q86 108 142 261q55 150 55 287q0 81 -16 164q-15 87 -45 148l147 70q50 -99 72 -182q24 -84 24 -183z" />
    <glyph glyph-name="asterisk" unicode="*" horiz-adv-x="509" 
d="M370 591l135 55l18 -107l-145 -35l76 -124l-98 -63l-53 131l-95 -131l-78 63l115 124l-133 35l51 107l118 -55l10 134h112z" />
    <glyph glyph-name="plus" unicode="+" horiz-adv-x="735" 
d="M427 425h208v-160h-208v-205h-160v205h-207v160h207v205h160v-205z" />
    <glyph glyph-name="comma" unicode="," horiz-adv-x="339" 
d="M-39 -140l148 325h204l-172 -325h-180z" />
    <glyph glyph-name="hyphen" unicode="-" horiz-adv-x="373" 
d="M41 177l27 170h304l-27 -170h-304z" />
    <glyph glyph-name="period" unicode="." horiz-adv-x="339" 
d="M284 119q0 -59 -38.5 -94.5t-99.5 -35.5q-46 0 -74.5 22.5t-28.5 64.5q0 59 38.5 94.5t99.5 35.5q46 0 74.5 -22.5t28.5 -64.5z" />
    <glyph glyph-name="slash" unicode="/" horiz-adv-x="548" 
d="M-12 -46l527 850l111 -58l-528 -850z" />
    <glyph glyph-name="zero" unicode="0" 
d="M657 429q0 -66 -14 -129.5t-43 -120t-71 -99t-101.5 -67.5t-130.5 -25q-120 0 -183 72.5t-63 198.5q0 172 88 302q44 64 115 101.5t156 37.5q120 0 183.5 -72.5t63.5 -198.5zM443 415q0 96 -63 96q-31 0 -56 -25.5t-37 -66.5q-22 -76 -22 -140q0 -98 63 -98q31 0 55.5 26
t36.5 67q23 76 23 141z" />
    <glyph glyph-name="one" unicode="1" horiz-adv-x="485" 
d="M129 538l24 152h321l-109 -690h-211l86 538h-111z" />
    <glyph glyph-name="two" unicode="2" 
d="M629 529q0 -41 -15 -82q-15 -38 -33 -67q-16 -26 -55 -62q-41 -38 -59 -51l-69 -51l-62 -44h272l-27 -172h-525l-2 141l247 190q68 53 90 82q23 32 23 63q0 48 -68 48q-87 0 -170 -76l-58 156q112 96 280 96q44 0 83 -9t73.5 -27.5t54.5 -53t20 -81.5z" />
    <glyph glyph-name="three" unicode="3" 
d="M633 536q0 -65 -25.5 -102t-82.5 -69q38 -14 60 -48t22 -77q0 -62 -28 -111t-74 -79t-101.5 -45.5t-113.5 -15.5q-77 0 -149 27t-103 85l114 136q21 -34 63.5 -54.5t87.5 -20.5q38 0 66 20.5t28 53.5q0 37 -37 44q-11 3 -31 5q-13 1 -38 0q-16 -1 -27 -1l24 152
q11 0 30 -1q28 -1 38 0q3 0 7.5 1t11 3t11.5 3q35 10 35 51q0 40 -59 40q-84 0 -167 -55l-50 147q116 75 260 75q55 0 104.5 -15.5t86.5 -54.5t37 -94z" />
    <glyph glyph-name="four" unicode="4" 
d="M630 690l-62 -394h79l-27 -171h-79l-20 -125h-211l20 125h-312l27 175l341 390h244zM239 291h122l29 180z" />
    <glyph glyph-name="five" unicode="5" 
d="M114 339l104 351h439l-28 -172h-278l-19 -62q35 12 82 12q88 0 147 -50t59 -135q0 -135 -97 -214q-97 -80 -233 -80q-78 0 -149 27q-72 28 -103 85l114 136q21 -33 62.5 -54t83.5 -21q46 0 77.5 25.5t31.5 66.5q0 32 -23.5 48.5t-60.5 16.5q-65 0 -130 -35z" />
    <glyph glyph-name="six" unicode="6" 
d="M662 633l-96 -146q-59 43 -132 43q-56 0 -90.5 -34.5t-44.5 -94.5q61 54 161 54q76 0 122 -48q48 -47 48 -122q0 -132 -91 -214q-89 -82 -222 -82q-119 0 -184 74q-64 74 -64 195q0 118 42 216q43 99 132 162q88 64 208 64q60 0 118 -17.5t93 -49.5zM420 245
q0 27 -17.5 45t-44.5 18q-35 0 -61 -27t-26 -62q0 -28 17.5 -45.5t44.5 -17.5q36 0 61.5 26.5t25.5 62.5z" />
    <glyph glyph-name="seven" unicode="7" 
d="M146 690h491l42 -131l-362 -559h-228l346 519h-316z" />
    <glyph glyph-name="eight" unicode="8" 
d="M644 532q0 -61 -32.5 -108.5t-89.5 -66.5q91 -30 91 -125q0 -49 -18.5 -90t-49 -69t-71.5 -47t-85.5 -28t-91.5 -9q-45 0 -86.5 9t-79 28.5t-60 55.5t-22.5 84q0 69 37.5 120t102.5 71q-36 14 -56 44t-20 69q0 76 45 130q85 100 252 100q43 0 82 -8.5t74.5 -27
t56.5 -52.5t21 -80zM434 496q0 42 -50 42q-30 0 -48 -17.5t-18 -47.5q0 -42 49 -42q30 0 48.5 17.5t18.5 47.5zM404 235q0 24 -16.5 38t-42.5 14q-34 0 -57 -21.5t-23 -54.5q0 -24 16.5 -38t42.5 -14q34 0 57 21.5t23 54.5z" />
    <glyph glyph-name="nine" unicode="9" 
d="M638 431q0 -179 -97 -307q-48 -63 -122 -99t-162 -36q-61 0 -119 17.5t-93 49.5l96 146q61 -43 133 -43q55 0 90 35t45 94q-61 -54 -161 -54q-75 0 -124 47q-47 49 -47 123q0 130 90 213q92 83 224 83q117 0 182 -75q65 -74 65 -194zM437 470q0 28 -17.5 45.5t-45.5 17.5
q-35 0 -60.5 -26.5t-25.5 -62.5q0 -27 17.5 -45t44.5 -18q35 0 61 27t26 62z" />
    <glyph glyph-name="colon" unicode=":" horiz-adv-x="339" 
d="M334 433q0 -59 -38.5 -94.5t-99.5 -35.5q-46 0 -74.5 22.5t-28.5 64.5q0 59 38.5 95t99.5 36q47 0 75 -22.5t28 -65.5zM284 120q0 -59 -38.5 -95t-99.5 -36q-47 0 -75 22.5t-28 65.5q0 59 38.5 94.5t99.5 35.5q46 0 74.5 -22.5t28.5 -64.5z" />
    <glyph glyph-name="semicolon" unicode=";" horiz-adv-x="339" 
d="M334 433q0 -59 -38.5 -94.5t-99.5 -35.5q-46 0 -74.5 22.5t-28.5 64.5q0 59 38.5 95t99.5 36q47 0 75 -22.5t28 -65.5zM-39 -140l149 326h203l-172 -326h-180z" />
    <glyph glyph-name="less" unicode="&#x3c;" horiz-adv-x="735" 
d="M280 345l355 -105v-175l-575 190v180l575 190v-175z" />
    <glyph glyph-name="equal" unicode="=" horiz-adv-x="735" 
d="M60 555h575v-160h-575v160zM60 295h575v-160h-575v160z" />
    <glyph glyph-name="greater" unicode="&#x3e;" horiz-adv-x="735" 
d="M60 625l575 -190v-180l-575 -190v175l355 105l-355 105v175z" />
    <glyph glyph-name="question" unicode="?" horiz-adv-x="558" 
d="M573 536q0 -44 -16 -90q-8 -23 -44 -62q-8 -8 -32 -24l-32 -20l-38 -21q-7 -4 -16 -8.5t-14 -7.5t-8 -4q-11 -6 -17 -21q-6 -18 -6 -39h-184l4 34l5 33l7 26q8 24 20.5 37.5t42.5 31.5l28 13l45 22q21 11 38 26.5t17 27.5q0 31 -70 31q-71 0 -153 -48l-22 167
q107 60 241 60q82 0 143 -43t61 -121zM356 120q0 -59 -38.5 -95t-99.5 -36q-47 0 -75 22.5t-28 65.5q0 59 38.5 94.5t99.5 35.5q46 0 74.5 -22.5t28.5 -64.5z" />
    <glyph glyph-name="at" unicode="@" horiz-adv-x="776" 
d="M760 304q0 -72 -29 -142t-87 -116t-131 -46q-75 0 -83 56q-21 -24 -54 -40t-65 -16q-56 0 -86.5 33.5t-30.5 91.5q0 101 63 180q65 80 163 80q62 0 91 -33l7 19h103q-1 -1 -27 -72q-61 -162 -61 -189q0 -21 23 -21q35 0 62 40q52 77 52 166q0 90 -58.5 136.5t-157.5 46.5
q-138 0 -230 -101t-92 -240q0 -104 62.5 -162t170.5 -58q104 0 214 45l19 -67q-120 -58 -265 -58q-131 0 -213 81q-82 79 -82 211q0 176 123 302q125 126 301 126q126 0 212 -65t86 -188zM483 274q-21 25 -57 25q-54 0 -88 -45q-34 -44 -34 -101q0 -59 56 -59q51 0 75 47
q11 18 20 42q10 26 16 50q7 29 12 41z" />
    <glyph glyph-name="A" unicode="A" horiz-adv-x="688" 
d="M309 690h242l122 -690h-238l-10 97h-187l-41 -97h-228zM387 451l-76 -180h96z" />
    <glyph glyph-name="B" unicode="B" horiz-adv-x="640" 
d="M653 542q0 -131 -118 -179q48 -15 75 -50.5t27 -83.5q0 -59 -23.5 -104.5t-63.5 -72t-88 -39.5t-103 -13h-332l109 690h275q94 0 158 -23q84 -30 84 -125zM430 488q0 38 -52 38h-50l-15 -98h49q31 0 49.5 15.5t18.5 44.5zM419 235q0 42 -59 42h-71l-17 -108h74
q33 0 53 17t20 49z" />
    <glyph glyph-name="C" unicode="C" horiz-adv-x="616" 
d="M677 635l-89 -192q-26 27 -64.5 44t-74.5 17q-79 0 -129 -54q-49 -53 -49 -134q0 -56 35.5 -89t93.5 -33q98 0 168 63l35 -182q-97 -87 -250 -87q-135 0 -221 75q-85 76 -85 210q0 186 117 306q117 121 301 121q58 0 118 -16q63 -16 94 -49z" />
    <glyph glyph-name="D" unicode="D" horiz-adv-x="698" 
d="M714 424q0 -206 -115 -315q-113 -109 -316 -109h-256l109 690h251q70 0 126.5 -13.5t103 -43.5t72 -83t25.5 -126zM491 391q0 113 -117 113h-49l-50 -313h50q81 0 123.5 54.5t42.5 145.5z" />
    <glyph glyph-name="E" unicode="E" horiz-adv-x="562" 
d="M27 0l109 690h473l-29 -179h-254l-12 -73h240l-28 -179h-240l-12 -78h264l-29 -181h-482z" />
    <glyph glyph-name="F" unicode="F" horiz-adv-x="533" 
d="M27 0l109 690h463l-28 -179h-245l-17 -105h231l-29 -179h-230l-36 -227h-218z" />
    <glyph glyph-name="G" unicode="G" horiz-adv-x="718" 
d="M726 579l-165 -126q-49 61 -125 61q-77 0 -122 -65q-44 -65 -44 -145q0 -58 29.5 -93t82.5 -35q73 0 94 25l8 48h-101l27 169h314l-48 -308q-78 -65 -153 -94q-73 -27 -175 -27q-136 0 -218 75q-83 75 -83 209q0 186 116 307q115 120 302 120q87 0 149 -28.5t112 -92.5z
" />
    <glyph glyph-name="H" unicode="H" horiz-adv-x="718" 
d="M494 441l40 249h219l-110 -690h-219l41 254h-179l-40 -254h-219l109 690h219l-39 -249h178z" />
    <glyph glyph-name="I" unicode="I" horiz-adv-x="316" 
d="M27 0l109 690h219l-109 -690h-219z" />
    <glyph glyph-name="J" unicode="J" horiz-adv-x="315" 
d="M31 26l105 664h218l-105 -664q-18 -106 -69.5 -158.5t-147.5 -52.5q-94 0 -127 18l35 164q27 -10 52 -10q18 0 27 9t12 30z" />
    <glyph glyph-name="K" unicode="K" horiz-adv-x="659" 
d="M321 483l171 207h257l-259 -283l164 -407h-262l-74 228l-45 -48l-28 -180h-218l109 690h218z" />
    <glyph glyph-name="L" unicode="L" horiz-adv-x="504" 
d="M354 690l-80 -504h226l-29 -186h-444l109 690h218z" />
    <glyph glyph-name="M" unicode="M" horiz-adv-x="868" 
d="M460 319l142 371h280l-71 -690h-215l54 387l-146 -387h-189l-23 387l-69 -387h-215l148 690h280z" />
    <glyph glyph-name="N" unicode="N" horiz-adv-x="737" 
d="M540 574l19 116h213l-109 -690h-228l-139 380q-9 -86 -56 -380h-213l109 690h237l130 -380q3 35 13 115z" />
    <glyph glyph-name="O" unicode="O" horiz-adv-x="766" 
d="M780 415q0 -186 -119 -307q-119 -120 -304 -120q-139 0 -224 75q-86 75 -86 211q0 188 118 307q119 120 305 120q139 0 224 -75q86 -75 86 -211zM558 384q0 57 -32 91t-86 34q-75 0 -122 -59t-47 -136q0 -57 32 -91t86 -34q76 0 122 58q47 59 47 137z" />
    <glyph glyph-name="P" unicode="P" horiz-adv-x="606" 
d="M652 504q0 -139 -79 -214.5t-218 -75.5h-75l-34 -214h-219l109 690h289q107 0 167 -45.5t60 -140.5zM429 467q0 52 -67 52h-35l-21 -133h39q39 0 61.5 21t22.5 60z" />
    <glyph glyph-name="Q" unicode="Q" horiz-adv-x="766" 
d="M780 415q0 -175 -103 -291l58 -83l-148 -116l-65 92q-78 -29 -165 -29q-139 0 -224 75q-86 75 -86 211q0 188 118 307q119 120 305 120q139 0 224 -75q86 -75 86 -211zM558 384q0 57 -32 91t-86 34q-75 0 -122 -59t-47 -136q0 -57 31.5 -91t86.5 -34q1 0 6 0.5t6 0.5
l-15 20l148 116l12 -16q12 35 12 74z" />
    <glyph glyph-name="R" unicode="R" horiz-adv-x="640" 
d="M668 507q0 -77 -39 -142t-107 -103l108 -262h-252l-69 229h-27l-36 -229h-219l109 690h289q106 0 174.5 -42t68.5 -141zM444 472q0 23 -17.5 35t-45.5 12h-54l-19 -118h57q34 0 56.5 19.5t22.5 51.5z" />
    <glyph glyph-name="S" unicode="S" horiz-adv-x="553" 
d="M611 615l-108 -162q-32 28 -74.5 47t-78.5 19q-51 0 -51 -27q0 -10 14.5 -19t37 -17t50 -17.5t55.5 -24t50.5 -33t37 -48.5t14.5 -67q0 -88 -48 -152q-91 -126 -277 -126q-135 0 -242 93l125 171q31 -31 77 -52q51 -23 89 -23q51 0 51 27q0 14 -23 26t-68 26
q-167 48 -166 172q0 128 90 199q91 71 222 71q56 0 120 -24q65 -23 103 -59z" />
    <glyph glyph-name="T" unicode="T" horiz-adv-x="534" 
d="M60 513l28 177h531l-28 -177h-156l-81 -513h-219l81 513h-156z" />
    <glyph glyph-name="U" unicode="U" horiz-adv-x="698" 
d="M454 285l64 405h220l-62 -395q-50 -306 -352 -306q-119 0 -190 55q-72 56 -72 167q0 38 7 84l63 395h220l-64 -405q-3 -17 -3 -32q0 -32 19.5 -49.5t50.5 -17.5q83 0 99 99z" />
    <glyph glyph-name="V" unicode="V" horiz-adv-x="698" 
d="M372 293l187 397h232l-359 -690h-213l-141 690h233z" />
    <glyph glyph-name="W" unicode="W" horiz-adv-x="984" 
d="M706 310l141 380h228l-297 -690h-223l-27 386l-149 -386h-222l-79 690h228l21 -380l141 380h217z" />
    <glyph glyph-name="X" unicode="X" horiz-adv-x="698" 
d="M406 507l122 183h261l-261 -330l164 -360h-261l-71 218l-139 -218h-262l278 360l-157 330h262z" />
    <glyph glyph-name="Y" unicode="Y" 
d="M372 460l134 230h243l-298 -420l-42 -270h-219l43 270l-165 420h243z" />
    <glyph glyph-name="Z" unicode="Z" horiz-adv-x="640" 
d="M98 509l29 181h558l-24 -156l-342 -348h301l-29 -186h-583l25 161l342 348h-277z" />
    <glyph glyph-name="bracketleft" unicode="[" horiz-adv-x="373" 
d="M11 -163l146 926h266l-15 -100h-99l-115 -726h99l-16 -100h-266z" />
    <glyph glyph-name="backslash" unicode="\" horiz-adv-x="548" 
d="M122 741l119 54l249 -846l-119 -54z" />
    <glyph glyph-name="bracketright" unicode="]" horiz-adv-x="373" 
d="M132 663l16 100h266l-147 -926h-266l16 100h98l115 726h-98z" />
    <glyph glyph-name="asciicircum" unicode="^" horiz-adv-x="735" 
d="M257 725h180l190 -425h-175l-105 250l-105 -250h-175z" />
    <glyph glyph-name="underscore" unicode="_" horiz-adv-x="500" 
d="M500 78v-156h-500v156h500z" />
    <glyph glyph-name="grave" unicode="`" horiz-adv-x="485" 
d="M208 690h175l45 -145h-151z" />
    <glyph glyph-name="a" unicode="a" horiz-adv-x="642" 
d="M584 35l3 -35h-203q-4 11 -4 35q0 5 2 19q-62 -66 -164 -66q-90 0 -140 59q-49 58 -49 150q0 84 31 155q32 75 96 121.5t146 46.5q96 0 133 -52q1 11 4 42h217l-69 -438q-3 -21 -3 -37zM408 277q0 30 -17 48.5t-47 18.5q-40 0 -66 -32q-25 -31 -25 -73q0 -30 17.5 -49
t46.5 -19q39 0 65 31.5t26 74.5z" />
    <glyph glyph-name="b" unicode="b" horiz-adv-x="642" 
d="M31 72l86 540q8 48 21 70l4 8h216q-15 -27 -23 -72l-25 -150q52 52 148 52q90 0 140 -59q49 -58 49 -150q0 -128 -74 -226q-73 -97 -199 -97q-101 0 -142 65h-1l-19 -53h-204q15 27 23 72zM425 277q0 30 -17 48.5t-47 18.5q-40 0 -65.5 -31t-25.5 -74q0 -30 17 -49
t47 -19q39 0 65 31.5t26 74.5z" />
    <glyph glyph-name="c" unicode="c" horiz-adv-x="475" 
d="M508 480l-61 -172q-39 36 -96 36q-45 0 -74 -30t-29 -75q0 -68 81 -68q58 0 107 36l11 -172q-32 -23 -85 -35q-52 -12 -101 -12q-102 0 -166 58q-65 59 -65 158q0 138 89 227t227 89q95 0 162 -40z" />
    <glyph glyph-name="d" unicode="d" horiz-adv-x="642" 
d="M672 612l-85 -540q-3 -21 -3 -37l3 -35h-203q-4 11 -4 35q0 5 2 19q-62 -66 -164 -66q-90 0 -140 59q-49 58 -49 150q0 84 31 155q32 75 96 121.5t146 46.5q96 0 133 -52q0 2 21 150q3 22 3 41l-2 31h216q3 -10 3 -33q0 -24 -4 -45zM408 277q0 30 -17 48.5t-47 18.5
q-40 0 -66 -32q-25 -31 -25 -73q0 -30 17.5 -49t46.5 -19q39 0 65 31.5t26 74.5z" />
    <glyph glyph-name="e" unicode="e" horiz-adv-x="552" 
d="M362 184q-55 0 -131 21q8 -71 98 -71q71 0 132 36l63 -107q-44 -32 -99 -53q-51 -18 -82 -21t-75 -3q-106 0 -173 54q-66 56 -66 157q0 141 90 231q91 91 228 91q90 0 150 -42q61 -40 61 -128q0 -165 -196 -165zM245 308q36 -6 64 -6q82 0 82 56q0 41 -52 41
q-30 0 -59 -28q-29 -29 -35 -63z" />
    <glyph glyph-name="f" unicode="f" horiz-adv-x="364" 
d="M25 -103l71 447h-58l27 166h57q16 101 71 148t158 47q77 0 133 -15l-34 -152q-34 8 -62 8q-24 0 -34.5 -7.5t-13.5 -28.5h96l-26 -166h-96l-70 -441q-7 -40 -20 -69l-5 -9h-217q15 27 23 72z" />
    <glyph glyph-name="g" unicode="g" horiz-adv-x="642" 
d="M646 438l-54 -343q-43 -280 -372 -280q-70 0 -135.5 19.5t-108.5 56.5l105 141q71 -50 155 -50q126 0 137 96q-57 -54 -149 -54q-87 0 -139.5 53.5t-52.5 141.5q0 127 73 213q73 88 197 88q89 0 131 -57q6 27 15 42l3 5h218q-15 -27 -23 -72zM409 283q0 28 -18.5 45.5
t-46.5 17.5q-36 0 -62.5 -26.5t-26.5 -63.5q0 -28 18.5 -45.5t46.5 -17.5q36 0 62.5 27t26.5 63z" />
    <glyph glyph-name="h" unicode="h" horiz-adv-x="611" 
d="M563 35l3 -35h-217q-4 11 -4 35q0 23 4 43l27 172q4 25 4 42q0 45 -39 45q-30 0 -43.5 -21.5t-20.5 -65.5l-39 -250h-218l97 618q3 22 3 41l-2 31h218q3 -10 3 -33q0 -21 -4 -42l-28 -167q55 72 147 72q154 0 154 -151q0 -35 -6 -69l-36 -228q-3 -21 -3 -37z" />
    <glyph glyph-name="i" unicode="i" horiz-adv-x="296" 
d="M345 654q0 -56 -38.5 -92t-96.5 -36q-45 0 -73 23.5t-28 64.5q0 56 38.5 92t96.5 36q45 0 73 -23t28 -65zM244 35l3 -35h-217q-4 11 -4 35q0 23 4 43l57 360q3 21 3 37l-3 35h217q3 -14 3 -36q0 -26 -3 -42l-57 -360q-3 -21 -3 -37z" />
    <glyph glyph-name="j" unicode="j" horiz-adv-x="296" 
d="M305 438l-66 -412q-18 -108 -72 -159.5t-156 -51.5q-72 0 -103 10l32 172q17 -5 39 -5q21 0 30.5 10.5t13.5 35.5l62 395q6 37 21 69l5 8h217q-15 -27 -23 -72zM345 654q0 -56 -38.5 -92t-96.5 -36q-45 0 -73 23.5t-28 64.5q0 56 38.5 92t96.5 36q45 0 73 -23t28 -65z
" />
    <glyph glyph-name="k" unicode="k" horiz-adv-x="596" 
d="M335 612l-37 -234l122 133h248l-199 -196l122 -315h-247l-52 154l-35 -34l-19 -120h-218l97 618q3 22 3 41l-2 31h218q3 -10 3 -33q0 -24 -4 -45z" />
    <glyph glyph-name="l" unicode="l" horiz-adv-x="301" 
d="M246 35l3 -35h-217q-4 11 -4 35q0 23 4 43l85 540q3 22 3 41l-2 31h217q3 -10 3 -33q0 -24 -4 -45l-85 -540q-3 -21 -3 -37z" />
    <glyph glyph-name="m" unicode="m" horiz-adv-x="904" 
d="M848 35l3 -35h-215q-4 11 -4 35q0 23 4 43l18 101q13 68 13 115q0 42 -34 42q-42 0 -54 -76l-41 -260h-218l15 88q29 157 29 206q0 42 -33 42q-42 0 -54 -76l-42 -260h-218l69 438q3 21 3 37l-3 35h216q5 -20 5 -35q0 -13 -3 -27q62 72 142 72q114 0 134 -83
q34 44 73.5 63.5t95.5 19.5q145 0 145 -152q0 -21 -6 -63l-37 -233q-3 -21 -3 -37z" />
    <glyph glyph-name="n" unicode="n" horiz-adv-x="613" 
d="M560 35l3 -35h-216q-4 11 -4 35q0 23 4 43l27 172q4 25 4 41q0 45 -40 45q-24 0 -37 -15q-13 -14 -17.5 -27t-8.5 -44l-40 -250h-218l70 438q3 22 3 41l-2 31h215q4 -9 4 -28q0 -18 -3 -34q62 72 147 72q155 0 155 -151q0 -35 -6 -69l-37 -228q-3 -21 -3 -37z" />
    <glyph glyph-name="o" unicode="o" horiz-adv-x="601" 
d="M606 305q0 -144 -93 -231q-92 -86 -237 -86q-108 0 -178 55q-69 55 -69 160q0 145 93 230q93 87 238 87q109 0 177 -55q69 -55 69 -160zM387 280q0 30 -14 47t-41 17q-39 0 -61 -34q-21 -34 -21 -75q0 -64 55 -64q39 0 60 34q22 34 22 75z" />
    <glyph glyph-name="p" unicode="p" horiz-adv-x="640" 
d="M219 -175h-218q-4 11 -4 35q0 23 4 43l86 535q3 22 3 41l-2 31h203q4 -9 4 -27q0 -5 -2 -21h1q67 58 162 58q89 0 139 -59t50 -150q0 -84 -31 -156q-32 -75 -96 -121t-146 -46q-99 0 -131 59q-5 -55 -22 -150q-3 -21 -3 -37zM422 276q0 30 -17 49t-47 19q-39 0 -65 -31.5
t-26 -74.5q0 -30 17 -48.5t47 -18.5q40 0 65.5 31t25.5 74z" />
    <glyph glyph-name="q" unicode="q" horiz-adv-x="640" 
d="M341 -103q15 101 27 150q-53 -59 -150 -59q-91 0 -140 58t-49 151q0 83 31 154q31 73 94 121q64 48 148 48q95 0 144 -58q4 26 16 43l3 5h203q-15 -27 -23 -72l-85 -537q-7 -38 -20 -67l-5 -9h-217q17 31 23 72zM408 276q0 30 -17.5 49t-46.5 19q-39 0 -65 -31.5
t-26 -74.5q0 -30 17 -48.5t47 -18.5q39 0 65 32t26 73z" />
    <glyph glyph-name="r" unicode="r" horiz-adv-x="427" 
d="M484 510l-42 -206h-11q-27 15 -60 15q-86 0 -104 -119l-32 -200h-218l70 439q2 20 2 40l-2 31h215q4 -11 4 -28q0 -18 -3 -34h1q52 72 133 72q34 0 47 -10z" />
    <glyph glyph-name="s" unicode="s" horiz-adv-x="473" 
d="M501 463l-79 -127q-28 19 -65.5 32.5t-67.5 13.5q-29 0 -29 -15q0 -13 71 -35q131 -39 131 -141q-1 -99 -75.5 -152.5t-178.5 -51.5q-136 0 -215 71l94 134q26 -21 72 -38q44 -16 80 -16q28 0 28 15q0 11 -21 19.5t-50.5 17t-59 21.5t-50.5 40.5t-21 67.5q0 97 69 149
q71 53 169 53q113 0 198 -58z" />
    <glyph glyph-name="t" unicode="t" horiz-adv-x="393" 
d="M352 557l-7 -47h101l-27 -166h-100q-1 -13 -9 -46q-14 -68 -14 -103q0 -24 33 -24q23 0 50 8l-18 -174q-73 -17 -143 -17q-149 0 -149 130q0 38 4 70q4 35 15 88l13 68h-67l26 166h67l8 50q3 18 3 44l-2 31h217q3 -11 3 -33q0 -24 -4 -45z" />
    <glyph glyph-name="u" unicode="u" horiz-adv-x="604" 
d="M301 432l-24 -147q-8 -53 -8 -69q0 -42 36 -42q45 0 55 66l43 270h218l-70 -438q-3 -21 -3 -37l3 -35h-211q-5 12 -5 33q0 8 1 11q-64 -56 -142 -56q-73 0 -113 37.5t-40 106.5q0 35 6 68l37 238q3 22 3 41l-2 31h217q3 -10 3 -33q0 -24 -4 -45z" />
    <glyph glyph-name="v" unicode="v" horiz-adv-x="591" 
d="M315 248l119 262h223l-280 -510h-208l-119 510h227z" />
    <glyph glyph-name="w" unicode="w" horiz-adv-x="858" 
d="M595 244l103 266h219l-240 -510h-208l-25 246l-103 -246h-208l-78 510h218l19 -266l104 266h179z" />
    <glyph glyph-name="x" unicode="x" horiz-adv-x="616" 
d="M346 387l79 123h247l-214 -245l153 -265h-248l-57 134l-100 -134h-247l237 265l-137 245h247z" />
    <glyph glyph-name="y" unicode="y" horiz-adv-x="591" 
d="M315 248l119 262h223l-284 -520q-16 -30 -40 -66q-16 -24 -43 -53q-50 -56 -133 -56q-109 0 -174 30l69 162q31 -16 66 -16q36 0 47 29l-115 490h227z" />
    <glyph glyph-name="z" unicode="z" horiz-adv-x="519" 
d="M53 344l26 166h477l-19 -121l-239 -213h215l-28 -176h-496l20 126l244 218h-200z" />
    <glyph glyph-name="braceleft" unicode="{" horiz-adv-x="373" 
d="M300 763h128l-16 -100h-29q-28 1 -47 -3q-11 -3 -18 -10.5t-10 -16.5t-9 -31l-26 -167q-17 -113 -105 -131l-1 -8q67 -15 67 -91q0 -37 -17 -117q-16 -74 -16 -115q0 -28 25 -34q14 -3 22 -3h17.5t19.5 0.5t12 0.5l-15 -100h-129q-62 0 -92.5 24t-30.5 79q0 39 17 122
t17 122q0 50 -48 50l21 132q16 0 28.5 5t21 17.5t13.5 23.5t9 33t5.5 35.5t4.5 42t4 41.5q7 49 20 96q13 46 53.5 74.5t103.5 28.5z" />
    <glyph glyph-name="bar" unicode="|" horiz-adv-x="385" 
d="M100 800h145v-975h-145v975z" />
    <glyph glyph-name="braceright" unicode="}" horiz-adv-x="373" 
d="M409 366l-21 -132q-35 0 -55 -29q-11 -18 -16 -42.5t-9 -65.5t-7 -62q-9 -58 -20 -95q-13 -46 -53 -74.5t-103 -28.5h-128l15 100h29q29 -1 46 3q12 3 19 11t10 15.5t9 31.5l27 167q17 113 104 131l2 8q-67 15 -67 91q0 42 16 116q16 76 16 116q0 28 -25 34q-14 3 -23 3
h-16t-19 -0.5t-13 -0.5l16 100h128q62 0 92.5 -24t30.5 -79q0 -39 -17 -122q-16 -79 -16 -122q0 -50 48 -50z" />
    <glyph glyph-name="asciitilde" unicode="~" horiz-adv-x="735" 
d="M555 455l90 -120q-36 -48 -86.5 -76.5t-103.5 -28.5t-86 14q-11 5 -26.5 12.5t-17.5 8.5q-49 25 -85 25q-24 0 -52.5 -16t-47.5 -39l-90 120q36 48 86.5 76.5t103.5 28.5t86 -14q11 -5 26.5 -12.5t17.5 -8.5q49 -25 85 -25q24 0 52.5 16t47.5 39z" />
    <glyph glyph-name="nbspace" unicode="&#xa0;" horiz-adv-x="189" 
 />
    <glyph glyph-name="exclamdown" unicode="&#xa1;" horiz-adv-x="339" 
d="M334 433q0 -59 -38.5 -94.5t-99.5 -35.5q-46 0 -74.5 22.5t-28.5 64.5q0 59 38.5 95t99.5 36q47 0 75 -22.5t28 -65.5zM6 -180l90 451h189l-52 -451h-227z" />
    <glyph glyph-name="cent" unicode="&#xa2;" 
d="M604 540l-66 -172q-31 20 -56 26l-28 -178q37 6 74 26l13 -162q-43 -28 -114 -39l-12 -71h-100l11 68q-98 7 -156 63.5t-58 150.5q0 136 82 222q82 87 216 96l11 70h101l-12 -72q55 -11 94 -28zM356 227l25 161q-58 -28 -58 -101q0 -41 33 -60z" />
    <glyph glyph-name="sterling" unicode="&#xa3;" 
d="M649 640l-84 -132q-46 35 -96 35q-37 0 -53 -27q-6 -10 -10 -29q-4 -24 -4 -61l1 -20h137l-20 -122h-139q-12 -67 -29 -122h250l-26 -162h-544l25 162h106q14 43 29 122h-86l19 122h89l-1 16q-1 134 63.5 206t193.5 72q101 0 179 -60z" />
    <glyph glyph-name="currency" unicode="&#xa4;" 
d="M689 650l-79 -162q-53 43 -114 43q-72 0 -96 -40h129l-19 -122h-161q-5 -20 -6 -40h160l-19 -122h-129q5 -39 79 -39q72 0 142 49l28 -167q-94 -61 -218 -61q-228 0 -254 218h-58l19 122h42q1 20 6 40h-41l19 122h63q92 209 317 209q51 0 103 -13q56 -12 87 -37z" />
    <glyph glyph-name="yen" unicode="&#xa5;" 
d="M372 462l125 228h237l-197 -274h105l-19 -122h-175l-7 -40h175l-19 -122h-175l-21 -132h-204l21 132h-175l19 122h176l6 40h-175l19 122h105l-110 274h237z" />
    <glyph glyph-name="brokenbar" unicode="&#xa6;" horiz-adv-x="385" 
d="M100 800h145v-390h-145v390zM100 250h145v-426h-145v426z" />
    <glyph glyph-name="section" unicode="&#xa7;" horiz-adv-x="703" 
d="M663 604l-110 -111q-24 29 -58 47t-67 18q-59 0 -59 -31q0 -17 20.5 -32t50.5 -26t66 -27t66 -34.5t50.5 -50.5t20.5 -73q0 -52 -27.5 -96.5t-72.5 -65.5q27 -33 27 -87q0 -57 -24.5 -101t-66.5 -69t-91 -37.5t-104 -12.5q-174 0 -240 111l130 116q16 -30 56 -55t75 -25
q67 0 67 39q0 31 -95 67q-34 12 -60 25t-55 33.5t-44.5 50t-14.5 64.5q0 51 27.5 98t71.5 71q-26 28 -26 79q1 101 78.5 157t184.5 54q146 0 224 -96zM466 232q0 30 -39 47l-139 60q-15 -23 -15 -45q0 -27 40 -43l139 -60q14 16 14 41z" />
    <glyph glyph-name="dieresis" unicode="&#xa8;" horiz-adv-x="485" 
d="M500 632q0 -39 -27.5 -67t-66.5 -28q-31 0 -50 18t-19 48q0 39 27.5 67t66.5 28q31 0 50 -18t19 -48zM298 632q0 -39 -27.5 -67t-66.5 -28q-30 0 -49 18t-19 48q0 39 27.5 67t66.5 28q30 0 49 -18t19 -48z" />
    <glyph glyph-name="copyright" unicode="&#xa9;" horiz-adv-x="750" 
d="M607 597q103 -102 103 -252t-103 -253q-102 -102 -252 -102q-149 0 -253 102q-102 104 -102 253q0 150 102 252q103 103 253 103t252 -103zM566 134q84 84 84 211t-84 211t-211 84t-211 -84t-84 -211t84 -211t211 -84t211 84zM485 275l40 -85q-60 -60 -153 -60
q-96 0 -160 59q-62 60 -62 156t62 155q63 60 160 60q93 0 148 -55l-40 -85q-45 45 -105 45q-50 0 -82.5 -31.5t-32.5 -86.5t32 -86t83 -31q65 0 110 45z" />
    <glyph glyph-name="ordfeminine" unicode="&#xaa;" horiz-adv-x="388" 
d="M398 406q0 -25 -5 -63q-5 -39 -13 -75l-11 -62h-129v28q-37 -34 -84 -34q-45 0 -72.5 20.5t-27.5 60.5q0 79 67 99q55 17 127 18h12l1 8q0 20 -43 20q-57 0 -103 -28l-18 89q75 31 153 31q146 0 146 -112zM246 293l6 39q-5 0 -12 -1q-14 0 -25 -4q-20 -5 -20 -28
q0 -18 24 -18q13 0 27 12z" />
    <glyph glyph-name="guillemotleft" unicode="&#xab;" horiz-adv-x="630" 
d="M314 255l202 235l89 -70l-139 -165l86 -165l-111 -70zM86 255l202 235l89 -70l-139 -165l86 -165l-111 -70z" />
    <glyph glyph-name="logicalnot" unicode="&#xac;" horiz-adv-x="735" 
d="M60 530h575v-370h-160v210h-415v160z" />
    <glyph glyph-name="uni00AD" unicode="&#xad;" horiz-adv-x="373" 
d="M41 177l27 170h304l-27 -170h-304z" />
    <glyph glyph-name="registered" unicode="&#xae;" horiz-adv-x="750" 
d="M607 597q103 -102 103 -252t-103 -253q-102 -102 -252 -102q-149 0 -253 102q-102 104 -102 253q0 150 102 252q103 103 253 103t252 -103zM566 134q84 84 84 211t-84 211t-211 84t-211 -84t-84 -211t84 -211t211 -84t211 84zM450 305l95 -170h-125l-75 155h-31v-155
h-107v420h165q74 0 115 -34.5t41 -95.5q0 -91 -78 -120zM420 422q0 48 -65 48h-41v-95h41q65 0 65 47z" />
    <glyph glyph-name="overscore" unicode="&#xaf;" horiz-adv-x="485" 
d="M129 567l16 100h362l-16 -100h-362z" />
    <glyph glyph-name="degree" unicode="&#xb0;" horiz-adv-x="450" 
d="M205 395q-73 0 -123 49q-50 50 -50 121q0 70 50 120q52 50 123 50t121 -50q51 -49 51 -120t-51 -121q-49 -49 -121 -49zM205 482q34 0 58 24.5t24 58.5t-24 58t-58 24t-57 -24t-23 -58t23.5 -58.5t56.5 -24.5z" />
    <glyph glyph-name="plusminus" unicode="&#xb1;" horiz-adv-x="735" 
d="M430 520h205v-160h-205v-150h-165v150h-205v160h205v150h165v-150zM60 180h575v-160h-575v160z" />
    <glyph glyph-name="twosuperior" unicode="&#xb2;" horiz-adv-x="436" 
d="M448 594q0 -37 -13 -59q-15 -32 -32 -47q-5 -5 -17.5 -17t-26.5 -23l-8 -6t-7 -5t-5 -3.5t-3 -2.5l-26 -17l-24 -15h152l-19 -119h-333l-5 93l147 108l14 10q24 18 31 24q26 23 26 47q0 17 -31 17q-50 0 -113 -51l-36 112q35 27 85 43.5t96 16.5q60 0 104 -26t44 -80z
" />
    <glyph glyph-name="threesuperior" unicode="&#xb3;" horiz-adv-x="436" 
d="M459 600q0 -68 -57 -100q44 -23 44 -72q0 -69 -63 -113q-61 -43 -134 -43q-113 0 -172 74l83 96q14 -21 41 -36t52 -15q47 0 47 33q0 17 -25 19q-6 1 -58 1l17 104q2 0 17.5 -1t21.5 -1q13 1 20.5 3t14 8.5t6.5 17.5q0 14 -30 14q-49 0 -105 -38l-35 101q80 48 168 48
q55 0 101 -25t46 -75z" />
    <glyph glyph-name="acute" unicode="&#xb4;" horiz-adv-x="485" 
d="M185 545l91 145h175l-115 -145h-151z" />
    <glyph glyph-name="mu" unicode="&#xb5;" horiz-adv-x="604" 
d="M360 240l43 270h218l-81 -511h-208l4 44q-45 -37 -117 -39l-16 -179h-216l109 685h218l-16 -86q-29 -153 -29 -209q0 -42 36 -42q45 0 55 67z" />
    <glyph glyph-name="paragraph" unicode="&#xb6;" horiz-adv-x="703" 
d="M358 690h380l-22 -142h-39l-114 -723h-136l114 723h-89l-115 -723h-136l61 384q-90 4 -141 53t-51 136q0 132 77 212t211 80z" />
    <glyph glyph-name="middot" unicode="&#xb7;" horiz-adv-x="485" 
d="M384 312q0 -56 -38.5 -91.5t-96.5 -35.5q-45 0 -72.5 23t-27.5 65q0 56 38 91.5t96 35.5q45 0 73 -23t28 -65z" />
    <glyph glyph-name="cedilla" unicode="&#xb8;" horiz-adv-x="485" 
d="M87 -150l111 150h132l-92 -150h-151z" />
    <glyph glyph-name="onesuperior" unicode="&#xb9;" horiz-adv-x="436" 
d="M167 584l17 106h223l-66 -415h-150l48 309h-72z" />
    <glyph glyph-name="ordmasculine" unicode="&#xba;" horiz-adv-x="436" 
d="M431 388q0 -85 -58 -137q-59 -51 -145 -51q-68 0 -111 34.5t-43 95.5q0 85 58 136q58 52 146 52q67 0 110 -34.5t43 -95.5zM294 374q0 40 -32 40q-23 0 -36.5 -20.5t-13.5 -47.5q0 -40 33 -40q22 0 35.5 20.5t13.5 47.5z" />
    <glyph glyph-name="guillemotright" unicode="&#xbb;" horiz-adv-x="630" 
d="M340 420l112 70l126 -235l-201 -235l-89 70l139 165zM112 420l111 70l127 -235l-201 -235l-89 70l139 165z" />
    <glyph glyph-name="onequarter" unicode="&#xbc;" horiz-adv-x="970" 
d="M925 416l-36 -230h53l-18 -111h-53l-12 -75h-150l11 75h-211l16 101l236 240h164zM178 28l524 682l77 -53l-524 -682zM129 583l17 107h223l-66 -416h-151l49 309h-72zM664 186h77l14 91z" />
    <glyph glyph-name="onehalf" unicode="&#xbd;" horiz-adv-x="970" 
d="M922 315q0 -37 -13 -59q-16 -34 -32 -48l-20 -20q-5 -7 -24 -20q-23 -16 -24 -17q-21 -14 -26 -17l-23 -15h152l-19 -119h-333l-5 94l147 107l13 10q25 18 32 24q26 23 26 48q0 16 -30 16q-52 0 -114 -50l-36 111q35 27 85 44t96 17q61 0 104 -25q44 -26 44 -81zM163 28
l524 682l78 -53l-525 -682zM119 583l17 107h223l-66 -416h-151l49 309h-72z" />
    <glyph glyph-name="threequarters" unicode="&#xbe;" horiz-adv-x="970" 
d="M925 416l-36 -230h53l-18 -111h-53l-12 -75h-150l11 75h-211l16 101l236 240h164zM233 28l524 682l77 -53l-524 -682zM459 600q0 -68 -57 -100q44 -23 44 -72q0 -69 -63 -113q-61 -43 -134 -43q-114 0 -172 73l83 96q14 -21 41 -35.5t52 -14.5q47 0 47 33q0 17 -25 19
q-6 1 -58 1l17 104q2 0 17.5 -1t21.5 -1q13 1 20.5 3t14 8.5t6.5 17.5q0 13 -30 13q-50 0 -105 -38l-35 102q80 48 168 48q55 0 101 -25t46 -75zM664 186h77l14 91z" />
    <glyph glyph-name="questiondown" unicode="&#xbf;" horiz-adv-x="558" 
d="M482 433q0 -59 -38 -94.5t-99 -35.5q-46 0 -74.5 22.5t-28.5 64.5q0 59 38.5 95t98.5 36q47 0 75 -22.5t28 -65.5zM447 37l22 -167q-106 -60 -241 -60q-82 0 -143 43q-60 43 -60 121q0 41 15 90q7 21 44 61q7 9 32 25q24 16 32 20l38 21l38 20q15 7 18 25q1 4 2.5 11
t2.5 15t1 9h184l-5 -35q-4 -34 -12 -59q-7 -23 -20 -37t-42 -31q-16 -4 -56 -26q-72 -39 -72 -63q0 -31 70 -31q72 0 152 48z" />
    <glyph glyph-name="Agrave" unicode="&#xc0;" horiz-adv-x="688" 
d="M300 865h175l45 -147h-151zM309 690h242l122 -690h-238l-10 97h-187l-41 -97h-228zM387 451l-76 -180h96z" />
    <glyph glyph-name="Aacute" unicode="&#xc1;" horiz-adv-x="688" 
d="M349 718l91 147h176l-116 -147h-151zM309 690h242l122 -690h-238l-10 97h-187l-41 -97h-228zM387 451l-76 -180h96z" />
    <glyph glyph-name="Acircumflex" unicode="&#xc2;" horiz-adv-x="688" 
d="M349 865h217l55 -147h-141l-33 79l-57 -79h-142zM309 690h242l122 -690h-238l-10 97h-187l-41 -97h-228zM387 451l-76 -180h96z" />
    <glyph glyph-name="Atilde" unicode="&#xc3;" horiz-adv-x="688" 
d="M568 865l86 -10q-7 -55 -54 -97q-45 -42 -99 -42q-41 0 -76 22q-35 23 -49 23q-32 0 -51 -43l-87 10q9 55 54 97t99 42q41 0 75 -22q35 -22 50 -22q31 0 52 42zM309 690h242l122 -690h-238l-10 97h-187l-41 -97h-228zM387 451l-76 -180h96z" />
    <glyph glyph-name="Adieresis" unicode="&#xc4;" horiz-adv-x="688" 
d="M626 804q0 -39 -28 -67.5t-67 -28.5q-30 0 -49 18t-19 48q0 40 27 68t67 28q31 0 50 -18t19 -48zM429 804q0 -39 -27.5 -67.5t-66.5 -28.5q-30 0 -49.5 18t-19.5 48q0 40 27.5 68t66.5 28q31 0 50 -18t19 -48zM309 690h242l122 -690h-238l-10 97h-187l-41 -97h-228z
M387 451l-76 -180h96z" />
    <glyph glyph-name="Aring" unicode="&#xc5;" horiz-adv-x="688" 
d="M576 825q0 -59 -41.5 -95.5t-103.5 -36.5q-49 0 -79.5 23.5t-30.5 67.5q0 59 41 95t104 36q49 0 79.5 -23t30.5 -67zM309 690h242l122 -690h-238l-10 97h-187l-41 -97h-228zM496 814q0 34 -41 34q-24 0 -39.5 -14.5t-15.5 -38.5q0 -35 41 -35q24 0 39.5 15t15.5 39z
M387 451l-76 -180h96z" />
    <glyph glyph-name="AE" unicode="&#xc6;" horiz-adv-x="916" 
d="M-65 0l466 690h558l-28 -179h-226l-11 -73h211l-29 -179h-211l-12 -78h235l-29 -181h-453l16 97h-181l-59 -97h-247zM344 271h105l38 239z" />
    <glyph glyph-name="Ccedilla" unicode="&#xc7;" horiz-adv-x="616" 
d="M677 634l-89 -191q-27 27 -65 43.5t-74 16.5q-79 0 -129 -54q-49 -53 -49 -134q0 -56 35 -88.5t93 -32.5q98 0 169 63l35 -182q-78 -67 -179 -81l-83 -144h-190l99 150q-96 26 -149.5 98t-53.5 174q0 185 116 307q117 121 302 121q56 0 119 -17q62 -17 93 -49z" />
    <glyph glyph-name="Egrave" unicode="&#xc8;" horiz-adv-x="562" 
d="M264 865h175l45 -147h-151zM27 0l109 690h473l-29 -179h-254l-12 -73h240l-28 -179h-240l-12 -77h264l-29 -182h-482z" />
    <glyph glyph-name="Eacute" unicode="&#xc9;" horiz-adv-x="562" 
d="M270 718l91 147h175l-115 -147h-151zM27 0l109 690h473l-29 -179h-254l-12 -73h240l-28 -179h-240l-12 -77h264l-29 -182h-482z" />
    <glyph glyph-name="Ecircumflex" unicode="&#xca;" horiz-adv-x="562" 
d="M292 865h217l54 -147h-141l-33 79l-57 -79h-141zM27 0l109 690h473l-29 -179h-254l-12 -73h240l-28 -179h-240l-12 -77h264l-29 -182h-482z" />
    <glyph glyph-name="Edieresis" unicode="&#xcb;" horiz-adv-x="562" 
d="M570 804q0 -39 -27.5 -67.5t-66.5 -28.5q-30 0 -49 18t-19 48q0 40 27 68t67 28q30 0 49 -18t19 -48zM371 804q0 -39 -27.5 -67.5t-66.5 -28.5q-30 0 -49.5 18t-19.5 48q0 40 27.5 68t67.5 28q30 0 49 -18t19 -48zM27 0l109 690h473l-29 -179h-254l-12 -73h240l-28 -179
h-240l-12 -77h264l-29 -182h-482z" />
    <glyph glyph-name="Igrave" unicode="&#xcc;" horiz-adv-x="316" 
d="M138 865h175l45 -147h-151zM27 0l109 690h219l-109 -690h-219z" />
    <glyph glyph-name="Iacute" unicode="&#xcd;" horiz-adv-x="316" 
d="M143 718l91 147h175l-116 -147h-150zM27 0l109 690h219l-109 -690h-219z" />
    <glyph glyph-name="Icircumflex" unicode="&#xce;" horiz-adv-x="316" 
d="M165 865h217l55 -147h-142l-32 79l-58 -79h-141zM27 0l109 690h219l-109 -690h-219z" />
    <glyph glyph-name="Idieresis" unicode="&#xcf;" horiz-adv-x="316" 
d="M443 804q0 -39 -27.5 -67.5t-66.5 -28.5q-30 0 -49.5 18t-19.5 48q0 40 27 68t67 28q31 0 50 -18t19 -48zM243 804q0 -39 -27.5 -67.5t-66.5 -28.5q-30 0 -49 18t-19 48q0 40 27 68t67 28q30 0 49 -18t19 -48zM27 0l109 690h219l-109 -690h-219z" />
    <glyph glyph-name="Eth" unicode="&#xd0;" horiz-adv-x="698" 
d="M714 424q0 -206 -115 -315q-113 -109 -316 -109h-256l44 279h-48l23 142h48l42 269h251q70 0 126.5 -13.5t103 -43.5t72 -83t25.5 -126zM491 391q0 113 -117 113h-49l-13 -83h93l-21 -137h-94l-15 -93h50q81 0 123.5 54.5t42.5 145.5z" />
    <glyph glyph-name="Ntilde" unicode="&#xd1;" horiz-adv-x="737" 
d="M592 865l86 -10q-7 -55 -54 -97q-45 -42 -99 -42q-41 0 -76 22q-35 23 -49 23q-32 0 -51 -43l-87 10q9 55 54 97t99 42q41 0 75 -22q35 -22 50 -22q31 0 52 42zM559 690h213l-109 -690h-228l-139 381q-9 -90 -56 -381h-213l109 690h237l130 -380q6 65 56 380z" />
    <glyph glyph-name="Ograve" unicode="&#xd2;" horiz-adv-x="766" 
d="M329 865h175l45 -147h-151zM780 415q0 -186 -119 -307q-119 -120 -304 -120q-139 0 -224 75q-86 75 -86 211q0 188 118 307q119 120 305 120q139 0 224 -75q86 -75 86 -211zM558 384q0 57 -32 91t-86 34q-75 0 -122 -59t-47 -136q0 -57 32 -91t86 -34q76 0 122 58
q47 59 47 137z" />
    <glyph glyph-name="Oacute" unicode="&#xd3;" horiz-adv-x="766" 
d="M397 718l91 147h176l-116 -147h-151zM780 415q0 -186 -119 -307q-119 -120 -304 -120q-139 0 -224 75q-86 75 -86 211q0 188 118 307q119 120 305 120q139 0 224 -75q86 -75 86 -211zM558 384q0 57 -32 91t-86 34q-75 0 -122 -59t-47 -136q0 -57 32 -91t86 -34
q76 0 122 58q47 59 47 137z" />
    <glyph glyph-name="Ocircumflex" unicode="&#xd4;" horiz-adv-x="766" 
d="M388 865h217l54 -147h-141l-33 79l-57 -79h-141zM780 415q0 -186 -119 -307q-119 -120 -304 -120q-139 0 -224 75q-86 75 -86 211q0 188 118 307q119 120 305 120q139 0 224 -75q86 -75 86 -211zM558 384q0 57 -32 91t-86 34q-75 0 -122 -59t-47 -136q0 -57 32 -91
t86 -34q76 0 122 58q47 59 47 137z" />
    <glyph glyph-name="Otilde" unicode="&#xd5;" horiz-adv-x="766" 
d="M606 865l86 -10q-7 -54 -53 -97q-45 -42 -99 -42q-41 0 -76 22q-35 23 -49 23q-33 0 -52 -43l-86 10q7 53 53 96q44 43 99 43q42 0 76 -22t49 -22q31 0 52 42zM780 415q0 -186 -119 -307q-119 -120 -304 -120q-139 0 -224 75q-86 75 -86 211q0 188 118 307
q119 120 305 120q139 0 224 -75q86 -75 86 -211zM558 384q0 57 -32 91t-86 34q-75 0 -122 -59t-47 -136q0 -57 32 -91t86 -34q76 0 122 58q47 59 47 137z" />
    <glyph glyph-name="Odieresis" unicode="&#xd6;" horiz-adv-x="766" 
d="M665 804q0 -39 -27.5 -67.5t-66.5 -28.5q-30 0 -49 18t-19 48q0 40 27 68t67 28q30 0 49 -18t19 -48zM466 804q0 -39 -27.5 -67.5t-66.5 -28.5q-30 0 -49.5 18t-19.5 48q0 40 27.5 68t67.5 28q30 0 49 -18t19 -48zM780 415q0 -186 -119 -307q-119 -120 -304 -120
q-139 0 -224 75q-86 75 -86 211q0 188 118 307q119 120 305 120q139 0 224 -75q86 -75 86 -211zM558 384q0 57 -32 91t-86 34q-75 0 -122 -59t-47 -136q0 -57 32 -91t86 -34q76 0 122 58q47 59 47 137z" />
    <glyph glyph-name="multiply" unicode="&#xd7;" horiz-adv-x="735" 
d="M632 512l-170 -167l170 -168l-117 -117l-168 167l-167 -167l-118 117l170 168l-170 167l118 118l167 -168l168 168z" />
    <glyph glyph-name="Oslash" unicode="&#xd8;" horiz-adv-x="766" 
d="M662 651l80 72l78 -94l-74 -67q34 -64 34 -147q0 -186 -119 -307q-119 -120 -304 -120q-113 0 -192 51l-80 -72l-78 94l75 67q-35 62 -35 146q0 188 118 307q119 120 305 120q113 0 192 -50zM271 314l1 -15l221 199q-24 11 -53 11q-76 0 -124 -59t-45 -136zM558 384v9
l-217 -195q23 -9 48 -9q76 0 123 59q48 58 46 136z" />
    <glyph glyph-name="Ugrave" unicode="&#xd9;" horiz-adv-x="698" 
d="M300 865h175l45 -147h-151zM454 285l64 405h220l-62 -395q-50 -306 -352 -306q-119 0 -190 55q-72 56 -72 167q0 38 7 84l63 395h220l-64 -405q-3 -17 -3 -32q0 -32 19.5 -49.5t50.5 -17.5q83 0 99 99z" />
    <glyph glyph-name="Uacute" unicode="&#xda;" horiz-adv-x="698" 
d="M359 718l91 147h175l-116 -147h-150zM454 285l64 405h220l-62 -395q-50 -306 -352 -306q-119 0 -190 55q-72 56 -72 167q0 38 7 84l63 395h220l-64 -405q-3 -17 -3 -32q0 -32 19.5 -49.5t50.5 -17.5q83 0 99 99z" />
    <glyph glyph-name="Ucircumflex" unicode="&#xdb;" horiz-adv-x="698" 
d="M354 865h217l55 -147h-142l-32 79l-58 -79h-141zM454 285l64 405h220l-62 -395q-50 -306 -352 -306q-119 0 -190 55q-72 56 -72 167q0 38 7 84l63 395h220l-64 -405q-3 -17 -3 -32q0 -32 19.5 -49.5t50.5 -17.5q83 0 99 99z" />
    <glyph glyph-name="Udieresis" unicode="&#xdc;" horiz-adv-x="698" 
d="M632 804q0 -39 -27.5 -67.5t-66.5 -28.5q-30 0 -49.5 18t-19.5 48q0 40 27.5 68t66.5 28q31 0 50 -18t19 -48zM433 804q0 -39 -28 -67.5t-67 -28.5q-30 0 -49 18t-19 48q0 40 27 68t67 28q31 0 50 -18t19 -48zM454 285l64 405h220l-62 -395q-50 -306 -352 -306
q-119 0 -190 55q-72 56 -72 167q0 38 7 84l63 395h220l-64 -405q-3 -17 -3 -32q0 -32 19.5 -49.5t50.5 -17.5q83 0 99 99z" />
    <glyph glyph-name="Yacute" unicode="&#xdd;" 
d="M327 718l92 147h175l-116 -147h-151zM372 460l134 230h243l-298 -420l-42 -270h-219l43 270l-165 420h243z" />
    <glyph glyph-name="Thorn" unicode="&#xde;" horiz-adv-x="606" 
d="M633 412q0 -139 -79 -214.5t-218 -75.5h-71l-19 -122h-219l109 690h219l-14 -92q44 0 60 -1q77 -2 113 -16q60 -19 85 -54q34 -43 34 -115zM407 375q0 51 -67 51h-28l-21 -132h32q39 0 61.5 21t22.5 60z" />
    <glyph glyph-name="germandbls" unicode="&#xdf;" horiz-adv-x="640" 
d="M3 -103l84 528q22 143 101 209t224 66q41 0 78.5 -7.5t72.5 -24t55.5 -48t20.5 -75.5q0 -56 -26.5 -97.5t-71.5 -59.5q46 -15 70.5 -53t24.5 -90q0 -128 -83 -193q-83 -63 -215 -63q-27 0 -76 11l35 157q15 -5 36 -5q43 0 68 21t25 61q0 38 -34 48q-23 7 -65 7l24 152
q30 -1 48 2.5t32 18.5t16 43q0 23 -16 35.5t-42 12.5q-37 0 -54.5 -21.5t-23.5 -66.5l-88 -562q-9 -49 -21 -69l-4 -9h-218q15 27 23 72z" />
    <glyph glyph-name="agrave" unicode="&#xe0;" horiz-adv-x="642" 
d="M584 35l3 -35h-203q-4 11 -4 35q0 5 2 19q-62 -66 -164 -66q-90 0 -140 59q-49 58 -49 150q0 84 31 155q32 75 96 121.5t146 46.5q96 0 133 -52q1 11 4 42h217l-69 -438q-3 -21 -3 -37zM408 277q0 30 -17 48.5t-47 18.5q-40 0 -66 -32q-25 -31 -25 -73q0 -30 17.5 -49
t46.5 -19q39 0 65 31.5t26 74.5zM225 690h175l45 -145h-151z" />
    <glyph glyph-name="aacute" unicode="&#xe1;" horiz-adv-x="642" 
d="M584 35l3 -35h-203q-4 11 -4 35q0 5 2 19q-62 -66 -164 -66q-90 0 -140 59q-49 58 -49 150q0 84 31 155q32 75 96 121.5t146 46.5q96 0 133 -52q1 11 4 42h217l-69 -438q-3 -21 -3 -37zM408 277q0 30 -17 48.5t-47 18.5q-40 0 -66 -32q-25 -31 -25 -73q0 -30 17.5 -49
t46.5 -19q39 0 65 31.5t26 74.5zM251 545l91 145h175l-115 -145h-151z" />
    <glyph glyph-name="acircumflex" unicode="&#xe2;" horiz-adv-x="642" 
d="M584 35l3 -35h-203q-4 11 -4 35q0 5 2 19q-62 -66 -164 -66q-90 0 -140 59q-49 58 -49 150q0 84 31 155q32 75 96 121.5t146 46.5q96 0 133 -52q1 11 4 42h217l-69 -438q-3 -21 -3 -37zM408 277q0 30 -17 48.5t-47 18.5q-40 0 -66 -32q-25 -31 -25 -73q0 -30 17.5 -49
t46.5 -19q39 0 65 31.5t26 74.5zM263 690h217l55 -145h-142l-32 83l-58 -83h-141z" />
    <glyph glyph-name="atilde" unicode="&#xe3;" horiz-adv-x="642" 
d="M584 35l3 -35h-203q-4 11 -4 35q0 5 2 19q-62 -66 -164 -66q-90 0 -140 59q-49 58 -49 150q0 84 31 155q32 75 96 121.5t146 46.5q96 0 133 -52q1 11 4 42h217l-69 -438q-3 -21 -3 -37zM408 277q0 30 -17 48.5t-47 18.5q-40 0 -66 -32q-25 -31 -25 -73q0 -30 17.5 -49
t46.5 -19q39 0 65 31.5t26 74.5zM499 690l86 -10q-7 -53 -53 -96q-45 -42 -99 -42q-41 0 -76 22q-35 23 -49 23q-32 0 -51 -42l-87 10q7 53 53 96q45 42 99 42q39 0 76 -23q35 -22 49 -22q31 0 52 42z" />
    <glyph glyph-name="adieresis" unicode="&#xe4;" horiz-adv-x="642" 
d="M584 35l3 -35h-203q-4 11 -4 35q0 5 2 19q-62 -66 -164 -66q-90 0 -140 59q-49 58 -49 150q0 84 31 155q32 75 96 121.5t146 46.5q96 0 133 -52q1 11 4 42h217l-69 -438q-3 -21 -3 -37zM408 277q0 30 -17 48.5t-47 18.5q-40 0 -66 -32q-25 -31 -25 -73q0 -30 17.5 -49
t46.5 -19q39 0 65 31.5t26 74.5zM544 632q0 -39 -27.5 -67t-66.5 -28q-31 0 -50 18t-19 48q0 39 27.5 67t66.5 28q31 0 50 -18t19 -48zM342 632q0 -39 -27.5 -67t-66.5 -28q-30 0 -49 18t-19 48q0 39 27.5 67t66.5 28q30 0 49 -18t19 -48z" />
    <glyph glyph-name="aring" unicode="&#xe5;" horiz-adv-x="642" 
d="M584 35l3 -35h-203q-4 11 -4 35q0 5 2 19q-62 -66 -164 -66q-90 0 -140 59q-49 58 -49 150q0 84 31 155q32 75 96 121.5t146 46.5q96 0 133 -52q1 11 4 42h217l-69 -438q-3 -21 -3 -37zM408 277q0 30 -17 48.5t-47 18.5q-40 0 -66 -32q-25 -31 -25 -73q0 -30 17.5 -49
t46.5 -19q39 0 65 31.5t26 74.5zM486 670q0 -59 -42 -95q-43 -35 -102 -35q-49 0 -79.5 23t-30.5 67q0 60 42 94q42 36 102 36q49 0 79.5 -23t30.5 -67zM407 659q0 35 -41 35q-24 0 -39.5 -14.5t-15.5 -38.5q0 -35 41 -35q24 0 39.5 14.5t15.5 38.5z" />
    <glyph glyph-name="ae" unicode="&#xe6;" horiz-adv-x="855" 
d="M665 184q-55 0 -131 21q8 -71 98 -71q74 0 132 36l63 -107q-44 -32 -99 -53q-51 -18 -82 -21q-32 -3 -75 -3q-123 0 -187 67q-47 -36 -94.5 -50.5t-112.5 -14.5q-74 0 -119 34t-45 100q7 119 89 155q62 29 119 34q14 1 63 5q8 1 30 1.5t32 0.5q1 5 1 16q0 35 -71 35
q-81 0 -161 -46l-31 144q121 53 245 53q107 0 164 -39q74 38 157 38q90 0 150 -42q61 -40 61 -128q0 -165 -196 -165zM548 308q36 -6 64 -6q82 0 82 56q0 18 -13.5 29.5t-30.5 11.5q-36 0 -66 -27t-36 -64zM276 126q29 0 61 20q-5 25 -5 46v15l-51 -3q-19 -3 -32.5 -14.5
t-13.5 -31.5q0 -32 41 -32z" />
    <glyph glyph-name="ccedilla" unicode="&#xe7;" horiz-adv-x="475" 
d="M508 480l-61 -172q-39 36 -96 36q-45 0 -74 -30t-29 -75q0 -68 81 -68q58 0 107 36l11 -172q-41 -31 -110 -40l-87 -140h-175l109 142q-72 19 -113.5 74.5t-41.5 131.5q0 139 89 228q91 89 228 89q95 0 162 -40z" />
    <glyph glyph-name="egrave" unicode="&#xe8;" horiz-adv-x="552" 
d="M362 184q-55 0 -131 21q8 -71 98 -71q71 0 132 36l63 -107q-44 -32 -99 -53q-51 -18 -82 -21t-75 -3q-106 0 -173 54q-66 56 -66 157q0 141 90 231q91 91 228 91q90 0 150 -42q61 -40 61 -128q0 -165 -196 -165zM245 308q36 -6 64 -6q82 0 82 56q0 41 -52 41
q-30 0 -59 -28q-29 -29 -35 -63zM166 690h175l45 -145h-151z" />
    <glyph glyph-name="eacute" unicode="&#xe9;" horiz-adv-x="552" 
d="M362 184q-55 0 -131 21q8 -71 98 -71q71 0 132 36l63 -107q-44 -32 -99 -53q-51 -18 -82 -21t-75 -3q-106 0 -173 54q-66 56 -66 157q0 141 90 231q91 91 228 91q90 0 150 -42q61 -40 61 -128q0 -165 -196 -165zM245 308q36 -6 64 -6q82 0 82 56q0 41 -52 41
q-30 0 -59 -28q-29 -29 -35 -63zM220 545l91 145h175l-115 -145h-151z" />
    <glyph glyph-name="ecircumflex" unicode="&#xea;" horiz-adv-x="552" 
d="M362 184q-55 0 -131 21q8 -71 98 -71q71 0 132 36l63 -107q-44 -32 -99 -53q-51 -18 -82 -21t-75 -3q-106 0 -173 54q-66 56 -66 157q0 141 90 231q91 91 228 91q90 0 150 -42q61 -40 61 -128q0 -165 -196 -165zM245 308q36 -6 64 -6q82 0 82 56q0 41 -52 41
q-30 0 -59 -28q-29 -29 -35 -63zM237 690h217l55 -145h-142l-32 83l-58 -83h-141z" />
    <glyph glyph-name="edieresis" unicode="&#xeb;" horiz-adv-x="552" 
d="M362 184q-55 0 -131 21q8 -71 98 -71q71 0 132 36l63 -107q-44 -32 -99 -53q-51 -18 -82 -21t-75 -3q-106 0 -173 54q-66 56 -66 157q0 141 90 231q91 91 228 91q90 0 150 -42q61 -40 61 -128q0 -165 -196 -165zM245 308q36 -6 64 -6q82 0 82 56q0 41 -52 41
q-30 0 -59 -28q-29 -29 -35 -63zM516 632q0 -39 -27.5 -67t-66.5 -28q-31 0 -50 18t-19 48q0 39 27.5 67t66.5 28q31 0 50 -18t19 -48zM314 632q0 -39 -27.5 -67t-66.5 -28q-30 0 -49 18t-19 48q0 39 27.5 67t66.5 28q30 0 49 -18t19 -48z" />
    <glyph glyph-name="igrave" unicode="&#xec;" horiz-adv-x="296" 
d="M102 690h175l45 -147h-151zM243 35l3 -35h-217q-4 11 -4 35q0 23 4 43l58 360q3 21 3 37l-3 35h217q3 -14 3 -36q0 -26 -3 -42l-58 -360q-3 -21 -3 -37z" />
    <glyph glyph-name="iacute" unicode="&#xed;" horiz-adv-x="296" 
d="M103 543l91 147h175l-115 -147h-151zM243 35l3 -35h-217q-4 11 -4 35q0 23 4 43l58 360q3 21 3 37l-3 35h217q3 -14 3 -36q0 -26 -3 -42l-58 -360q-3 -21 -3 -37z" />
    <glyph glyph-name="icircumflex" unicode="&#xee;" horiz-adv-x="296" 
d="M127 690h217l55 -147h-141l-32 84l-59 -84h-141zM243 35l3 -35h-217q-4 11 -4 35q0 23 4 43l58 360q3 21 3 37l-3 35h217q3 -14 3 -36q0 -26 -3 -42l-58 -360q-3 -21 -3 -37z" />
    <glyph glyph-name="idieresis" unicode="&#xef;" horiz-adv-x="296" 
d="M404 632q0 -40 -27.5 -68t-66.5 -28q-31 0 -50 18t-19 48q0 39 27.5 67.5t66.5 28.5q30 0 49.5 -18t19.5 -48zM207 632q0 -40 -27 -68t-67 -28q-31 0 -50 18t-19 48q0 39 27.5 67.5t66.5 28.5q30 0 49.5 -18t19.5 -48zM243 35l3 -35h-217q-4 11 -4 35q0 23 4 43l58 360
q3 21 3 37l-3 35h217q3 -14 3 -36q0 -26 -3 -42l-58 -360q-3 -21 -3 -37z" />
    <glyph glyph-name="eth" unicode="&#xf0;" horiz-adv-x="601" 
d="M604 337q0 -160 -86 -255q-85 -94 -245 -94q-107 0 -175 55q-69 55 -69 159q0 118 80 206q79 88 199 88q31 0 58 -9q-18 29 -59 67l-112 -53l-32 84l74 35q-55 41 -72 49l169 81q25 -14 71 -50l121 58l32 -84l-83 -39q129 -127 129 -298zM381 277q0 28 -13.5 45t-38.5 17
q-37 0 -58 -33t-21 -72q0 -62 52 -62q37 0 58 33t21 72z" />
    <glyph glyph-name="ntilde" unicode="&#xf1;" horiz-adv-x="613" 
d="M506 690l87 -10q-9 -55 -54 -97t-99 -42q-41 0 -76 22q-35 23 -49 23q-33 0 -51 -43l-87 11q7 53 53 96q46 42 100 42q41 0 75 -22q35 -22 50 -22q30 0 51 42zM560 35l3 -35h-216q-4 11 -4 35q0 23 4 43l27 172q4 25 4 41q0 45 -40 45q-24 0 -37 -15q-13 -14 -17.5 -27
t-8.5 -44l-40 -250h-218l70 438q3 22 3 41l-2 31h215q4 -9 4 -28q0 -18 -3 -34q62 72 147 72q155 0 155 -151q0 -35 -6 -69l-37 -228q-3 -21 -3 -37z" />
    <glyph glyph-name="ograve" unicode="&#xf2;" horiz-adv-x="601" 
d="M224 690h173l45 -147h-151zM606 305q0 -144 -93 -231q-92 -86 -237 -86q-108 0 -178 55q-69 55 -69 160q0 145 93 230q93 87 238 87q109 0 177 -55q69 -55 69 -160zM387 280q0 30 -14 47t-41 17q-39 0 -61 -34q-21 -34 -21 -75q0 -64 55 -64q39 0 60 34q22 34 22 75z" />
    <glyph glyph-name="oacute" unicode="&#xf3;" horiz-adv-x="601" 
d="M285 543l92 147h175l-116 -147h-151zM606 305q0 -144 -93 -231q-92 -86 -237 -86q-108 0 -178 55q-69 55 -69 160q0 145 93 230q93 87 238 87q109 0 177 -55q69 -55 69 -160zM387 280q0 30 -14 47t-41 17q-39 0 -61 -34q-21 -34 -21 -75q0 -64 55 -64q39 0 60 34
q22 34 22 75z" />
    <glyph glyph-name="ocircumflex" unicode="&#xf4;" horiz-adv-x="601" 
d="M278 690h217l55 -147h-141l-32 84l-58 -84h-142zM606 305q0 -144 -93 -231q-92 -86 -237 -86q-108 0 -178 55q-69 55 -69 160q0 145 93 230q93 87 238 87q109 0 177 -55q69 -55 69 -160zM387 280q0 30 -14 47t-41 17q-39 0 -61 -34q-21 -34 -21 -75q0 -64 55 -64
q39 0 60 34q22 34 22 75z" />
    <glyph glyph-name="otilde" unicode="&#xf5;" horiz-adv-x="601" 
d="M497 690l86 -10q-7 -55 -54 -97q-45 -42 -99 -42q-41 0 -75 22q-35 23 -49 23q-33 0 -52 -43l-86 10q7 54 53 97q45 42 99 42q41 0 75 -22q35 -22 50 -22q31 0 52 42zM606 305q0 -144 -93 -231q-92 -86 -237 -86q-108 0 -178 55q-69 55 -69 160q0 145 93 230
q93 87 238 87q109 0 177 -55q69 -55 69 -160zM387 280q0 30 -14 47t-41 17q-39 0 -61 -34q-21 -34 -21 -75q0 -64 55 -64q39 0 60 34q22 34 22 75z" />
    <glyph glyph-name="odieresis" unicode="&#xf6;" horiz-adv-x="601" 
d="M555 632q0 -40 -27 -68t-67 -28q-31 0 -50 18t-19 48q0 39 27.5 67.5t66.5 28.5q30 0 49.5 -18t19.5 -48zM358 632q0 -40 -27 -68t-67 -28q-30 0 -49 18t-19 48q0 39 27.5 67.5t66.5 28.5q30 0 49 -18t19 -48zM606 305q0 -144 -93 -231q-92 -86 -237 -86q-108 0 -178 55
q-69 55 -69 160q0 145 93 230q93 87 238 87q109 0 177 -55q69 -55 69 -160zM387 280q0 30 -14 47t-41 17q-39 0 -61 -34q-21 -34 -21 -75q0 -64 55 -64q39 0 60 34q22 34 22 75z" />
    <glyph glyph-name="divide" unicode="&#xf7;" horiz-adv-x="735" 
d="M423 641q32 -32 32 -76t-32 -76t-76 -32t-76 32t-32 76t32 76t76 32t76 -32zM60 425h575v-160h-575v160zM423 200q32 -32 32 -76t-32 -76t-76 -32t-76 32t-32 76t32 76t76 32t76 -32z" />
    <glyph glyph-name="oslash" unicode="&#xf8;" horiz-adv-x="601" 
d="M507 486l57 49l66 -78l-50 -43q26 -49 26 -109q0 -144 -93 -231q-92 -86 -237 -86q-88 0 -150 35l-56 -48l-66 78l50 44q-25 46 -25 106q0 145 93 230q93 87 238 87q86 0 147 -34zM241 242l122 109q-12 5 -27 5q-43 0 -67.5 -32.5t-27.5 -81.5zM401 270l-121 -107
q9 -4 25 -4q43 0 66.5 31t29.5 80z" />
    <glyph glyph-name="ugrave" unicode="&#xf9;" horiz-adv-x="604" 
d="M227 690h175l45 -147h-151zM301 432l-24 -147q-8 -53 -8 -69q0 -42 36 -42q45 0 55 66l43 270h218l-70 -438q-3 -21 -3 -37l3 -35h-211q-5 12 -5 33q0 8 1 11q-64 -56 -142 -56q-73 0 -113 37.5t-40 106.5q0 35 6 68l37 238q3 22 3 41l-2 31h217q3 -10 3 -33
q0 -24 -4 -45z" />
    <glyph glyph-name="uacute" unicode="&#xfa;" horiz-adv-x="604" 
d="M276 543l91 147h175l-115 -147h-151zM301 432l-24 -147q-8 -53 -8 -69q0 -42 36 -42q45 0 55 66l43 270h218l-70 -438q-3 -21 -3 -37l3 -35h-211q-5 12 -5 33q0 8 1 11q-64 -56 -142 -56q-73 0 -113 37.5t-40 106.5q0 35 6 68l37 238q3 22 3 41l-2 31h217q3 -10 3 -33
q0 -24 -4 -45z" />
    <glyph glyph-name="ucircumflex" unicode="&#xfb;" horiz-adv-x="604" 
d="M278 690h217l55 -147h-141l-32 84l-58 -84h-142zM301 432l-24 -147q-8 -53 -8 -69q0 -42 36 -42q45 0 55 66l43 270h218l-70 -438q-3 -21 -3 -37l3 -35h-211q-5 12 -5 33q0 8 1 11q-64 -56 -142 -56q-73 0 -113 37.5t-40 106.5q0 35 6 68l37 238q3 22 3 41l-2 31h217
q3 -10 3 -33q0 -24 -4 -45z" />
    <glyph glyph-name="udieresis" unicode="&#xfc;" horiz-adv-x="604" 
d="M555 632q0 -40 -27 -68t-67 -28q-31 0 -50 18t-19 48q0 39 27.5 67.5t66.5 28.5q30 0 49.5 -18t19.5 -48zM358 632q0 -40 -27 -68t-67 -28q-30 0 -49 18t-19 48q0 39 27.5 67.5t66.5 28.5q30 0 49 -18t19 -48zM301 432l-24 -147q-8 -53 -8 -69q0 -42 36 -42q45 0 55 66
l43 270h218l-70 -438q-3 -21 -3 -37l3 -35h-211q-5 12 -5 33q0 8 1 11q-64 -56 -142 -56q-73 0 -113 37.5t-40 106.5q0 35 6 68l37 238q3 22 3 41l-2 31h217q3 -10 3 -33q0 -24 -4 -45z" />
    <glyph glyph-name="yacute" unicode="&#xfd;" horiz-adv-x="591" 
d="M281 543l91 147h175l-116 -147h-150zM315 248l120 262h222l-284 -525q-48 -89 -95.5 -129.5t-120.5 -40.5q-109 0 -174 30l69 162q30 -15 66 -15q37 0 47 28l-115 490h228z" />
    <glyph glyph-name="thorn" unicode="&#xfe;" horiz-adv-x="642" 
d="M221 -175h-217q-4 11 -4 35q0 23 4 43l114 715q3 22 3 41l-2 31h217q3 -10 3 -33q0 -24 -4 -45l-25 -145q53 53 148 53q90 0 140 -59q49 -58 49 -150q0 -83 -31 -155q-32 -75 -96.5 -121.5t-145.5 -46.5q-96 0 -131 59l-22 -150q-3 -21 -3 -37zM425 276q0 30 -17 49
t-47 19q-40 0 -65.5 -31t-25.5 -74q0 -31 17 -49.5t47 -18.5q39 0 65 32t26 73z" />
    <glyph glyph-name="ydieresis" unicode="&#xff;" horiz-adv-x="591" 
d="M553 632q0 -40 -27.5 -68t-67.5 -28q-30 0 -49 18t-19 48q0 39 27.5 67.5t66.5 28.5q30 0 49.5 -18t19.5 -48zM356 632q0 -40 -27.5 -68t-66.5 -28q-31 0 -50 18t-19 48q0 39 27.5 67.5t66.5 28.5q30 0 49.5 -18t19.5 -48zM315 248l120 262h222l-284 -520
q-16 -30 -40 -66q-16 -24 -43 -53q-50 -56 -133 -56q-109 0 -174 30l69 162q30 -15 66 -15q37 0 47 28l-115 490h228z" />
    <glyph glyph-name="Amacron" unicode="&#x100;" horiz-adv-x="688" 
d="M309 690h242l122 -690h-238l-10 97h-187l-41 -97h-228zM387 451l-76 -180h96zM248 747l16 100h362l-16 -100h-362z" />
    <glyph glyph-name="amacron" unicode="&#x101;" horiz-adv-x="642" 
d="M584 35l3 -35h-203q-4 11 -4 35q0 5 2 19q-62 -66 -164 -66q-90 0 -140 59q-49 58 -49 150q0 84 31 155q32 75 96 121.5t146 46.5q96 0 133 -52q1 11 4 42h217l-69 -438q-3 -21 -3 -37zM408 277q0 30 -17 48.5t-47 18.5q-40 0 -66 -32q-25 -31 -25 -73q0 -30 17.5 -49
t46.5 -19q39 0 65 31.5t26 74.5zM184 567l16 100h362l-16 -100h-362z" />
    <glyph glyph-name="Abreve" unicode="&#x102;" horiz-adv-x="688" 
d="M309 690h242l122 -690h-238l-10 97h-187l-41 -97h-228zM387 451l-76 -180h96zM533 870h88q-22 -71 -75.5 -108t-131.5 -37q-76 0 -118.5 37t-41.5 108h88q13 -49 87 -49q76 0 104 49z" />
    <glyph glyph-name="abreve" unicode="&#x103;" horiz-adv-x="642" 
d="M584 35l3 -35h-203q-4 11 -4 35q0 5 2 19q-62 -66 -164 -66q-90 0 -140 59q-49 58 -49 150q0 84 31 155q32 75 96 121.5t146 46.5q96 0 133 -52q1 11 4 42h217l-69 -438q-3 -21 -3 -37zM408 277q0 30 -17 48.5t-47 18.5q-40 0 -66 -32q-25 -31 -25 -73q0 -30 17.5 -49
t46.5 -19q39 0 65 31.5t26 74.5zM482 690h88q-22 -71 -75.5 -108t-131.5 -37q-76 0 -118.5 37t-41.5 108h88q13 -49 87 -49q76 0 104 49z" />
    <glyph glyph-name="Aogonek" unicode="&#x104;" horiz-adv-x="688" 
d="M658 -97l16 -51q-68 -50 -134 -50q-49 0 -80.5 18t-31.5 57q0 37 23 69.5t60 53.5h-76l-10 97h-187l-41 -97h-228l340 690h242l122 -690h-47q-33 -16 -57 -39t-24 -46q0 -32 47 -32q29 0 66 20zM387 451l-76 -180h96z" />
    <glyph glyph-name="aogonek" unicode="&#x105;" horiz-adv-x="642" 
d="M580 -97l16 -51q-68 -50 -134 -50q-49 0 -80.5 18t-31.5 57q0 37 23 69.5t60 53.5h-49q-4 11 -4 35q0 5 2 19q-62 -66 -164 -66q-90 0 -140 59q-49 58 -49 150q0 84 31 155q32 75 96 121.5t146 46.5q96 0 133 -52q1 11 4 42h217l-69 -438q-3 -21 -3 -37l3 -35h-39
q-33 -16 -57 -39t-24 -46q0 -32 47 -32q29 0 66 20zM408 277q0 30 -17 48.5t-47 18.5q-40 0 -66 -32q-25 -31 -25 -73q0 -30 17.5 -49t46.5 -19q39 0 65 31.5t26 74.5z" />
    <glyph glyph-name="Cacute" unicode="&#x106;" horiz-adv-x="616" 
d="M677 635l-89 -192q-26 27 -64.5 44t-74.5 17q-79 0 -129 -54q-49 -53 -49 -134q0 -56 35.5 -89t93.5 -33q98 0 168 63l35 -182q-97 -87 -250 -87q-135 0 -221 75q-85 76 -85 210q0 186 117 306q117 121 301 121q58 0 118 -16q63 -16 94 -49zM316 725l91 145h175
l-115 -145h-151z" />
    <glyph glyph-name="cacute" unicode="&#x107;" horiz-adv-x="475" 
d="M508 480l-61 -172q-39 36 -96 36q-45 0 -74 -30t-29 -75q0 -68 81 -68q58 0 107 36l11 -172q-32 -23 -85 -35q-52 -12 -101 -12q-102 0 -166 58q-65 59 -65 158q0 138 89 227t227 89q95 0 162 -40zM195 545l91 145h175l-115 -145h-151z" />
    <glyph glyph-name="Ccircumflex" unicode="&#x108;" horiz-adv-x="616" 
d="M677 635l-89 -192q-26 27 -64.5 44t-74.5 17q-79 0 -129 -54q-49 -53 -49 -134q0 -56 35.5 -89t93.5 -33q98 0 168 63l35 -182q-97 -87 -250 -87q-135 0 -221 75q-85 76 -85 210q0 186 117 306q117 121 301 121q58 0 118 -16q63 -16 94 -49zM331 870h217l55 -145h-142
l-32 83l-58 -83h-141z" />
    <glyph glyph-name="ccircumflex" unicode="&#x109;" horiz-adv-x="475" 
d="M508 480l-61 -172q-39 36 -96 36q-45 0 -74 -30t-29 -75q0 -68 81 -68q58 0 107 36l11 -172q-32 -23 -85 -35q-52 -12 -101 -12q-102 0 -166 58q-65 59 -65 158q0 138 89 227t227 89q95 0 162 -40zM214 690h217l55 -145h-142l-32 83l-58 -83h-141z" />
    <glyph glyph-name="Cdotaccent" unicode="&#x10a;" horiz-adv-x="616" 
d="M677 635l-89 -192q-26 27 -64.5 44t-74.5 17q-79 0 -129 -54q-49 -53 -49 -134q0 -56 35.5 -89t93.5 -33q98 0 168 63l35 -182q-97 -87 -250 -87q-135 0 -221 75q-85 76 -85 210q0 186 117 306q117 121 301 121q58 0 118 -16q63 -16 94 -49zM502 814q0 -39 -28 -68
q-29 -29 -66 -29q-29 0 -48.5 20t-19.5 49q0 38 28 66t66 28q29 0 48.5 -18.5t19.5 -47.5z" />
    <glyph glyph-name="cdotaccent" unicode="&#x10b;" horiz-adv-x="475" 
d="M508 480l-61 -172q-39 36 -96 36q-45 0 -74 -30t-29 -75q0 -68 81 -68q58 0 107 36l11 -172q-32 -23 -85 -35q-52 -12 -101 -12q-102 0 -166 58q-65 59 -65 158q0 138 89 227t227 89q95 0 162 -40zM390 634q0 -39 -28 -68q-29 -29 -66 -29q-29 0 -48.5 20t-19.5 49
q0 38 28 66t66 28q29 0 48.5 -18.5t19.5 -47.5z" />
    <glyph glyph-name="Ccaron" unicode="&#x10c;" horiz-adv-x="616" 
d="M677 635l-89 -192q-26 27 -64.5 44t-74.5 17q-79 0 -129 -54q-49 -53 -49 -134q0 -56 35.5 -89t93.5 -33q98 0 168 63l35 -182q-97 -87 -250 -87q-135 0 -221 75q-85 76 -85 210q0 186 117 306q117 121 301 121q58 0 118 -16q63 -16 94 -49zM422 787l58 83h142l-101 -145
h-217l-55 145h141z" />
    <glyph glyph-name="ccaron" unicode="&#x10d;" horiz-adv-x="475" 
d="M508 480l-61 -172q-39 36 -96 36q-45 0 -74 -30t-29 -75q0 -68 81 -68q58 0 107 36l11 -172q-32 -23 -85 -35q-52 -12 -101 -12q-102 0 -166 58q-65 59 -65 158q0 138 89 227t227 89q95 0 162 -40zM295 607l58 83h142l-101 -145h-217l-55 145h141z" />
    <glyph glyph-name="Dcaron" unicode="&#x10e;" horiz-adv-x="698" 
d="M714 424q0 -206 -115 -315q-113 -109 -316 -109h-256l109 690h251q70 0 126.5 -13.5t103 -43.5t72 -83t25.5 -126zM491 391q0 113 -117 113h-49l-50 -313h50q81 0 123.5 54.5t42.5 145.5zM419 787l58 83h142l-101 -145h-217l-55 145h141z" />
    <glyph glyph-name="dcaron" unicode="&#x10f;" horiz-adv-x="846" 
d="M672 612l-85 -540q-3 -21 -3 -37l3 -35h-203q-4 11 -4 35q0 5 2 19q-62 -66 -164 -66q-90 0 -140 59q-49 58 -49 150q0 84 31 155q32 75 96 121.5t146 46.5q96 0 133 -52q0 2 21 150q3 22 3 41l-2 31h216q3 -10 3 -33q0 -24 -4 -45zM408 277q0 30 -17 48.5t-47 18.5
q-40 0 -66 -32q-25 -31 -25 -73q0 -30 17.5 -49t46.5 -19q39 0 65 31.5t26 74.5zM669 405l132 285h204l-156 -285h-180z" />
    <glyph glyph-name="Dcroat" unicode="&#x110;" horiz-adv-x="698" 
d="M714 424q0 -206 -115 -315q-113 -109 -316 -109h-256l44 279h-48l23 142h48l42 269h251q70 0 126.5 -13.5t103 -43.5t72 -83t25.5 -126zM491 391q0 113 -117 113h-49l-13 -83h93l-21 -137h-94l-15 -93h50q81 0 123.5 54.5t42.5 145.5z" />
    <glyph glyph-name="dslash" unicode="&#x111;" horiz-adv-x="642" 
d="M676 656h36l-16 -100h-33l-76 -484q-3 -21 -3 -37l3 -35h-203q-4 11 -4 35q0 5 2 19q-62 -66 -164 -66q-90 0 -140 59q-49 58 -49 150q0 84 31 155q32 75 96 121.5t146 46.5q96 0 133 -52q0 9 12 88h-194l16 100h190v3l-2 31h216q3 -10 3 -33v-1zM408 277q0 30 -17 48.5
t-47 18.5q-40 0 -66 -32q-25 -31 -25 -73q0 -30 17.5 -49t46.5 -19q39 0 65 31.5t26 74.5z" />
    <glyph glyph-name="Emacron" unicode="&#x112;" horiz-adv-x="562" 
d="M27 0l109 690h473l-29 -179h-254l-12 -73h240l-28 -179h-240l-12 -78h264l-29 -181h-482zM187 747l16 100h362l-16 -100h-362z" />
    <glyph glyph-name="emacron" unicode="&#x113;" horiz-adv-x="552" 
d="M362 184q-55 0 -131 21q8 -71 98 -71q71 0 132 36l63 -107q-44 -32 -99 -53q-51 -18 -82 -21t-75 -3q-106 0 -173 54q-66 56 -66 157q0 141 90 231q91 91 228 91q90 0 150 -42q61 -40 61 -128q0 -165 -196 -165zM245 308q36 -6 64 -6q82 0 82 56q0 41 -52 41
q-30 0 -59 -28q-29 -29 -35 -63zM146 567l16 100h362l-16 -100h-362z" />
    <glyph glyph-name="Ebreve" unicode="&#x114;" horiz-adv-x="562" 
d="M27 0l109 690h473l-29 -179h-254l-12 -73h240l-28 -179h-240l-12 -78h264l-29 -181h-482zM482 870h88q-22 -71 -75.5 -108t-131.5 -37q-76 0 -118.5 37t-41.5 108h88q13 -49 87 -49q76 0 104 49z" />
    <glyph glyph-name="ebreve" unicode="&#x115;" horiz-adv-x="552" 
d="M362 184q-55 0 -131 21q8 -71 98 -71q71 0 132 36l63 -107q-44 -32 -99 -53q-51 -18 -82 -21t-75 -3q-106 0 -173 54q-66 56 -66 157q0 141 90 231q91 91 228 91q90 0 150 -42q61 -40 61 -128q0 -165 -196 -165zM245 308q36 -6 64 -6q82 0 82 56q0 41 -52 41
q-30 0 -59 -28q-29 -29 -35 -63zM442 690h88q-22 -71 -75.5 -108t-131.5 -37q-76 0 -118.5 37t-41.5 108h88q13 -49 87 -49q76 0 104 49z" />
    <glyph glyph-name="Edotaccent" unicode="&#x116;" horiz-adv-x="562" 
d="M27 0l109 690h473l-29 -179h-254l-12 -73h240l-28 -179h-240l-12 -78h264l-29 -181h-482zM460 814q0 -39 -28 -68q-29 -29 -66 -29q-29 0 -48.5 20t-19.5 49q0 38 28 66t66 28q29 0 48.5 -18.5t19.5 -47.5z" />
    <glyph glyph-name="edotaccent" unicode="&#x117;" horiz-adv-x="552" 
d="M362 184q-55 0 -131 21q8 -71 98 -71q71 0 132 36l63 -107q-44 -32 -99 -53q-51 -18 -82 -21t-75 -3q-106 0 -173 54q-66 56 -66 157q0 141 90 231q91 91 228 91q90 0 150 -42q61 -40 61 -128q0 -165 -196 -165zM245 308q36 -6 64 -6q82 0 82 56q0 41 -52 41
q-30 0 -59 -28q-29 -29 -35 -63zM418 634q0 -39 -28 -68q-29 -29 -66 -29q-29 0 -48.5 20t-19.5 49q0 38 28 66t66 28q29 0 48.5 -18.5t19.5 -47.5z" />
    <glyph glyph-name="Eogonek" unicode="&#x118;" horiz-adv-x="562" 
d="M462 -97l16 -51q-68 -50 -134 -50q-49 0 -80.5 18t-31.5 57q0 37 23 69.5t60 53.5h-288l109 690h473l-29 -179h-254l-12 -73h240l-28 -179h-240l-12 -78h264l-29 -181h-79q-33 -16 -57 -39t-24 -46q0 -32 47 -32q29 0 66 20z" />
    <glyph glyph-name="eogonek" unicode="&#x119;" horiz-adv-x="552" 
d="M479 -79l16 -51q-68 -50 -134 -50q-49 0 -80.5 18t-31.5 57q0 52 41 91h-22q-106 0 -173 54q-66 56 -66 157q0 141 90 231q91 91 228 91q90 0 150 -42q61 -40 61 -128q0 -165 -196 -165q-55 0 -131 21q8 -71 98 -71q71 0 132 36l63 -107q-29 -21 -82 -47q-30 -14 -53 -37
t-23 -46q0 -32 47 -32q29 0 66 20zM245 308q36 -6 64 -6q82 0 82 56q0 41 -52 41q-30 0 -59 -28q-29 -29 -35 -63z" />
    <glyph glyph-name="Ecaron" unicode="&#x11a;" horiz-adv-x="562" 
d="M27 0l109 690h473l-29 -179h-254l-12 -73h240l-28 -179h-240l-12 -78h264l-29 -181h-482zM372 787l58 83h142l-101 -145h-217l-55 145h141z" />
    <glyph glyph-name="ecaron" unicode="&#x11b;" horiz-adv-x="552" 
d="M362 184q-55 0 -131 21q8 -71 98 -71q71 0 132 36l63 -107q-44 -32 -99 -53q-51 -18 -82 -21t-75 -3q-106 0 -173 54q-66 56 -66 157q0 141 90 231q91 91 228 91q90 0 150 -42q61 -40 61 -128q0 -165 -196 -165zM245 308q36 -6 64 -6q82 0 82 56q0 41 -52 41
q-30 0 -59 -28q-29 -29 -35 -63zM322 607l58 83h142l-101 -145h-217l-55 145h141z" />
    <glyph glyph-name="Gcircumflex" unicode="&#x11c;" horiz-adv-x="718" 
d="M726 579l-165 -126q-49 61 -125 61q-77 0 -122 -65q-44 -65 -44 -145q0 -58 29.5 -93t82.5 -35q73 0 94 25l8 48h-101l27 169h314l-48 -308q-78 -65 -153 -94q-73 -27 -175 -27q-136 0 -218 75q-83 75 -83 209q0 186 116 307q115 120 302 120q87 0 149 -28.5t112 -92.5z
M334 870h217l55 -145h-142l-32 83l-58 -83h-141z" />
    <glyph glyph-name="gcircumflex" unicode="&#x11d;" horiz-adv-x="642" 
d="M646 438l-54 -343q-43 -280 -372 -280q-70 0 -135.5 19.5t-108.5 56.5l105 141q71 -50 155 -50q126 0 137 96q-57 -54 -149 -54q-87 0 -139.5 53.5t-52.5 141.5q0 127 73 213q73 88 197 88q89 0 131 -57q6 27 15 42l3 5h218q-15 -27 -23 -72zM409 283q0 28 -18.5 45.5
t-46.5 17.5q-36 0 -62.5 -26.5t-26.5 -63.5q0 -28 18.5 -45.5t46.5 -17.5q36 0 62.5 27t26.5 63zM285 690h217l55 -145h-142l-32 83l-58 -83h-141z" />
    <glyph glyph-name="Gbreve" unicode="&#x11e;" horiz-adv-x="718" 
d="M726 579l-165 -126q-49 61 -125 61q-77 0 -122 -65q-44 -65 -44 -145q0 -58 29.5 -93t82.5 -35q73 0 94 25l8 48h-101l27 169h314l-48 -308q-78 -65 -153 -94q-73 -27 -175 -27q-136 0 -218 75q-83 75 -83 209q0 186 116 307q115 120 302 120q87 0 149 -28.5t112 -92.5z
M528 870h88q-22 -71 -75.5 -108t-131.5 -37q-76 0 -118.5 37t-41.5 108h88q13 -49 87 -49q76 0 104 49z" />
    <glyph glyph-name="gbreve" unicode="&#x11f;" horiz-adv-x="642" 
d="M646 438l-54 -343q-43 -280 -372 -280q-70 0 -135.5 19.5t-108.5 56.5l105 141q71 -50 155 -50q126 0 137 96q-57 -54 -149 -54q-87 0 -139.5 53.5t-52.5 141.5q0 127 73 213q73 88 197 88q89 0 131 -57q6 27 15 42l3 5h218q-15 -27 -23 -72zM409 283q0 28 -18.5 45.5
t-46.5 17.5q-36 0 -62.5 -26.5t-26.5 -63.5q0 -28 18.5 -45.5t46.5 -17.5q36 0 62.5 27t26.5 63zM488 690h88q-22 -71 -75.5 -108t-131.5 -37q-76 0 -118.5 37t-41.5 108h88q13 -49 87 -49q76 0 104 49z" />
    <glyph glyph-name="Gdotaccent" unicode="&#x120;" horiz-adv-x="718" 
d="M726 579l-165 -126q-49 61 -125 61q-77 0 -122 -65q-44 -65 -44 -145q0 -58 29.5 -93t82.5 -35q73 0 94 25l8 48h-101l27 169h314l-48 -308q-78 -65 -153 -94q-73 -27 -175 -27q-136 0 -218 75q-83 75 -83 209q0 186 116 307q115 120 302 120q87 0 149 -28.5t112 -92.5z
M507 814q0 -39 -28 -68q-29 -29 -66 -29q-29 0 -48.5 20t-19.5 49q0 38 28 66t66 28q29 0 48.5 -18.5t19.5 -47.5z" />
    <glyph glyph-name="gdotaccent" unicode="&#x121;" horiz-adv-x="642" 
d="M646 438l-54 -343q-43 -280 -372 -280q-70 0 -135.5 19.5t-108.5 56.5l105 141q71 -50 155 -50q126 0 137 96q-57 -54 -149 -54q-87 0 -139.5 53.5t-52.5 141.5q0 127 73 213q73 88 197 88q89 0 131 -57q6 27 15 42l3 5h218q-15 -27 -23 -72zM409 283q0 28 -18.5 45.5
t-46.5 17.5q-36 0 -62.5 -26.5t-26.5 -63.5q0 -28 18.5 -45.5t46.5 -17.5q36 0 62.5 27t26.5 63zM453 634q0 -39 -28 -68q-29 -29 -66 -29q-29 0 -48.5 20t-19.5 49q0 38 28 66t66 28q29 0 48.5 -18.5t19.5 -47.5z" />
    <glyph glyph-name="Gcommaaccent" unicode="&#x122;" horiz-adv-x="718" 
d="M726 579l-165 -126q-49 61 -125 61q-77 0 -122 -65q-44 -65 -44 -145q0 -58 29.5 -93t82.5 -35q73 0 94 25l8 48h-101l27 169h314l-48 -308q-78 -65 -153 -94q-73 -27 -175 -27q-136 0 -218 75q-83 75 -83 209q0 186 116 307q115 120 302 120q87 0 149 -28.5t112 -92.5z
M487 -50l-81 -140h-176l56 140h201z" />
    <glyph glyph-name="gcommaaccent" unicode="&#x123;" horiz-adv-x="642" 
d="M646 438l-54 -343q-43 -280 -372 -280q-70 0 -135.5 19.5t-108.5 56.5l105 141q71 -50 155 -50q126 0 137 96q-57 -54 -149 -54q-87 0 -139.5 53.5t-52.5 141.5q0 127 73 213q73 88 197 88q89 0 131 -57q6 27 15 42l3 5h218q-15 -27 -23 -72zM409 283q0 28 -18.5 45.5
t-46.5 17.5q-36 0 -62.5 -26.5t-26.5 -63.5q0 -28 18.5 -45.5t46.5 -17.5q36 0 62.5 27t26.5 63zM235 592l81 140h176l-56 -140h-201z" />
    <glyph glyph-name="Hcircumflex" unicode="&#x124;" horiz-adv-x="718" 
d="M494 441l40 249h219l-110 -690h-219l41 254h-179l-40 -254h-219l109 690h219l-39 -249h178zM370 870h217l55 -145h-142l-32 83l-58 -83h-141z" />
    <glyph glyph-name="hcircumflex" unicode="&#x125;" horiz-adv-x="611" 
d="M563 35l3 -35h-217q-4 11 -4 35q0 23 4 43l27 172q4 25 4 42q0 45 -39 45q-30 0 -43.5 -21.5t-20.5 -65.5l-39 -250h-218l97 618q3 22 3 41l-2 31h218q3 -10 3 -33q0 -21 -4 -42l-28 -167q55 72 147 72q154 0 154 -151q0 -35 -6 -69l-36 -228q-3 -21 -3 -37zM153 878h217
l55 -145h-142l-32 83l-58 -83h-141z" />
    <glyph glyph-name="Hbar" unicode="&#x126;" horiz-adv-x="718" 
d="M523 623l11 67h219l-11 -67h41l-16 -100h-41l-83 -523h-219l41 254h-179l-40 -254h-219l82 523h-38l16 100h38l11 67h219l-11 -67h179zM329 523l-13 -82h178l13 82h-178z" />
    <glyph glyph-name="hbar" unicode="&#x127;" horiz-adv-x="611" 
d="M107 556h-33l17 100h29v3l-2 31h218q3 -10 3 -33v-1h194l-17 -100h-191l-18 -108q55 72 147 72q154 0 154 -151q0 -35 -6 -69l-36 -228q-3 -21 -3 -37l3 -35h-217q-4 11 -4 35q0 23 4 43l27 172q4 25 4 42q0 45 -39 45q-30 0 -43.5 -21.5t-20.5 -65.5l-39 -250h-218z" />
    <glyph glyph-name="Itilde" unicode="&#x128;" horiz-adv-x="316" 
d="M27 0l109 690h219l-109 -690h-219zM378 870l86 -10q-7 -53 -53 -96q-45 -42 -99 -42q-41 0 -76 22q-35 23 -49 23q-31 0 -51 -42l-87 10q7 53 53 96q45 42 99 42q41 0 76 -23q34 -22 49 -22q31 0 52 42z" />
    <glyph glyph-name="itilde" unicode="&#x129;" horiz-adv-x="296" 
d="M243 35l3 -35h-217q-4 11 -4 35q0 23 4 43l58 360q3 21 3 37l-3 35h217q3 -14 3 -36q0 -26 -3 -42l-58 -360q-3 -21 -3 -37zM323 690l86 -10q-7 -53 -53 -96q-45 -42 -99 -42q-41 0 -76 22q-35 23 -49 23q-32 0 -51 -42l-87 10q7 53 53 96q45 42 99 42q39 0 76 -23
q35 -22 49 -22q31 0 52 42z" />
    <glyph glyph-name="Imacron" unicode="&#x12a;" horiz-adv-x="316" 
d="M27 0l109 690h219l-109 -690h-219zM68 747l16 100h362l-16 -100h-362z" />
    <glyph glyph-name="imacron" unicode="&#x12b;" horiz-adv-x="296" 
d="M243 35l3 -35h-217q-4 11 -4 35q0 23 4 43l58 360q3 21 3 37l-3 35h217q3 -14 3 -36q0 -26 -3 -42l-58 -360q-3 -21 -3 -37zM10 567l16 100h362l-16 -100h-362z" />
    <glyph glyph-name="Ibreve" unicode="&#x12c;" horiz-adv-x="316" 
d="M27 0l109 690h219l-109 -690h-219zM360 870h88q-22 -71 -75.5 -108t-131.5 -37q-76 0 -118.5 37t-41.5 108h88q13 -49 87 -49q76 0 104 49z" />
    <glyph glyph-name="ibreve" unicode="&#x12d;" horiz-adv-x="296" 
d="M243 35l3 -35h-217q-4 11 -4 35q0 23 4 43l58 360q3 21 3 37l-3 35h217q3 -14 3 -36q0 -26 -3 -42l-58 -360q-3 -21 -3 -37zM310 690h88q-22 -71 -75.5 -108t-131.5 -37q-76 0 -118.5 37t-41.5 108h88q13 -49 87 -49q76 0 104 49z" />
    <glyph glyph-name="Iogonek" unicode="&#x12e;" horiz-adv-x="316" 
d="M242 -96l16 -51q-68 -50 -134 -50q-49 0 -80.5 18t-31.5 57q0 75 81 122h-66l109 690h219l-109 -690h-39q-32 -14 -55 -37.5t-23 -46.5q0 -32 47 -32q29 0 66 20z" />
    <glyph glyph-name="iogonek" unicode="&#x12f;" horiz-adv-x="296" 
d="M233 -96l16 -51q-68 -50 -134 -50q-49 0 -80.5 18t-31.5 57q0 75 81 122h-54q-4 11 -4 35q0 23 4 43l57 360q3 21 3 37l-3 35h217q3 -14 3 -36q0 -26 -3 -42l-57 -360q-3 -21 -3 -37l3 -35h-49q-32 -14 -55 -37.5t-23 -46.5q0 -32 47 -32q29 0 66 20zM345 654
q0 -56 -38.5 -92t-96.5 -36q-45 0 -73 23.5t-28 64.5q0 56 38.5 92t96.5 36q45 0 73 -23t28 -65z" />
    <glyph glyph-name="Idot" unicode="&#x130;" horiz-adv-x="316" 
d="M27 0l109 690h219l-109 -690h-219zM342 814q0 -39 -28 -68q-29 -29 -66 -29q-29 0 -48.5 20t-19.5 49q0 38 28 66t66 28q29 0 48.5 -18.5t19.5 -47.5z" />
    <glyph glyph-name="dotlessi" unicode="&#x131;" horiz-adv-x="296" 
d="M243 35l3 -35h-217q-4 11 -4 35q0 23 4 43l58 360q3 21 3 37l-3 35h217q3 -14 3 -36q0 -26 -3 -42l-58 -360q-3 -21 -3 -37z" />
    <glyph glyph-name="IJ" unicode="&#x132;" horiz-adv-x="631" 
d="M347 26l105 664h218l-105 -664q-18 -106 -69.5 -158.5t-147.5 -52.5q-94 0 -127 18l35 164q27 -10 52 -10q18 0 27 9t12 30zM27 0l109 690h219l-109 -690h-219z" />
    <glyph glyph-name="ij" unicode="&#x133;" horiz-adv-x="592" 
d="M345 654q0 -56 -38.5 -92t-96.5 -36q-45 0 -73 23.5t-28 64.5q0 56 38.5 92t96.5 36q45 0 73 -23t28 -65zM244 35l3 -35h-217q-4 11 -4 35q0 23 4 43l57 360q3 21 3 37l-3 35h217q3 -14 3 -36q0 -26 -3 -42l-57 -360q-3 -21 -3 -37zM601 438l-66 -412
q-18 -108 -72 -159.5t-156 -51.5q-72 0 -103 10l32 172q17 -5 39 -5q21 0 30.5 10.5t13.5 35.5l62 395q6 37 21 69l5 8h217q-15 -27 -23 -72zM641 654q0 -56 -38.5 -92t-96.5 -36q-45 0 -73 23.5t-28 64.5q0 56 38.5 92t96.5 36q45 0 73 -23t28 -65z" />
    <glyph glyph-name="Jcircumflex" unicode="&#x134;" horiz-adv-x="315" 
d="M31 26l105 664h218l-105 -664q-18 -106 -69.5 -158.5t-147.5 -52.5q-94 0 -127 18l35 164q27 -10 52 -10q18 0 27 9t12 30zM162 870h217l55 -145h-142l-32 83l-58 -83h-141z" />
    <glyph glyph-name="jcircumflex" unicode="&#x135;" horiz-adv-x="296" 
d="M305 438l-66 -412q-18 -108 -72 -159.5t-156 -51.5q-72 0 -103 10l32 172q17 -5 39 -5q21 0 30.5 10.5t13.5 35.5l62 395q6 37 21 69l5 8h217q-15 -27 -23 -72zM130 690h217l55 -145h-142l-32 83l-58 -83h-141z" />
    <glyph glyph-name="Kcommaaccent" unicode="&#x136;" horiz-adv-x="659" 
d="M321 483l171 207h257l-259 -283l164 -407h-262l-74 228l-45 -48l-28 -180h-218l109 690h218zM458 -50l-81 -140h-176l56 140h201z" />
    <glyph glyph-name="kcommaaccent" unicode="&#x137;" horiz-adv-x="596" 
d="M335 612l-37 -234l122 133h248l-199 -196l122 -315h-247l-52 154l-35 -34l-19 -120h-218l97 618q3 22 3 41l-2 31h218q3 -10 3 -33q0 -24 -4 -45zM426 -50l-81 -140h-176l56 140h201z" />
    <glyph glyph-name="kgreenlandic" unicode="&#x138;" horiz-adv-x="593" 
d="M304 432l-9 -54l122 133h248l-199 -196l122 -315h-247l-52 154l-35 -34l-19 -120h-218l69 438q3 22 3 41l-2 31h218q3 -10 3 -33q0 -24 -4 -45z" />
    <glyph glyph-name="Lacute" unicode="&#x139;" horiz-adv-x="504" 
d="M354 690l-80 -504h226l-29 -186h-444l109 690h218zM159 725l91 145h175l-115 -145h-151z" />
    <glyph glyph-name="lacute" unicode="&#x13a;" horiz-adv-x="301" 
d="M246 35l3 -35h-217q-4 11 -4 35q0 23 4 43l85 540q3 22 3 41l-2 31h217q3 -10 3 -33q0 -24 -4 -45l-85 -540q-3 -21 -3 -37zM145 735l91 145h175l-115 -145h-151z" />
    <glyph glyph-name="Lcommaaccent" unicode="&#x13b;" horiz-adv-x="504" 
d="M354 690l-80 -504h226l-29 -186h-444l109 690h218zM380 -50l-81 -140h-176l56 140h201z" />
    <glyph glyph-name="lcommaaccent" unicode="&#x13c;" horiz-adv-x="301" 
d="M246 35l3 -35h-217q-4 11 -4 35q0 23 4 43l85 540q3 22 3 41l-2 31h217q3 -10 3 -33q0 -24 -4 -45l-85 -540q-3 -21 -3 -37zM269 -50l-81 -140h-176l56 140h201z" />
    <glyph glyph-name="Lcaron" unicode="&#x13d;" horiz-adv-x="517" 
d="M354 690l-80 -504h226l-29 -186h-444l109 690h218zM343 405l132 285h204l-156 -285h-180z" />
    <glyph glyph-name="lcaron" unicode="&#x13e;" horiz-adv-x="508" 
d="M246 35l3 -35h-217q-4 11 -4 35q0 23 4 43l85 540q3 22 3 41l-2 31h217q3 -10 3 -33q0 -24 -4 -45l-85 -540q-3 -21 -3 -37zM331 405l132 285h204l-156 -285h-180z" />
    <glyph glyph-name="Ldot" unicode="&#x13f;" horiz-adv-x="560" 
d="M354 690l-80 -504h226l-29 -186h-444l109 690h218zM609 405q0 -56 -38.5 -91.5t-96.5 -35.5q-45 0 -72.5 23t-27.5 65q0 56 38 91.5t96 35.5q45 0 73 -23t28 -65z" />
    <glyph glyph-name="ldot" unicode="&#x140;" horiz-adv-x="565" 
d="M246 35l3 -35h-217q-4 11 -4 35q0 23 4 43l85 540q3 22 3 41l-2 31h217q3 -10 3 -33q0 -24 -4 -45l-85 -540q-3 -21 -3 -37zM575 311q0 -56 -38.5 -91.5t-96.5 -35.5q-45 0 -72.5 23t-27.5 65q0 56 38 91.5t96 35.5q45 0 73 -23t28 -65z" />
    <glyph glyph-name="Lslash" unicode="&#x141;" horiz-adv-x="504" 
d="M298 335l-24 -149h226l-29 -186h-444l29 184l-37 -25l25 162l38 25l54 344h218l-30 -193l102 69l-26 -162z" />
    <glyph glyph-name="lslash" unicode="&#x142;" horiz-adv-x="305" 
d="M249 35l3 -35h-217q-4 11 -4 35q0 23 4 43l21 134l-43 -29l25 157l42 29l40 249q3 22 3 41l-2 31h217q3 -10 3 -33q0 -24 -4 -45l-11 -70l43 29l-25 -157l-43 -29l-49 -313q-3 -21 -3 -37z" />
    <glyph glyph-name="Nacute" unicode="&#x143;" horiz-adv-x="737" 
d="M540 574l19 116h213l-109 -690h-228l-139 380q-9 -86 -56 -380h-213l109 690h237l130 -380q3 35 13 115zM362 725l91 145h175l-115 -145h-151z" />
    <glyph glyph-name="nacute" unicode="&#x144;" horiz-adv-x="613" 
d="M560 35l3 -35h-216q-4 11 -4 35q0 23 4 43l27 172q4 25 4 41q0 45 -40 45q-24 0 -37 -15q-13 -14 -17.5 -27t-8.5 -44l-40 -250h-218l70 438q3 22 3 41l-2 31h215q4 -9 4 -28q0 -18 -3 -34q62 72 147 72q155 0 155 -151q0 -35 -6 -69l-37 -228q-3 -21 -3 -37zM247 545
l91 145h175l-115 -145h-151z" />
    <glyph glyph-name="Ncommaaccent" unicode="&#x145;" horiz-adv-x="737" 
d="M540 574l19 116h213l-109 -690h-228l-139 380q-9 -86 -56 -380h-213l109 690h237l130 -380q3 35 13 115zM487 -50l-81 -140h-176l56 140h201z" />
    <glyph glyph-name="ncommaaccent" unicode="&#x146;" horiz-adv-x="613" 
d="M560 35l3 -35h-216q-4 11 -4 35q0 23 4 43l27 172q4 25 4 41q0 45 -40 45q-24 0 -37 -15q-13 -14 -17.5 -27t-8.5 -44l-40 -250h-218l70 438q3 22 3 41l-2 31h215q4 -9 4 -28q0 -18 -3 -34q62 72 147 72q155 0 155 -151q0 -35 -6 -69l-37 -228q-3 -21 -3 -37zM423 -50
l-81 -140h-176l56 140h201z" />
    <glyph glyph-name="Ncaron" unicode="&#x147;" horiz-adv-x="737" 
d="M540 574l19 116h213l-109 -690h-228l-139 380q-9 -86 -56 -380h-213l109 690h237l130 -380q3 35 13 115zM458 787l58 83h142l-101 -145h-217l-55 145h141z" />
    <glyph glyph-name="ncaron" unicode="&#x148;" horiz-adv-x="613" 
d="M560 35l3 -35h-216q-4 11 -4 35q0 23 4 43l27 172q4 25 4 41q0 45 -40 45q-24 0 -37 -15q-13 -14 -17.5 -27t-8.5 -44l-40 -250h-218l70 438q3 22 3 41l-2 31h215q4 -9 4 -28q0 -18 -3 -34q62 72 147 72q155 0 155 -151q0 -35 -6 -69l-37 -228q-3 -21 -3 -37zM348 607
l58 83h142l-101 -145h-217l-55 145h141z" />
    <glyph glyph-name="Eng" unicode="&#x14a;" horiz-adv-x="737" 
d="M540 574l19 116h213l-105 -664q-18 -106 -69.5 -158.5t-147.5 -52.5q-94 0 -127 18l35 164q27 -10 52 -10q18 0 26 9l-140 384q-9 -86 -56 -380h-213l109 690h237l130 -380q3 35 13 115z" />
    <glyph glyph-name="eng" unicode="&#x14b;" horiz-adv-x="613" 
d="M297 -8q21 0 30.5 10.5t13.5 35.5l33 212q4 25 4 41q0 45 -40 45q-24 0 -37 -15q-13 -14 -17.5 -27t-8.5 -44l-40 -250h-218l70 438q3 22 3 41l-2 31h215q4 -9 4 -28q0 -18 -3 -34q62 72 147 72q155 0 155 -151q0 -35 -6 -69l-43 -274q-18 -108 -72 -159.5t-156 -51.5
q-72 0 -103 10l32 172q17 -5 39 -5z" />
    <glyph glyph-name="Omacron" unicode="&#x14c;" horiz-adv-x="766" 
d="M780 415q0 -186 -119 -307q-119 -120 -304 -120q-139 0 -224 75q-86 75 -86 211q0 188 118 307q119 120 305 120q139 0 224 -75q86 -75 86 -211zM558 384q0 57 -32 91t-86 34q-75 0 -122 -59t-47 -136q0 -57 32 -91t86 -34q76 0 122 58q47 59 47 137zM271 747l16 100h362
l-16 -100h-362z" />
    <glyph glyph-name="omacron" unicode="&#x14d;" horiz-adv-x="601" 
d="M606 305q0 -144 -93 -231q-92 -86 -237 -86q-108 0 -178 55q-69 55 -69 160q0 145 93 230q93 87 238 87q109 0 177 -55q69 -55 69 -160zM387 280q0 30 -14 47t-41 17q-39 0 -61 -34q-21 -34 -21 -75q0 -64 55 -64q39 0 60 34q22 34 22 75zM169 567l16 100h362l-16 -100
h-362z" />
    <glyph glyph-name="Obreve" unicode="&#x14e;" horiz-adv-x="766" 
d="M780 415q0 -186 -119 -307q-119 -120 -304 -120q-139 0 -224 75q-86 75 -86 211q0 188 118 307q119 120 305 120q139 0 224 -75q86 -75 86 -211zM558 384q0 57 -32 91t-86 34q-75 0 -122 -59t-47 -136q0 -57 32 -91t86 -34q76 0 122 58q47 59 47 137zM568 870h88
q-22 -71 -75.5 -108t-131.5 -37q-76 0 -118.5 37t-41.5 108h88q13 -49 87 -49q76 0 104 49z" />
    <glyph glyph-name="obreve" unicode="&#x14f;" horiz-adv-x="601" 
d="M606 305q0 -144 -93 -231q-92 -86 -237 -86q-108 0 -178 55q-69 55 -69 160q0 145 93 230q93 87 238 87q109 0 177 -55q69 -55 69 -160zM387 280q0 30 -14 47t-41 17q-39 0 -61 -34q-21 -34 -21 -75q0 -64 55 -64q39 0 60 34q22 34 22 75zM457 690h88q-22 -71 -75.5 -108
t-131.5 -37q-76 0 -118.5 37t-41.5 108h88q13 -49 87 -49q76 0 104 49z" />
    <glyph glyph-name="Ohungarumlaut" unicode="&#x150;" horiz-adv-x="766" 
d="M780 415q0 -186 -119 -307q-119 -120 -304 -120q-139 0 -224 75q-86 75 -86 211q0 188 118 307q119 120 305 120q139 0 224 -75q86 -75 86 -211zM558 384q0 57 -32 91t-86 34q-75 0 -122 -59t-47 -136q0 -57 32 -91t86 -34q76 0 122 58q47 59 47 137zM465 725l96 145h171
l-121 -145h-146zM254 725l96 145h171l-121 -145h-146z" />
    <glyph glyph-name="ohungarumlaut" unicode="&#x151;" horiz-adv-x="601" 
d="M606 305q0 -144 -93 -231q-92 -86 -237 -86q-108 0 -178 55q-69 55 -69 160q0 145 93 230q93 87 238 87q109 0 177 -55q69 -55 69 -160zM387 280q0 30 -14 47t-41 17q-39 0 -61 -34q-21 -34 -21 -75q0 -64 55 -64q39 0 60 34q22 34 22 75zM357 545l96 145h171l-121 -145
h-146zM146 545l96 145h171l-121 -145h-146z" />
    <glyph glyph-name="OE" unicode="&#x152;" horiz-adv-x="955" 
d="M552 693l13 -3h432l-28 -179h-230l-12 -73h216l-28 -179h-216l-12 -78h240l-29 -181h-438q-37 -12 -103 -12q-139 0 -224 75q-86 75 -86 211q0 188 118 307q119 120 305 120q50 0 82 -8zM472 206l46 288q-26 15 -78 15q-75 0 -122 -59t-47 -136q0 -57 32 -91t86 -34
q47 0 83 17z" />
    <glyph glyph-name="oe" unicode="&#x153;" horiz-adv-x="904" 
d="M714 184q-54 0 -131 21q8 -71 98 -71q71 0 132 36l63 -107q-44 -32 -99 -53q-51 -18 -82 -21t-75 -3q-102 0 -163 46q-77 -44 -181 -44q-108 0 -178 55q-69 55 -69 160q0 145 93 230q93 87 238 87q101 0 167 -48q77 47 172 47q90 0 150 -42q61 -40 61 -128
q0 -165 -196 -165zM387 280q0 30 -14 47t-41 17q-39 0 -61 -34q-21 -34 -21 -75q0 -64 55 -64q39 0 60 34q22 34 22 75zM597 308q36 -6 64 -6q82 0 82 56q0 41 -52 41q-30 0 -59 -28q-29 -29 -35 -63z" />
    <glyph glyph-name="Racute" unicode="&#x154;" horiz-adv-x="640" 
d="M668 507q0 -77 -39 -142t-107 -103l108 -262h-252l-69 229h-27l-36 -229h-219l109 690h289q106 0 174.5 -42t68.5 -141zM444 472q0 23 -17.5 35t-45.5 12h-54l-19 -118h57q34 0 56.5 19.5t22.5 51.5zM272 725l91 145h175l-115 -145h-151z" />
    <glyph glyph-name="racute" unicode="&#x155;" horiz-adv-x="427" 
d="M484 510l-42 -206h-11q-27 15 -60 15q-86 0 -104 -119l-32 -200h-218l70 439q2 20 2 40l-2 31h215q4 -11 4 -28q0 -18 -3 -34h1q52 72 133 72q34 0 47 -10zM173 545l91 145h175l-115 -145h-151z" />
    <glyph glyph-name="Rcommaaccent" unicode="&#x156;" horiz-adv-x="640" 
d="M668 507q0 -77 -39 -142t-107 -103l108 -262h-252l-69 229h-27l-36 -229h-219l109 690h289q106 0 174.5 -42t68.5 -141zM444 472q0 23 -17.5 35t-45.5 12h-54l-19 -118h57q34 0 56.5 19.5t22.5 51.5zM428 -50l-81 -140h-176l56 140h201z" />
    <glyph glyph-name="rcommaaccent" unicode="&#x157;" horiz-adv-x="427" 
d="M484 510l-42 -206h-11q-27 15 -60 15q-86 0 -104 -119l-32 -200h-218l70 439q2 20 2 40l-2 31h215q4 -11 4 -28q0 -18 -3 -34h1q52 72 133 72q34 0 47 -10zM257 -50l-81 -140h-176l56 140h201z" />
    <glyph glyph-name="Rcaron" unicode="&#x158;" horiz-adv-x="640" 
d="M668 507q0 -77 -39 -142t-107 -103l108 -262h-252l-69 229h-27l-36 -229h-219l109 690h289q106 0 174.5 -42t68.5 -141zM444 472q0 23 -17.5 35t-45.5 12h-54l-19 -118h57q34 0 56.5 19.5t22.5 51.5zM394 787l58 83h142l-101 -145h-217l-55 145h141z" />
    <glyph glyph-name="rcaron" unicode="&#x159;" horiz-adv-x="427" 
d="M484 510l-42 -206h-11q-27 15 -60 15q-86 0 -104 -119l-32 -200h-218l70 439q2 20 2 40l-2 31h215q4 -11 4 -28q0 -18 -3 -34h1q52 72 133 72q34 0 47 -10zM291 607l58 83h142l-101 -145h-217l-55 145h141z" />
    <glyph glyph-name="Sacute" unicode="&#x15a;" horiz-adv-x="553" 
d="M611 615l-108 -162q-32 28 -74.5 47t-78.5 19q-51 0 -51 -27q0 -10 14.5 -19t37 -17t50 -17.5t55.5 -24t50.5 -33t37 -48.5t14.5 -67q0 -88 -48 -152q-91 -126 -277 -126q-135 0 -242 93l125 171q31 -31 77 -52q51 -23 89 -23q51 0 51 27q0 14 -23 26t-68 26
q-167 48 -166 172q0 128 90 199q91 71 222 71q56 0 120 -24q65 -23 103 -59zM250 725l91 145h175l-115 -145h-151z" />
    <glyph glyph-name="sacute" unicode="&#x15b;" horiz-adv-x="473" 
d="M501 463l-79 -127q-28 19 -65.5 32.5t-67.5 13.5q-29 0 -29 -15q0 -13 71 -35q131 -39 131 -141q-1 -99 -75.5 -152.5t-178.5 -51.5q-136 0 -215 71l94 134q26 -21 72 -38q44 -16 80 -16q28 0 28 15q0 11 -21 19.5t-50.5 17t-59 21.5t-50.5 40.5t-21 67.5q0 97 69 149
q71 53 169 53q113 0 198 -58zM187 545l91 145h175l-115 -145h-151z" />
    <glyph glyph-name="Scircumflex" unicode="&#x15c;" horiz-adv-x="553" 
d="M611 615l-108 -162q-32 28 -74.5 47t-78.5 19q-51 0 -51 -27q0 -10 14.5 -19t37 -17t50 -17.5t55.5 -24t50.5 -33t37 -48.5t14.5 -67q0 -88 -48 -152q-91 -126 -277 -126q-135 0 -242 93l125 171q31 -31 77 -52q51 -23 89 -23q51 0 51 27q0 14 -23 26t-68 26
q-167 48 -166 172q0 128 90 199q91 71 222 71q56 0 120 -24q65 -23 103 -59zM276 870h217l55 -145h-142l-32 83l-58 -83h-141z" />
    <glyph glyph-name="scircumflex" unicode="&#x15d;" horiz-adv-x="473" 
d="M501 463l-79 -127q-28 19 -65.5 32.5t-67.5 13.5q-29 0 -29 -15q0 -13 71 -35q131 -39 131 -141q-1 -99 -75.5 -152.5t-178.5 -51.5q-136 0 -215 71l94 134q26 -21 72 -38q44 -16 80 -16q28 0 28 15q0 11 -21 19.5t-50.5 17t-59 21.5t-50.5 40.5t-21 67.5q0 97 69 149
q71 53 169 53q113 0 198 -58zM211 690h217l55 -145h-142l-32 83l-58 -83h-141z" />
    <glyph glyph-name="Scedilla" unicode="&#x15e;" horiz-adv-x="553" 
d="M611 615l-108 -162q-32 28 -74.5 47t-78.5 19q-51 0 -51 -27q0 -10 14.5 -19t37 -17t50 -17.5t55.5 -24t50.5 -33t37 -48.5t14.5 -67q0 -88 -47 -152.5t-130 -98.5l-90 -147h-151l89 120q-131 1 -238 93l125 171q31 -31 77 -52q51 -23 89 -23q51 0 51 27q0 14 -23 26
t-68 26q-167 48 -166 172q0 128 90 199q91 71 222 71q56 0 120 -24q65 -23 103 -59z" />
    <glyph glyph-name="scedilla" unicode="&#x15f;" horiz-adv-x="473" 
d="M501 463l-79 -127q-28 19 -65.5 32.5t-67.5 13.5q-29 0 -29 -15q0 -13 71 -35q131 -39 131 -141q0 -119 -109 -173l-90 -147h-151l86 116q-133 5 -205 71l94 134q26 -21 72 -38q44 -16 80 -16q28 0 28 15q0 11 -21 19.5t-50.5 17t-59 21.5t-50.5 40.5t-21 67.5
q0 97 69 149q71 53 169 53q113 0 198 -58z" />
    <glyph glyph-name="Scaron" unicode="&#x160;" horiz-adv-x="553" 
d="M401 781l59 84h141l-101 -147h-217l-55 147h142zM611 615l-108 -162q-32 28 -74.5 47t-78.5 19q-51 0 -51 -27q0 -10 14.5 -19t37 -17t50 -17.5t55.5 -24t50.5 -33t37 -48.5t14.5 -67q0 -88 -48 -152q-91 -126 -277 -126q-135 0 -242 93l125 171q31 -31 77 -52
q51 -23 89 -23q51 0 51 27q0 14 -23 26t-68 26q-167 48 -166 172q0 128 90 199q91 71 222 71q56 0 120 -24q65 -23 103 -59z" />
    <glyph glyph-name="scaron" unicode="&#x161;" horiz-adv-x="473" 
d="M316 606l58 84h142l-101 -147h-217l-55 147h141zM501 463l-79 -127q-28 19 -65.5 32.5t-67.5 13.5q-29 0 -29 -15q0 -13 71 -35q131 -39 131 -141q-1 -99 -75.5 -152.5t-178.5 -51.5q-136 0 -215 71l94 134q26 -21 72 -38q44 -16 80 -16q28 0 28 15q0 11 -21 19.5
t-50.5 17t-59 21.5t-50.5 40.5t-21 67.5q0 97 69 149q71 53 169 53q113 0 198 -58z" />
    <glyph glyph-name="Tcommaaccent" unicode="&#x162;" horiz-adv-x="534" 
d="M60 513l28 177h531l-28 -177h-156l-81 -513h-219l81 513h-156zM365 -50l-81 -140h-176l56 140h201z" />
    <glyph glyph-name="tcommaaccent" unicode="&#x163;" horiz-adv-x="393" 
d="M352 557l-7 -47h101l-27 -166h-100q-1 -13 -9 -46q-14 -68 -14 -103q0 -24 33 -24q23 0 50 8l-18 -174q-73 -17 -143 -17q-149 0 -149 130q0 38 4 70q4 35 15 88l13 68h-67l26 166h67l8 50q3 18 3 44l-2 31h217q3 -11 3 -33q0 -24 -4 -45zM325 -50l-81 -140h-176l56 140
h201z" />
    <glyph glyph-name="Tcaron" unicode="&#x164;" horiz-adv-x="534" 
d="M60 513l28 177h531l-28 -177h-156l-81 -513h-219l81 513h-156zM358 787l58 83h142l-101 -145h-217l-55 145h141z" />
    <glyph glyph-name="tcaron" unicode="&#x165;" horiz-adv-x="393" 
d="M352 557l-7 -47h101l-27 -166h-100q-1 -13 -9 -46q-14 -68 -14 -103q0 -24 33 -24q23 0 50 8l-18 -174q-73 -17 -143 -17q-149 0 -149 130q0 38 4 70q4 35 15 88l13 68h-67l26 166h67l8 50q3 18 3 44l-2 31h217q3 -11 3 -33q0 -24 -4 -45zM391 550l132 285h204l-156 -285
h-180z" />
    <glyph glyph-name="Tbar" unicode="&#x166;" horiz-adv-x="534" 
d="M60 513l28 177h531l-28 -177h-156l-20 -128h72l-21 -130h-72l-40 -255h-219l40 255h-72l21 130h72l20 128h-156z" />
    <glyph glyph-name="tbar" unicode="&#x167;" horiz-adv-x="393" 
d="M352 557l-7 -47h101l-27 -166h-100l-7 -38h91l-13 -80h-92q-2 -30 -2 -31q0 -24 33 -24q23 0 50 8l-18 -174q-73 -17 -143 -17q-149 0 -149 130q0 51 10 108h-50l13 80h52l7 38h-67l26 166h67l8 50q3 18 3 44l-2 31h217q3 -11 3 -33q0 -24 -4 -45z" />
    <glyph glyph-name="Utilde" unicode="&#x168;" horiz-adv-x="698" 
d="M454 285l64 405h220l-62 -395q-50 -306 -352 -306q-119 0 -190 55q-72 56 -72 167q0 38 7 84l63 395h220l-64 -405q-3 -17 -3 -32q0 -32 19.5 -49.5t50.5 -17.5q83 0 99 99zM568 870l86 -10q-7 -53 -53 -96q-45 -42 -99 -42q-41 0 -76 22q-35 23 -49 23q-31 0 -51 -42
l-87 10q7 53 53 96q45 42 99 42q41 0 76 -23q34 -22 49 -22q31 0 52 42z" />
    <glyph glyph-name="utilde" unicode="&#x169;" horiz-adv-x="604" 
d="M301 432l-24 -147q-8 -53 -8 -69q0 -42 36 -42q45 0 55 66l43 270h218l-70 -438q-3 -21 -3 -37l3 -35h-211q-5 12 -5 33q0 8 1 11q-64 -56 -142 -56q-73 0 -113 37.5t-40 106.5q0 35 6 68l37 238q3 22 3 41l-2 31h217q3 -10 3 -33q0 -24 -4 -45zM490 690l86 -10
q-7 -53 -53 -96q-45 -42 -99 -42q-41 0 -76 22q-35 23 -49 23q-31 0 -51 -42l-87 10q7 53 53 96q45 42 99 42q36 0 76 -22.5t49 -22.5q31 0 52 42z" />
    <glyph glyph-name="Umacron" unicode="&#x16a;" horiz-adv-x="698" 
d="M454 285l64 405h220l-62 -395q-50 -306 -352 -306q-119 0 -190 55q-72 56 -72 167q0 38 7 84l63 395h220l-64 -405q-3 -17 -3 -32q0 -32 19.5 -49.5t50.5 -17.5q83 0 99 99zM255 747l16 100h362l-16 -100h-362z" />
    <glyph glyph-name="umacron" unicode="&#x16b;" horiz-adv-x="604" 
d="M301 432l-24 -147q-8 -53 -8 -69q0 -42 36 -42q45 0 55 66l43 270h218l-70 -438q-3 -21 -3 -37l3 -35h-211q-5 12 -5 33q0 8 1 11q-64 -56 -142 -56q-73 0 -113 37.5t-40 106.5q0 35 6 68l37 238q3 22 3 41l-2 31h217q3 -10 3 -33q0 -24 -4 -45zM171 567l16 100h362
l-16 -100h-362z" />
    <glyph glyph-name="Ubreve" unicode="&#x16c;" horiz-adv-x="698" 
d="M454 285l64 405h220l-62 -395q-50 -306 -352 -306q-119 0 -190 55q-72 56 -72 167q0 38 7 84l63 395h220l-64 -405q-3 -17 -3 -32q0 -32 19.5 -49.5t50.5 -17.5q83 0 99 99zM543 870h88q-22 -71 -75.5 -108t-131.5 -37q-76 0 -118.5 37t-41.5 108h88q13 -49 87 -49
q76 0 104 49z" />
    <glyph glyph-name="ubreve" unicode="&#x16d;" horiz-adv-x="604" 
d="M301 432l-24 -147q-8 -53 -8 -69q0 -42 36 -42q45 0 55 66l43 270h218l-70 -438q-3 -21 -3 -37l3 -35h-211q-5 12 -5 33q0 8 1 11q-64 -56 -142 -56q-73 0 -113 37.5t-40 106.5q0 35 6 68l37 238q3 22 3 41l-2 31h217q3 -10 3 -33q0 -24 -4 -45zM464 690h88
q-22 -71 -75.5 -108t-131.5 -37q-76 0 -118.5 37t-41.5 108h88q13 -49 87 -49q76 0 104 49z" />
    <glyph glyph-name="Uring" unicode="&#x16e;" horiz-adv-x="698" 
d="M454 285l64 405h220l-62 -395q-50 -306 -352 -306q-119 0 -190 55q-72 56 -72 167q0 38 7 84l63 395h220l-64 -405q-3 -17 -3 -32q0 -32 19.5 -49.5t50.5 -17.5q83 0 99 99zM579 850q0 -59 -42 -95q-43 -35 -102 -35q-49 0 -79.5 23t-30.5 67q0 59 42 94q42 36 102 36
q49 0 79.5 -23t30.5 -67zM500 839q0 35 -41 35q-24 0 -39.5 -14.5t-15.5 -38.5q0 -35 41 -35q24 0 39.5 14.5t15.5 38.5z" />
    <glyph glyph-name="uring" unicode="&#x16f;" horiz-adv-x="604" 
d="M301 432l-24 -147q-8 -53 -8 -69q0 -42 36 -42q45 0 55 66l43 270h218l-70 -438q-3 -21 -3 -37l3 -35h-211q-5 12 -5 33q0 8 1 11q-64 -56 -142 -56q-73 0 -113 37.5t-40 106.5q0 35 6 68l37 238q3 22 3 41l-2 31h217q3 -10 3 -33q0 -24 -4 -45zM501 670q0 -59 -42 -95
q-43 -35 -102 -35q-49 0 -79.5 23t-30.5 67q0 60 42 94q42 36 102 36q49 0 79.5 -23t30.5 -67zM422 659q0 35 -41 35q-24 0 -39.5 -14.5t-15.5 -38.5q0 -35 41 -35q24 0 39.5 14.5t15.5 38.5z" />
    <glyph glyph-name="Uhungarumlaut" unicode="&#x170;" horiz-adv-x="698" 
d="M454 285l64 405h220l-62 -395q-50 -306 -352 -306q-119 0 -190 55q-72 56 -72 167q0 38 7 84l63 395h220l-64 -405q-3 -17 -3 -32q0 -32 19.5 -49.5t50.5 -17.5q83 0 99 99zM439 725l96 145h171l-121 -145h-146zM228 725l96 145h171l-121 -145h-146z" />
    <glyph glyph-name="uhungarumlaut" unicode="&#x171;" horiz-adv-x="604" 
d="M301 432l-24 -147q-8 -53 -8 -69q0 -42 36 -42q45 0 55 66l43 270h218l-70 -438q-3 -21 -3 -37l3 -35h-211q-5 12 -5 33q0 8 1 11q-64 -56 -142 -56q-73 0 -113 37.5t-40 106.5q0 35 6 68l37 238q3 22 3 41l-2 31h217q3 -10 3 -33q0 -24 -4 -45zM357 545l96 145h171
l-121 -145h-146zM146 545l96 145h171l-121 -145h-146z" />
    <glyph glyph-name="Uogonek" unicode="&#x172;" horiz-adv-x="698" 
d="M426 -99l16 -51q-68 -50 -134 -50q-49 0 -80.5 18t-31.5 57q0 71 73 117q-98 12 -152.5 67.5t-54.5 151.5q0 38 7 84l63 395h220l-64 -405q-3 -17 -3 -32q0 -32 19.5 -49.5t50.5 -17.5q83 0 99 99l64 405h220l-62 -395q-45 -278 -295 -303q-29 -15 -48.5 -36.5
t-19.5 -42.5q0 -32 47 -32q29 0 66 20z" />
    <glyph glyph-name="uogonek" unicode="&#x173;" horiz-adv-x="604" 
d="M541 -95l16 -51q-68 -50 -134 -50q-49 0 -80.5 18t-31.5 57q0 74 80 121h-51q-5 12 -5 33q0 8 1 11q-64 -56 -142 -56q-73 0 -113 37.5t-40 106.5q0 35 6 68l37 238q3 22 3 41l-2 31h217q3 -10 3 -33q0 -24 -4 -45l-24 -147q-8 -53 -8 -69q0 -42 36 -42q45 0 55 66
l43 270h218l-70 -438q-3 -21 -3 -37l3 -35h-47q-32 -16 -54 -38t-22 -45q0 -32 47 -32q29 0 66 20z" />
    <glyph glyph-name="Wcircumflex" unicode="&#x174;" horiz-adv-x="984" 
d="M706 310l141 380h228l-297 -690h-223l-27 386l-149 -386h-222l-79 690h228l21 -380l141 380h217zM490 870h217l55 -145h-142l-32 83l-58 -83h-141z" />
    <glyph glyph-name="wcircumflex" unicode="&#x175;" horiz-adv-x="858" 
d="M595 244l103 266h219l-240 -510h-208l-25 246l-103 -246h-208l-78 510h218l19 -266l104 266h179zM400 690h217l55 -145h-142l-32 83l-58 -83h-141z" />
    <glyph glyph-name="Ycircumflex" unicode="&#x176;" 
d="M372 460l134 230h243l-298 -420l-42 -270h-219l43 270l-165 420h243zM329 870h217l55 -145h-142l-32 83l-58 -83h-141z" />
    <glyph glyph-name="ycircumflex" unicode="&#x177;" horiz-adv-x="591" 
d="M315 248l119 262h223l-284 -520q-16 -30 -40 -66q-16 -24 -43 -53q-50 -56 -133 -56q-109 0 -174 30l69 162q31 -16 66 -16q36 0 47 29l-115 490h227zM284 690h217l55 -145h-142l-32 83l-58 -83h-141z" />
    <glyph glyph-name="Ydieresis" unicode="&#x178;" 
d="M605 804q0 -39 -27.5 -67.5t-66.5 -28.5q-30 0 -49 18t-19 48q0 40 27 68t67 28q30 0 49 -18t19 -48zM406 804q0 -39 -27.5 -67.5t-66.5 -28.5q-30 0 -49.5 18t-19.5 48q0 40 27.5 68t67.5 28q30 0 49 -18t19 -48zM372 460l134 230h243l-298 -420l-42 -270h-219l43 270
l-165 420h243z" />
    <glyph glyph-name="Zacute" unicode="&#x179;" horiz-adv-x="640" 
d="M98 509l29 181h558l-24 -156l-342 -348h301l-29 -186h-583l25 161l342 348h-277zM296 725l91 145h175l-115 -145h-151z" />
    <glyph glyph-name="zacute" unicode="&#x17a;" horiz-adv-x="519" 
d="M53 344l26 166h477l-19 -121l-239 -213h215l-28 -176h-496l20 126l244 218h-200zM203 545l91 145h175l-115 -145h-151z" />
    <glyph glyph-name="Zdotaccent" unicode="&#x17b;" horiz-adv-x="640" 
d="M98 509l29 181h558l-24 -156l-342 -348h301l-29 -186h-583l25 161l342 348h-277zM480 814q0 -39 -28 -68q-29 -29 -66 -29q-29 0 -48.5 20t-19.5 49q0 38 28 66t66 28q29 0 48.5 -18.5t19.5 -47.5z" />
    <glyph glyph-name="zdotaccent" unicode="&#x17c;" horiz-adv-x="519" 
d="M53 344l26 166h477l-19 -121l-239 -213h215l-28 -176h-496l20 126l244 218h-200zM397 634q0 -39 -28 -68q-29 -29 -66 -29q-29 0 -48.5 20t-19.5 49q0 38 28 66t66 28q29 0 48.5 -18.5t19.5 -47.5z" />
    <glyph glyph-name="Zcaron" unicode="&#x17d;" horiz-adv-x="640" 
d="M421 781l58 84h141l-101 -147h-217l-55 147h142zM98 509l29 181h559l-25 -156l-342 -347h301l-29 -187h-583l25 161l342 348h-277z" />
    <glyph glyph-name="zcaron" unicode="&#x17e;" horiz-adv-x="519" 
d="M333 606l58 84h142l-102 -147h-217l-54 147h141zM53 344l26 167h477l-19 -122l-239 -213h215l-28 -176h-496l20 126l244 218h-200z" />
    <glyph glyph-name="florin" unicode="&#x192;" 
d="M687 700l-68 -152q-25 15 -51 15q-28 0 -48 -37l-9 -20l-12 -40h98l-50 -147h-98l-82 -244q-36 -108 -93 -159q-56 -51 -162 -51q-61 0 -107 25l74 162q21 -10 42 -10q19 0 34 16q10 10 17 21.5t9 18t10 28.5l66 193h-91l50 147h91q35 112 55 151q53 107 157 118
q18 2 29 2q84 0 139 -37z" />
    <glyph glyph-name="AEacute" unicode="&#x1fc;" horiz-adv-x="916" 
d="M-65 0l466 690h558l-28 -179h-226l-11 -73h211l-29 -179h-211l-12 -78h235l-29 -181h-453l16 97h-181l-59 -97h-247zM344 271h105l38 239zM561 725l91 145h175l-115 -145h-151z" />
    <glyph glyph-name="aeacute" unicode="&#x1fd;" horiz-adv-x="875" 
d="M665 184q-55 0 -131 21q8 -71 98 -71q81 0 142 43l63 -107q-107 -84 -266 -84q-123 0 -187 67q-47 -36 -94.5 -50.5t-112.5 -14.5q-74 0 -119 34t-45 100q7 119 89 155q62 29 119 34q14 1 63 5q8 1 30 1.5t32 0.5q1 5 1 16q0 35 -71 35q-81 0 -161 -46l-31 144
q121 53 245 53q107 0 164 -39q74 38 157 38q60 0 108 -16q53 -16 88 -56.5t35 -97.5q0 -81 -57.5 -123t-158.5 -42zM548 308q36 -6 64 -6q97 0 97 56q0 41 -49 41q-38 0 -72 -28q-34 -27 -40 -63zM276 126q29 0 61 20q-5 25 -5 46v15l-51 -3q-19 -3 -32.5 -14.5t-13.5 -31.5
q0 -32 41 -32zM406 545l91 145h175l-115 -145h-151z" />
    <glyph glyph-name="Oslashacute" unicode="&#x1fe;" horiz-adv-x="766" 
d="M662 651l80 72l78 -94l-74 -67q34 -64 34 -147q0 -186 -119 -307q-119 -120 -304 -120q-113 0 -192 51l-80 -72l-78 94l75 67q-35 62 -35 146q0 188 118 307q119 120 305 120q113 0 192 -50zM271 314l1 -15l221 199q-24 11 -53 11q-76 0 -124 -59t-45 -136zM558 384v9
l-217 -195q23 -9 48 -9q76 0 123 59q48 58 46 136zM349 725l91 145h175l-115 -145h-151z" />
    <glyph glyph-name="oslashacute" unicode="&#x1ff;" horiz-adv-x="601" 
d="M507 486l57 49l66 -78l-50 -43q26 -49 26 -109q0 -144 -93 -231q-92 -86 -237 -86q-88 0 -150 35l-56 -48l-66 78l50 44q-25 46 -25 106q0 145 93 230q93 87 238 87q86 0 147 -34zM241 242l122 109q-12 5 -27 5q-43 0 -67.5 -32.5t-27.5 -81.5zM401 270l-121 -107
q9 -4 25 -4q43 0 66.5 31t29.5 80zM252 545l91 145h175l-115 -145h-151z" />
    <glyph glyph-name="dotlessj" unicode="&#x237;" horiz-adv-x="296" 
d="M305 438l-66 -412q-18 -108 -72 -159.5t-156 -51.5q-72 0 -103 10l32 172q17 -5 39 -5q21 0 30.5 10.5t13.5 35.5l62 395q6 37 21 69l5 8h217q-15 -27 -23 -72z" />
    <glyph glyph-name="circumflex" unicode="&#x2c6;" horiz-adv-x="485" 
d="M221 690h217l55 -145h-142l-32 83l-58 -83h-141z" />
    <glyph glyph-name="caron" unicode="&#x2c7;" horiz-adv-x="485" 
d="M316 607l58 83h142l-101 -145h-217l-55 145h141z" />
    <glyph glyph-name="breve" unicode="&#x2d8;" horiz-adv-x="485" 
d="M426 690h88q-22 -71 -75.5 -108t-131.5 -37q-76 0 -118.5 37t-41.5 108h88q13 -49 87 -49q76 0 104 49z" />
    <glyph glyph-name="dotaccent" unicode="&#x2d9;" horiz-adv-x="485" 
d="M399 634q0 -39 -28 -68q-29 -29 -66 -29q-29 0 -48.5 20t-19.5 49q0 38 28 66t66 28q29 0 48.5 -18.5t19.5 -47.5z" />
    <glyph glyph-name="ring" unicode="&#x2da;" horiz-adv-x="485" 
d="M450 670q0 -59 -42 -95q-43 -35 -102 -35q-49 0 -79.5 23t-30.5 67q0 60 42 94q42 36 102 36q49 0 79.5 -23t30.5 -67zM371 659q0 35 -41 35q-24 0 -39.5 -14.5t-15.5 -38.5q0 -35 41 -35q24 0 39.5 14.5t15.5 38.5z" />
    <glyph glyph-name="ogonek" unicode="&#x2db;" horiz-adv-x="485" 
d="M306 -99l16 -51q-68 -50 -134 -50q-49 0 -80.5 18t-31.5 57q0 40 27 74.5t70 55.5h102l-1 -7q-33 -16 -57 -39t-24 -46q0 -32 47 -32q29 0 66 20z" />
    <glyph glyph-name="tilde" unicode="&#x2dc;" horiz-adv-x="485" 
d="M439 690l86 -10q-7 -53 -53 -96q-45 -42 -99 -42q-41 0 -76 22q-35 23 -49 23q-32 0 -51 -42l-87 10q7 53 53 96q45 42 99 42q39 0 76 -23q35 -22 49 -22q31 0 52 42z" />
    <glyph glyph-name="hungarumlaut" unicode="&#x2dd;" horiz-adv-x="485" 
d="M290 545l96 145h171l-121 -145h-146zM79 545l96 145h171l-121 -145h-146z" />
    <glyph glyph-name="Wgrave" unicode="&#x1e80;" horiz-adv-x="984" 
d="M706 310l141 380h228l-297 -690h-223l-27 386l-149 -386h-222l-79 690h228l21 -380l141 380h217zM444 870h175l45 -145h-151z" />
    <glyph glyph-name="wgrave" unicode="&#x1e81;" horiz-adv-x="858" 
d="M595 244l103 266h219l-240 -510h-208l-25 246l-103 -246h-208l-78 510h218l19 -266l104 266h179zM338 690h175l45 -145h-151z" />
    <glyph glyph-name="Wacute" unicode="&#x1e82;" horiz-adv-x="984" 
d="M706 310l141 380h228l-297 -690h-223l-27 386l-149 -386h-222l-79 690h228l21 -380l141 380h217zM488 725l91 145h175l-115 -145h-151z" />
    <glyph glyph-name="wacute" unicode="&#x1e83;" horiz-adv-x="858" 
d="M595 244l103 266h219l-240 -510h-208l-25 246l-103 -246h-208l-78 510h218l19 -266l104 266h179zM396 545l91 145h175l-115 -145h-151z" />
    <glyph glyph-name="Wdieresis" unicode="&#x1e84;" horiz-adv-x="984" 
d="M762 812q0 -39 -27.5 -67t-66.5 -28q-31 0 -50 18t-19 48q0 39 27.5 67t66.5 28q31 0 50 -18t19 -48zM560 812q0 -39 -27.5 -67t-66.5 -28q-30 0 -49 18t-19 48q0 39 27.5 67t66.5 28q30 0 49 -18t19 -48zM706 310l141 380h228l-297 -690h-223l-27 386l-149 -386h-222
l-79 690h228l21 -380l141 380h217z" />
    <glyph glyph-name="wdieresis" unicode="&#x1e85;" horiz-adv-x="858" 
d="M677 632q0 -39 -27.5 -67t-66.5 -28q-31 0 -50 18t-19 48q0 39 27.5 67t66.5 28q31 0 50 -18t19 -48zM475 632q0 -39 -27.5 -67t-66.5 -28q-30 0 -49 18t-19 48q0 39 27.5 67t66.5 28q30 0 49 -18t19 -48zM595 244l103 266h219l-240 -510h-208l-25 246l-103 -246h-208
l-78 510h218l19 -266l104 266h179z" />
    <glyph glyph-name="Ygrave" unicode="&#x1ef2;" 
d="M372 460l134 230h243l-298 -420l-42 -270h-219l43 270l-165 420h243zM263 870h175l45 -145h-151z" />
    <glyph glyph-name="ygrave" unicode="&#x1ef3;" horiz-adv-x="591" 
d="M315 248l119 262h223l-284 -520q-16 -30 -40 -66q-16 -24 -43 -53q-50 -56 -133 -56q-109 0 -174 30l69 162q31 -16 66 -16q36 0 47 29l-115 490h227zM213 690h175l45 -145h-151z" />
    <glyph glyph-name="endash" unicode="&#x2013;" horiz-adv-x="485" 
d="M8 180l26 165h482l-27 -165h-481z" />
    <glyph glyph-name="emdash" unicode="&#x2014;" horiz-adv-x="970" 
d="M32 180l26 165h914l-27 -165h-913z" />
    <glyph glyph-name="quoteleft" unicode="&#x2018;" horiz-adv-x="383" 
d="M96 405l156 285h179l-132 -285h-203z" />
    <glyph glyph-name="quoteright" unicode="&#x2019;" horiz-adv-x="383" 
d="M81 405l132 285h204l-156 -285h-180z" />
    <glyph glyph-name="quotesinglbase" unicode="&#x201a;" horiz-adv-x="383" 
d="M-2 -120l132 285h204l-156 -285h-180z" />
    <glyph glyph-name="quotedblleft" unicode="&#x201c;" horiz-adv-x="630" 
d="M345 405l156 285h170l-132 -285h-194zM100 405l157 285h170l-133 -285h-194z" />
    <glyph glyph-name="quotedblright" unicode="&#x201d;" horiz-adv-x="630" 
d="M331 405l132 285h194l-156 -285h-170zM86 405l132 285h194l-156 -285h-170z" />
    <glyph glyph-name="quotedblbase" unicode="&#x201e;" horiz-adv-x="630" 
d="M248 -120l132 285h194l-156 -285h-170zM3 -120l132 285h194l-156 -285h-170z" />
    <glyph glyph-name="dagger" unicode="&#x2020;" horiz-adv-x="703" 
d="M529 730l-35 -219h192l-26 -162h-192l-76 -484h-170l76 484h-192l26 162h192l35 219h170z" />
    <glyph glyph-name="daggerdbl" unicode="&#x2021;" horiz-adv-x="703" 
d="M529 730l-32 -200h192l-26 -161h-192l-22 -143h192l-26 -161h-192l-31 -200h-170l31 200h-192l26 161h192l22 143h-192l26 161h192l32 200h170z" />
    <glyph glyph-name="bullet" unicode="&#x2022;" horiz-adv-x="665" 
d="M441 493q54 -53 54 -128t-54 -129t-129 -54t-129 54q-53 55 -53 129q0 75 53 128q54 54 129 54t129 -54z" />
    <glyph glyph-name="ellipsis" unicode="&#x2026;" horiz-adv-x="970" 
d="M908 119q0 -59 -38.5 -94.5t-99.5 -35.5q-46 0 -74.5 22.5t-28.5 64.5q0 59 38.5 94.5t99.5 35.5q46 0 74.5 -22.5t28.5 -64.5zM596 119q0 -59 -38.5 -94.5t-99.5 -35.5q-46 0 -74.5 22.5t-28.5 64.5q0 59 38.5 94.5t99.5 35.5q46 0 74.5 -22.5t28.5 -64.5zM284 119
q0 -59 -38.5 -94.5t-99.5 -35.5q-46 0 -74.5 22.5t-28.5 64.5q0 59 38.5 94.5t99.5 35.5q46 0 74.5 -22.5t28.5 -64.5z" />
    <glyph glyph-name="perthousand" unicode="&#x2030;" horiz-adv-x="1333" 
d="M1304 217q0 -97 -62 -165q-61 -67 -160 -67q-73 0 -117 41.5t-44 112.5q0 100 61 165q61 67 161 67q73 0 117 -41.5t44 -112.5zM896 217q0 -97 -62 -165q-61 -67 -160 -67q-73 0 -117 41.5t-44 112.5q0 100 61 165q61 67 161 67q73 0 117 -41.5t44 -112.5zM190 28
l524 682l77 -53l-524 -682zM468 546q0 -97 -62 -165q-61 -67 -160 -67q-73 0 -117 41.5t-44 112.5q0 100 61 165q61 67 161 67q73 0 117 -41.5t44 -112.5zM1168 199q0 50 -45 50q-31 0 -47.5 -25.5t-16.5 -63.5q0 -48 43 -48q31 0 48.5 25.5t17.5 61.5zM760 199q0 50 -45 50
q-31 0 -47.5 -25.5t-16.5 -63.5q0 -48 43 -48q31 0 48.5 25.5t17.5 61.5zM333 528q0 50 -45 50q-31 0 -48 -25.5t-17 -63.5q0 -48 43 -48q31 0 49 25.5t18 61.5z" />
    <glyph glyph-name="guilsinglleft" unicode="&#x2039;" horiz-adv-x="402" 
d="M86 255l202 235l91 -73l-139 -162l87 -162l-114 -73z" />
    <glyph glyph-name="guilsinglright" unicode="&#x203a;" horiz-adv-x="402" 
d="M112 417l114 73l127 -235l-202 -235l-90 73l138 162z" />
    <glyph glyph-name="fraction" unicode="&#x2044;" horiz-adv-x="339" 
d="M-100 27l530 688l75 -53l-530 -688z" />
    <glyph glyph-name="Euro" unicode="&#x20ac;" 
d="M689 650l-79 -162q-53 43 -114 43q-72 0 -96 -40h129l-19 -122h-161q-5 -20 -6 -40h160l-19 -122h-129q5 -39 79 -39q72 0 142 49l28 -167q-94 -61 -218 -61q-228 0 -254 218h-58l19 122h42q1 20 6 40h-41l19 122h63q92 209 317 209q51 0 103 -13q56 -12 87 -37z" />
    <glyph glyph-name="trademark" unicode="&#x2122;" horiz-adv-x="925" 
d="M675 690h145l25 -420h-110l-10 275h-3l-72 -275h-93l-72 275h-3l-10 -275h-110l25 420h145l70 -265h3zM25 690h317v-88h-105v-332h-107v332h-105v88z" />
    <glyph glyph-name="product" unicode="&#x220f;" horiz-adv-x="873" 
d="M851 309l-17 -110h-97q-39 -68 -104 -117q-109 -82 -278 -82h-234l31 199h-91l17 110h91l13 77h-91l17 110h91l31 194h234q167 0 253 -83q48 -48 65 -111h99l-17 -110h-72q-4 -32 -5 -41q-1 -12 -8 -36h72zM627 386h-284l-13 -77h285q7 24 8 36q4 25 4 41zM551 199h-238
l-10 -62h82q93 0 152 50q6 4 14 12zM360 496h236l-8 11q-45 49 -136 49h-82z" />
    <glyph glyph-name="minus" unicode="&#x2212;" horiz-adv-x="735" 
d="M60 425h575v-160h-575v160z" />
    <glyph glyph-name="notequal" unicode="&#x2260;" horiz-adv-x="735" 
d="M421 295h214v-160h-243l-15 -90h-165l15 90h-167v160h196l18 100h-214v160h242l15 90h165l-15 -90h168v-160h-196z" />
    <glyph glyph-name="lessequal" unicode="&#x2264;" horiz-adv-x="984" 
d="M383 15q-19 -16 -42 -16t-37 16q-14 17 -10 40t23 39q19 17 42 17t37 -17q14 -16 10 -39t-23 -40zM227 170q4 23 23 39.5t42 16.5t37 -16.5t10 -39.5q-3 -23 -22 -39.5t-42 -16.5t-37 16.5t-11 39.5zM250 245q-19 -16 -42 -16t-37 16q-14 17 -10 40t23 39q19 17 42 17
t37 -17q14 -16 10 -39t-23 -40zM403 745q4 23 23 39.5t42 16.5t37 -16.5t10 -39.5q-3 -23 -22 -39.5t-42 -16.5t-37 16.5t-11 39.5zM389 590q-19 -16 -42 -16t-37 16q-14 17 -10 40t23 39q19 17 42 17t37 -17q14 -16 10 -39t-23 -40zM286 475q-19 -16 -42 -16t-37 16
q-14 17 -10 40t23 39q19 17 42 17t37 -17q14 -16 10 -39t-23 -40zM1008 360q-19 -16 -42 -16t-37 16q-14 17 -10 40t23 39q19 17 42 17t37 -17q14 -16 10 -39t-23 -40zM843 360q-19 -16 -42 -16t-37 16q-14 17 -10 40t23 39q19 17 42 17t37 -17q14 -16 10 -39t-23 -40z
M348 360q-19 -16 -42 -16t-37 16q-14 17 -10 40t23 39q19 17 42 17t37 -17q14 -16 10 -39t-23 -40zM183 360q-19 -16 -42 -16t-37 16q-14 17 -10 40t23 39q19 17 42 17t37 -17q14 -16 10 -39t-23 -40zM513 360q-19 -16 -42 -16t-37 16q-14 17 -10 40t23 39q19 17 42 17
t37 -17q14 -16 10 -39t-23 -40zM678 360q-19 -16 -42 -16t-37 16q-14 17 -10 40t23 39q19 17 42 17t37 -17q14 -16 10 -39t-23 -40z" />
    <glyph glyph-name="greaterequal" unicode="&#x2265;" horiz-adv-x="984" 
d="M466 360q-19 -16 -42 -16t-37 16q-14 17 -10 40t23 39q19 17 42 17t37 -17q14 -16 10 -39t-23 -40zM631 360q-19 -16 -42 -16t-37 16q-14 17 -10 40t23 39q19 17 42 17t37 -17q14 -16 10 -39t-23 -40zM961 360q-19 -16 -42 -16t-37 16q-14 17 -10 40t23 39q19 17 42 17
t37 -17q14 -16 10 -39t-23 -40zM796 360q-19 -16 -42 -16t-37 16q-14 17 -10 40t23 39q19 17 42 17t37 -17q14 -16 10 -39t-23 -40zM301 360q-19 -16 -42 -16t-37 16q-14 17 -10 40t23 39q19 17 42 17t37 -17q14 -16 10 -39t-23 -40zM136 360q-19 -16 -42 -16t-37 16
q-14 17 -10 40t23 39q19 17 42 17t37 -17q14 -16 10 -39t-23 -40zM894 475q-19 -16 -42 -16t-37 16q-14 17 -10 40t23 39q19 17 42 17t37 -17q14 -16 10 -39t-23 -40zM827 590q-19 -16 -42 -16t-37 16q-14 17 -10 40t23 39q19 17 42 17t37 -17q14 -16 10 -39t-23 -40z
M671 745q4 23 23 39.5t42 16.5t37 -16.5t10 -39.5q-3 -23 -22 -39.5t-42 -16.5t-37 16.5t-11 39.5zM858 245q-19 -16 -42 -16t-37 16q-14 17 -10 40t23 39q19 17 42 17t37 -17q14 -16 10 -39t-23 -40zM665 170q4 23 23 39.5t42 16.5t37 -16.5t10 -39.5q-3 -23 -22 -39.5
t-42 -16.5t-37 16.5t-11 39.5zM651 15q-19 -16 -42 -16t-37 16q-14 17 -10 40t23 39q19 17 42 17t37 -17q14 -16 10 -39t-23 -40z" />
    <glyph glyph-name="commaaccent" unicode="&#xf6c3;" horiz-adv-x="346" 
d="M246 -50l-81 -140h-176l56 140h201z" />
    <glyph glyph-name="apple" unicode="&#xf8ff;" horiz-adv-x="1439" 
d="M608 -62h-7q25 21 25 45q0 35 -29 41q5 -33 5 -52q0 -36 -30.5 -57t-73.5 -21q-27 0 -47 15t-20 39q0 21 14 31.5t32 10.5q10 0 13 -1q13 26 45 40v3q-3 7 -3 23q-20 -41 -55 -41q-19 0 -32 20.5t-13 50.5q0 21 18 66q18 47 18 60q0 23 -9 23q-10 0 -21 -11.5t-12 -18.5
q0 -35 -34 -53q0 -142 -116 -142q-35 0 -57.5 16.5t-22.5 48.5q0 22 12.5 38.5t30.5 16.5q25 0 25 -29q0 -22 -11.5 -38t-29.5 -16q-2 0 -8.5 2.5t-7.5 2.5q3 -12 13 -20.5t20 -8.5q33 0 51 43q16 41 26 86q-22 9 -35 31q-9 -3 -14 -3q-56 0 -56 58q0 45 32 80q32 36 77 36
q37 0 63 -13q28 -12 36 -12q2 0 16 2v-4q-56 -14 -92 -63q-2 19 -16 30.5t-34 11.5q-29 0 -51.5 -24.5t-22.5 -54.5q0 -42 45 -42q8 0 14 3q-5 12 -5 28q0 20 10 34t22 14q17 0 17 -20q0 -35 -36 -57q7 -17 31 -28q16 67 47 105q38 43 70 47v-5q-47 -23 -47 -109
q0 -3 0.5 -8t1 -14t0.5 -16q32 17 32 46q0 24 -12 38v1q14 -6 15 -30q17 32 49 32q22 0 34.5 -21t12.5 -53q0 -11 -18 -57q-17 -48 -17 -67q0 -17 9 -17q25 0 39 57q10 38 13 52l12 57l10 47q18 -8 26 -8q12 0 34 16q0 -3 -13 -57q-22 -102 -22 -137v-7l1 -14q37 -7 37 -50
q0 -28 -24 -48zM1340 115l32 -25l-113 -22l8 -40l-70 56q-26 -59 -64 -98q15 -7 41 -7q52 0 73 41h2q-4 -22 -25 -36.5t-46 -14.5q-26 0 -53 10q-57 -59 -113 -59q-58 0 -58 95q-1 -1 -6 -1q-32 0 -54 29.5t-22 79.5q0 34 41 78t86 44q40 0 40 -52q0 -33 -33 -59
q-30 -24 -68 -29q-10 -47 -10 -66q0 -17 20 -17q5 0 6 1v1q0 32 19 63q19 33 48 33q13 0 13 -20q0 -24 -24 -53q-22 -28 -49 -31q0 -87 56 -87q44 0 98 54q-63 31 -63 96q0 26 15 47.5t38 26.5v-3q-22 -6 -34.5 -26.5t-12.5 -47.5q0 -58 64 -86q44 50 60 102l-90 27l39 16
l-52 107l42 -13l-9 63l41 -45l24 35l24 -78l34 107l17 -28l62 37v-71h38l-82 -81l81 23l-13 -42l61 -6zM770 -4h6v-4q-9 0 -15.5 -5t-6.5 -13q0 -9 6.5 -15t15.5 -6q29 0 50 30t21 59q0 16 -11 35q-30 -63 -70 -63q-30 0 -30 42q0 25 13.5 42t30.5 20q11 74 11 109q0 8 -9 8
q-5 0 -12.5 -6t-14.5 -21t-7 -35q0 -18 -23 -138q-22 -116 -27 -130q-18 8 -26 8q-10 0 -33 -16l17 90q16 83 27 151q13 69 13 84q0 37 -40 59q-39 25 -39 118q0 27 18 86q19 58 19 89q0 17 -7 17q-10 0 -24.5 -17.5t-23.5 -42.5q-2 -15 -15.5 -87.5t-14.5 -74.5
q-18 9 -26 9q-18 0 -31 -10l11 61q22 125 22 147q0 14 -7 14q-14 0 -30 -42h-8q5 16 9.5 25.5t15.5 18t26 8.5q39 0 47 -45q1 1 6 9t7 11t7.5 9.5t10 9t10.5 5t13 2.5q22 0 36 -26.5t14 -64.5q0 -39 -20 -99t-20 -87q0 -53 37 -63q16 -3 29 -17t17 -37q23 38 46 38
q26 0 43 -35q17 -36 17 -64q0 -32 -13 -61q15 -23 15 -46q0 -37 -21 -65t-53 -28q-13 0 -22 8t-9 20q0 9 6.5 15.5t15.5 6.5zM150 257h-4l3 3q10 0 21.5 9t11.5 20v5q-17 -7 -39 -7q-24 0 -46 9t-22 25q0 11 13 17.5t28 6.5q18 0 40 -11.5t31 -26.5q35 15 35 46q0 18 -8 28
q-26 -16 -56 -16q-48 0 -78 33t-30 89q0 16 10 43q-26 20 -26 58q0 37 23 69q24 33 57 33h8l5 -1v-5h-9q-32 0 -55 -30q-23 -31 -23 -65q0 -33 24 -50q27 62 79 121q53 60 86 60q31 0 31 -53q0 -43 -36 -83q-35 -40 -81 -56l-1 -1v-2q-22 -88 -22 -116q0 -15 9 -24.5
t16 -11.5t12 -2q24 0 49 18q-13 10 -34 10q-22 0 -28 -6v3q9 9 25 9q25 0 42 -12q42 37 42 91q0 44 -28 44q-26 0 -43.5 -23t-17.5 -51q0 -30 18 -30q13 0 22 16.5t9 35.5q0 2 -2 12h6q2 -6 2 -12q0 -20 -11.5 -39t-25.5 -19q-24 0 -24 38q0 28 19 53.5t45 25.5
q21 0 33.5 -18t12.5 -45q0 -52 -48 -87q12 -12 12 -34q0 -37 -43 -55q1 -1 1 -4q0 -14 -12.5 -24.5t-27.5 -10.5zM1156 457h9q-23 -86 -61 -86q-18 0 -32 13t-18 36q-15 -29 -26 -39.5t-26 -10.5q-27 0 -42 34q-14 36 -14 67q0 36 37 82q37 48 68 48q17 0 24 -19
q4 22 9.5 49t9.5 43l3 17q15 -9 26 -8t35 16q-55 -288 -55 -304q0 -13 7 -13q13 0 26 25q14 27 20 50zM928 424h7q-14 -53 -45 -53q-38 0 -48 48q-25 -49 -51 -49q-27 0 -42 34q-15 35 -15 67q0 36 37 82q38 48 68 48q18 0 26 -23l5 20q18 -7 27 -7q7 0 33 15
q-38 -198 -38 -211t6 -13q14 0 30 42zM1372 424h8q-15 -53 -46 -53q-40 0 -47 48q-15 -29 -26 -39t-25 -10q-27 0 -43 34q-15 35 -15 67q0 35 38 82q38 48 68 48q17 0 26 -23l5 20q18 -7 26 -7q11 0 33 15l-12 -61q-10 -45 -18 -94q-8 -46 -8 -56q0 -13 7 -13q13 0 29 42z
M479 424h7q-14 -53 -46 -53q-17 0 -30 12.5t-17 35.5q-15 -29 -25.5 -39t-26.5 -10q-26 0 -41 34q-14 36 -14 67q0 35 38 82q38 48 68 48q15 0 24 -23l5 20q27 -10 38 -5q3 1 8.5 4.5t9.5 6.5l4 2q0 -2 -13 -62q-10 -50 -18 -93q-8 -46 -8 -56q0 -13 8 -13q12 0 29 42z
M315 -74h-4q-20 0 -38 10.5t-18 27.5q0 21 26 21q18 0 33.5 -12.5t15.5 -28.5v-4l-1 -4q26 6 43 23.5t17 43.5q0 12 -5 29h3q6 -9 6 -29q0 -27 -20 -48.5t-48 -26.5q-15 -28 -57 -28q-30 0 -53 13t-23 36q0 12 7 20t19 8q9 0 12 -1q-65 56 -144 56q-23 0 -85 -8
q13 5 41 13.5t32 10.5q36 14 63 44q28 31 28 59q0 32 -22.5 51.5t-56.5 19.5q-71 0 -71 -41q0 -12 13 -19.5t30 -7.5q19 0 52 27v-7q-22 -31 -52 -31q-21 0 -36 10.5t-15 27.5q0 48 75 48q44 0 68 -22.5t24 -59.5q0 -28 -25 -56q-24 -27 -46 -41l14 -4q44 -9 71.5 -26
t51.5 -51h-1v-1q-2 0 -8.5 1.5t-8.5 1.5q-25 0 -25 -22q0 -21 24 -32q25 -12 47 -12q30 0 47 21zM1070 557q-2 36 -15 36q-11 0 -18.5 -18.5t-7.5 -32.5q-25 -107 -25 -153q0 -8 7 -8q20 0 30 34q12 39 29 142zM485 -24h-12q-33 0 -33 -31q0 -20 16.5 -32.5t39.5 -12.5
q22 0 41 14t19 35q0 20 -20 72q-30 -11 -40 -34q13 -5 21.5 -15.5t8.5 -20.5q0 -7 -6 -13t-14 -6q-10 0 -16 9.5t-6 19t1 15.5zM1285 452q1 27 17 97q0 44 -14 44q-18 0 -26 -51q-24 -132 -24 -153q0 -8 6 -8q24 0 41 71zM841 452q2 27 17 97q0 44 -14 44q-17 1 -26 -51
q-24 -132 -24 -153q0 -8 5 -8q25 0 42 71zM392 452q1 27 17 97q0 44 -14 44q-8 0 -15.5 -17t-10.5 -34q-24 -106 -24 -153q0 -8 6 -8q23 0 41 71zM145 537q40 18 69 62t29 91q0 20 -14 20q-16 0 -38 -48l-9 -22q-8 -23 -19.5 -55t-17.5 -48zM1161 388h2q-5 -30 -26 -49
t-50 -23q0 -21 -21 -37t-49 -16q-27 0 -45 12t-18 37q0 16 12.5 29.5t29.5 14.5v-3q-13 -2 -23.5 -12.5t-10.5 -22.5q0 -41 57 -41q61 0 63 39q-1 -1 -6 -1q-18 0 -30.5 7.5t-12.5 20.5q0 6 6 10.5t12 4.5q12 0 22 -9.5t14 -22.5q25 3 46.5 21t27.5 41zM915 356l8 -4
q-6 -27 -33.5 -46.5t-60.5 -19.5h-8q-13 -13 -38 -13q-55 0 -78 42v1q35 -39 76 -39q23 0 33 10q-33 4 -68 25q-33 21 -33 57q0 17 8 27l4 -3q-4 -12 -4 -22q0 -33 32 -51q30 -17 70 -22q3 6 3 14q0 18 -15 30.5t-35 12.5q-17 0 -31 -8l-3 1q18 20 53.5 8t35.5 -43
q0 -5 -2 -15h3q31 0 54 15t29 43zM939 113q28 4 46 41q18 38 18 66q0 17 -8 17q-32 0 -56 -124zM960 26v-2q20 0 42 27q24 28 24 52q0 11 -7 11q-22 0 -41 -31q-18 -30 -18 -57zM179 304q-9 14 -28 24.5t-35 10.5q-31 0 -31 -18q0 -24 53 -24q23 0 41 7zM609 255l-4 1v2
q-3 19 -13.5 29t-23.5 10q-7 0 -31 -12q-25 -11 -48 -11q-26 0 -26 20q0 12 10.5 18.5t23.5 6.5l46 -5q25 0 25 18q0 11 -9 17.5t-21 6.5q-22 0 -22 -14q0 -11 12 -11q9 0 17 5l1 -6q-7 -4 -17 -4q-19 0 -19 15q0 8 9.5 14t19.5 6q15 0 25 -8t10 -20q0 -23 -31 -23l-46 5
q-30 0 -30 -21q0 -14 21 -14q14 0 39 12q25 13 35 13q21 0 34 -14t13 -36zM779 109q-15 -1 -26.5 -18.5t-11.5 -38.5q0 -28 18 -28q7 0 12 23l3 20q5 20 5 42zM323 -54q0 14 -12 23.5t-27 9.5q-21 0 -21 -20q0 -17 27 -24q29 -5 33 11zM285 191q33 23 33 51q0 15 -12 15
q-18 0 -23 -27.5t2 -38.5zM1078 326h3q-6 26 -27 26q-12 0 -12 -10q0 -16 36 -16zM493 -26q-1 -3 -1 -10q0 -24 12 -24t12 9q0 14 -23 25z" />
    <glyph glyph-name="NULL" horiz-adv-x="0" 
 />
    <glyph glyph-name="CR" horiz-adv-x="333" 
 />
    </font>
</defs>
</svg>
